G75*
%MOIN*%
%OFA0B0*%
%FSLAX25Y25*%
%IPPOS*%
%LPD*%
%AMOC8*
5,1,8,0,0,1.08239X$1,22.5*
%
%ADD10C,0.00394*%
%ADD11R,0.05518X0.04731*%
%ADD12R,0.04731X0.05518*%
%ADD13R,0.07487X0.06699*%
%ADD14C,0.08077*%
%ADD15R,0.06109X0.18904*%
%ADD16R,0.43313X0.41739*%
%ADD17R,0.02762X0.04731*%
%ADD18R,0.05518X0.05518*%
%ADD19R,0.05518X0.08274*%
%ADD20R,0.02762X0.03550*%
%ADD21R,0.05124X0.03943*%
%ADD22C,0.17392*%
D10*
X0033230Y0040429D02*
X0033230Y0201846D01*
X0033232Y0202036D01*
X0033239Y0202226D01*
X0033251Y0202416D01*
X0033267Y0202606D01*
X0033287Y0202795D01*
X0033313Y0202984D01*
X0033342Y0203172D01*
X0033377Y0203359D01*
X0033416Y0203545D01*
X0033459Y0203730D01*
X0033507Y0203915D01*
X0033559Y0204098D01*
X0033615Y0204279D01*
X0033676Y0204459D01*
X0033742Y0204638D01*
X0033811Y0204815D01*
X0033885Y0204991D01*
X0033963Y0205164D01*
X0034046Y0205336D01*
X0034132Y0205505D01*
X0034222Y0205673D01*
X0034317Y0205838D01*
X0034415Y0206001D01*
X0034518Y0206161D01*
X0034624Y0206319D01*
X0034734Y0206474D01*
X0034847Y0206627D01*
X0034965Y0206777D01*
X0035086Y0206923D01*
X0035210Y0207067D01*
X0035338Y0207208D01*
X0035469Y0207346D01*
X0035604Y0207481D01*
X0035742Y0207612D01*
X0035883Y0207740D01*
X0036027Y0207864D01*
X0036173Y0207985D01*
X0036323Y0208103D01*
X0036476Y0208216D01*
X0036631Y0208326D01*
X0036789Y0208432D01*
X0036949Y0208535D01*
X0037112Y0208633D01*
X0037277Y0208728D01*
X0037445Y0208818D01*
X0037614Y0208904D01*
X0037786Y0208987D01*
X0037959Y0209065D01*
X0038135Y0209139D01*
X0038312Y0209208D01*
X0038491Y0209274D01*
X0038671Y0209335D01*
X0038852Y0209391D01*
X0039035Y0209443D01*
X0039220Y0209491D01*
X0039405Y0209534D01*
X0039591Y0209573D01*
X0039778Y0209608D01*
X0039966Y0209637D01*
X0040155Y0209663D01*
X0040344Y0209683D01*
X0040534Y0209699D01*
X0040724Y0209711D01*
X0040914Y0209718D01*
X0041104Y0209720D01*
X0143466Y0209720D01*
X0143656Y0209718D01*
X0143846Y0209711D01*
X0144036Y0209699D01*
X0144226Y0209683D01*
X0144415Y0209663D01*
X0144604Y0209637D01*
X0144792Y0209608D01*
X0144979Y0209573D01*
X0145165Y0209534D01*
X0145350Y0209491D01*
X0145535Y0209443D01*
X0145718Y0209391D01*
X0145899Y0209335D01*
X0146079Y0209274D01*
X0146258Y0209208D01*
X0146435Y0209139D01*
X0146611Y0209065D01*
X0146784Y0208987D01*
X0146956Y0208904D01*
X0147125Y0208818D01*
X0147293Y0208728D01*
X0147458Y0208633D01*
X0147621Y0208535D01*
X0147781Y0208432D01*
X0147939Y0208326D01*
X0148094Y0208216D01*
X0148247Y0208103D01*
X0148397Y0207985D01*
X0148543Y0207864D01*
X0148687Y0207740D01*
X0148828Y0207612D01*
X0148966Y0207481D01*
X0149101Y0207346D01*
X0149232Y0207208D01*
X0149360Y0207067D01*
X0149484Y0206923D01*
X0149605Y0206777D01*
X0149723Y0206627D01*
X0149836Y0206474D01*
X0149946Y0206319D01*
X0150052Y0206161D01*
X0150155Y0206001D01*
X0150253Y0205838D01*
X0150348Y0205673D01*
X0150438Y0205505D01*
X0150524Y0205336D01*
X0150607Y0205164D01*
X0150685Y0204991D01*
X0150759Y0204815D01*
X0150828Y0204638D01*
X0150894Y0204459D01*
X0150955Y0204279D01*
X0151011Y0204098D01*
X0151063Y0203915D01*
X0151111Y0203730D01*
X0151154Y0203545D01*
X0151193Y0203359D01*
X0151228Y0203172D01*
X0151257Y0202984D01*
X0151283Y0202795D01*
X0151303Y0202606D01*
X0151319Y0202416D01*
X0151331Y0202226D01*
X0151338Y0202036D01*
X0151340Y0201846D01*
X0151340Y0040429D01*
X0151338Y0040239D01*
X0151331Y0040049D01*
X0151319Y0039859D01*
X0151303Y0039669D01*
X0151283Y0039480D01*
X0151257Y0039291D01*
X0151228Y0039103D01*
X0151193Y0038916D01*
X0151154Y0038730D01*
X0151111Y0038545D01*
X0151063Y0038360D01*
X0151011Y0038177D01*
X0150955Y0037996D01*
X0150894Y0037816D01*
X0150828Y0037637D01*
X0150759Y0037460D01*
X0150685Y0037284D01*
X0150607Y0037111D01*
X0150524Y0036939D01*
X0150438Y0036770D01*
X0150348Y0036602D01*
X0150253Y0036437D01*
X0150155Y0036274D01*
X0150052Y0036114D01*
X0149946Y0035956D01*
X0149836Y0035801D01*
X0149723Y0035648D01*
X0149605Y0035498D01*
X0149484Y0035352D01*
X0149360Y0035208D01*
X0149232Y0035067D01*
X0149101Y0034929D01*
X0148966Y0034794D01*
X0148828Y0034663D01*
X0148687Y0034535D01*
X0148543Y0034411D01*
X0148397Y0034290D01*
X0148247Y0034172D01*
X0148094Y0034059D01*
X0147939Y0033949D01*
X0147781Y0033843D01*
X0147621Y0033740D01*
X0147458Y0033642D01*
X0147293Y0033547D01*
X0147125Y0033457D01*
X0146956Y0033371D01*
X0146784Y0033288D01*
X0146611Y0033210D01*
X0146435Y0033136D01*
X0146258Y0033067D01*
X0146079Y0033001D01*
X0145899Y0032940D01*
X0145718Y0032884D01*
X0145535Y0032832D01*
X0145350Y0032784D01*
X0145165Y0032741D01*
X0144979Y0032702D01*
X0144792Y0032667D01*
X0144604Y0032638D01*
X0144415Y0032612D01*
X0144226Y0032592D01*
X0144036Y0032576D01*
X0143846Y0032564D01*
X0143656Y0032557D01*
X0143466Y0032555D01*
X0041104Y0032555D01*
X0040914Y0032557D01*
X0040724Y0032564D01*
X0040534Y0032576D01*
X0040344Y0032592D01*
X0040155Y0032612D01*
X0039966Y0032638D01*
X0039778Y0032667D01*
X0039591Y0032702D01*
X0039405Y0032741D01*
X0039220Y0032784D01*
X0039035Y0032832D01*
X0038852Y0032884D01*
X0038671Y0032940D01*
X0038491Y0033001D01*
X0038312Y0033067D01*
X0038135Y0033136D01*
X0037959Y0033210D01*
X0037786Y0033288D01*
X0037614Y0033371D01*
X0037445Y0033457D01*
X0037277Y0033547D01*
X0037112Y0033642D01*
X0036949Y0033740D01*
X0036789Y0033843D01*
X0036631Y0033949D01*
X0036476Y0034059D01*
X0036323Y0034172D01*
X0036173Y0034290D01*
X0036027Y0034411D01*
X0035883Y0034535D01*
X0035742Y0034663D01*
X0035604Y0034794D01*
X0035469Y0034929D01*
X0035338Y0035067D01*
X0035210Y0035208D01*
X0035086Y0035352D01*
X0034965Y0035498D01*
X0034847Y0035648D01*
X0034734Y0035801D01*
X0034624Y0035956D01*
X0034518Y0036114D01*
X0034415Y0036274D01*
X0034317Y0036437D01*
X0034222Y0036602D01*
X0034132Y0036770D01*
X0034046Y0036939D01*
X0033963Y0037111D01*
X0033885Y0037284D01*
X0033811Y0037460D01*
X0033742Y0037637D01*
X0033676Y0037816D01*
X0033615Y0037996D01*
X0033559Y0038177D01*
X0033507Y0038360D01*
X0033459Y0038545D01*
X0033416Y0038730D01*
X0033377Y0038916D01*
X0033342Y0039103D01*
X0033313Y0039291D01*
X0033287Y0039480D01*
X0033267Y0039669D01*
X0033251Y0039859D01*
X0033239Y0040049D01*
X0033232Y0040239D01*
X0033230Y0040429D01*
D11*
X0098230Y0139406D03*
X0098230Y0145705D03*
X0123230Y0173156D03*
X0123230Y0179455D03*
D12*
X0113880Y0163805D03*
X0107581Y0163805D03*
X0112581Y0155055D03*
X0118880Y0155055D03*
X0113880Y0146305D03*
X0107581Y0146305D03*
X0107581Y0137555D03*
X0113880Y0137555D03*
X0125081Y0137555D03*
X0131380Y0137555D03*
X0138831Y0137555D03*
X0145130Y0137555D03*
X0083880Y0182555D03*
X0077581Y0182555D03*
X0077581Y0192555D03*
X0083880Y0192555D03*
X0087581Y0056305D03*
X0093880Y0056305D03*
X0093880Y0047555D03*
X0087581Y0047555D03*
X0080130Y0047555D03*
X0073831Y0047555D03*
X0073831Y0038805D03*
X0080130Y0038805D03*
X0087581Y0038805D03*
X0093880Y0038805D03*
X0080130Y0056305D03*
X0073831Y0056305D03*
D13*
X0098230Y0154543D03*
X0098230Y0165567D03*
D14*
X0058319Y0161305D02*
X0050642Y0161305D01*
X0050642Y0141305D02*
X0058319Y0141305D01*
X0058319Y0121305D02*
X0050642Y0121305D01*
X0050642Y0101305D02*
X0058319Y0101305D01*
X0058319Y0081305D02*
X0050642Y0081305D01*
D15*
X0113230Y0119799D03*
X0133230Y0119799D03*
D16*
X0123230Y0083776D03*
D17*
X0126990Y0150793D03*
X0134470Y0150793D03*
X0134470Y0161817D03*
X0130730Y0161817D03*
X0126990Y0161817D03*
D18*
X0092403Y0183028D03*
X0092403Y0192083D03*
D19*
X0114057Y0187555D03*
D20*
X0141980Y0172476D03*
X0141980Y0162634D03*
X0141980Y0156226D03*
X0141980Y0146384D03*
D21*
X0093476Y0117201D03*
X0093476Y0105390D03*
D22*
X0135592Y0048303D03*
X0048978Y0048303D03*
X0048978Y0193972D03*
X0135592Y0193972D03*
M02*
