G75*
%MOIN*%
%OFA0B0*%
%FSLAX25Y25*%
%IPPOS*%
%LPD*%
%AMOC8*
5,1,8,0,0,1.08239X$1,22.5*
%
%ADD10C,0.00700*%
%ADD11C,0.00900*%
%ADD12C,0.00984*%
%ADD13C,0.00591*%
%ADD14C,0.01000*%
%ADD15C,0.00800*%
%ADD16R,0.03400X0.03000*%
%ADD17R,0.03544X0.11023*%
%ADD18C,0.00600*%
D10*
X0078276Y0074738D02*
X0079093Y0073921D01*
X0082363Y0073921D01*
X0083180Y0074738D01*
X0083180Y0076373D01*
X0082363Y0077190D01*
X0080728Y0077190D01*
X0080728Y0075555D01*
X0079093Y0077190D02*
X0078276Y0076373D01*
X0078276Y0074738D01*
X0078276Y0079077D02*
X0083180Y0082346D01*
X0078276Y0082346D01*
X0078276Y0084233D02*
X0078276Y0086685D01*
X0079093Y0087503D01*
X0082363Y0087503D01*
X0083180Y0086685D01*
X0083180Y0084233D01*
X0078276Y0084233D01*
X0078276Y0079077D02*
X0083180Y0079077D01*
X0080728Y0094467D02*
X0080728Y0097737D01*
X0081545Y0099624D02*
X0081545Y0102076D01*
X0080728Y0102893D01*
X0079093Y0102893D01*
X0078276Y0102076D01*
X0078276Y0099624D01*
X0083180Y0099624D01*
X0081545Y0101258D02*
X0083180Y0102893D01*
X0082363Y0104780D02*
X0080728Y0104780D01*
X0079911Y0105597D01*
X0079911Y0107232D01*
X0080728Y0108049D01*
X0081545Y0108049D01*
X0081545Y0104780D01*
X0082363Y0104780D02*
X0083180Y0105597D01*
X0083180Y0107232D01*
X0083180Y0109936D02*
X0083180Y0111571D01*
X0083180Y0110754D02*
X0078276Y0110754D01*
X0078276Y0109936D01*
X0079911Y0114191D02*
X0079911Y0115826D01*
X0080728Y0116643D01*
X0083180Y0116643D01*
X0083180Y0114191D01*
X0082363Y0113374D01*
X0081545Y0114191D01*
X0081545Y0116643D01*
X0082363Y0118530D02*
X0083180Y0119348D01*
X0083180Y0121800D01*
X0083998Y0121800D02*
X0084815Y0120982D01*
X0084815Y0120165D01*
X0083998Y0121800D02*
X0079911Y0121800D01*
X0080728Y0123687D02*
X0080728Y0126956D01*
X0079093Y0125321D02*
X0082363Y0125321D01*
X0082363Y0118530D02*
X0079911Y0118530D01*
X0079911Y0134780D02*
X0080728Y0135597D01*
X0080728Y0137232D01*
X0081545Y0138049D01*
X0082363Y0138049D01*
X0083180Y0137232D01*
X0083180Y0135597D01*
X0082363Y0134780D01*
X0079911Y0134780D02*
X0079093Y0134780D01*
X0078276Y0135597D01*
X0078276Y0137232D01*
X0079093Y0138049D01*
X0079911Y0139936D02*
X0079911Y0140754D01*
X0083180Y0140754D01*
X0083180Y0141571D02*
X0083180Y0139936D01*
X0082363Y0143374D02*
X0080728Y0143374D01*
X0079911Y0144191D01*
X0079911Y0146643D01*
X0083998Y0146643D01*
X0084815Y0145826D01*
X0084815Y0145009D01*
X0083180Y0144191D02*
X0083180Y0146643D01*
X0083180Y0144191D02*
X0082363Y0143374D01*
X0078276Y0140754D02*
X0077459Y0140754D01*
X0079911Y0153921D02*
X0078276Y0155555D01*
X0083180Y0155555D01*
X0083180Y0153921D02*
X0083180Y0157190D01*
X0083180Y0159077D02*
X0079911Y0162346D01*
X0079093Y0162346D01*
X0078276Y0161529D01*
X0078276Y0159894D01*
X0079093Y0159077D01*
X0083180Y0159077D02*
X0083180Y0162346D01*
X0081545Y0164233D02*
X0083180Y0165868D01*
X0081545Y0167503D01*
X0078276Y0167503D01*
X0078276Y0164233D02*
X0081545Y0164233D01*
X0096705Y0171355D02*
X0096705Y0174625D01*
X0098340Y0176259D01*
X0099974Y0174625D01*
X0099974Y0171355D01*
X0101861Y0172172D02*
X0101861Y0173807D01*
X0102679Y0174625D01*
X0105131Y0174625D01*
X0105131Y0176259D02*
X0105131Y0171355D01*
X0102679Y0171355D01*
X0101861Y0172172D01*
X0099974Y0173807D02*
X0096705Y0173807D01*
X0107018Y0169720D02*
X0107835Y0169720D01*
X0108652Y0170538D01*
X0108652Y0174625D01*
X0108652Y0176259D02*
X0108652Y0177077D01*
X0104554Y0059577D02*
X0104554Y0058759D01*
X0104554Y0057125D02*
X0104554Y0053855D01*
X0103737Y0053855D02*
X0105371Y0053855D01*
X0107174Y0053855D02*
X0107174Y0057125D01*
X0107992Y0057125D01*
X0108809Y0056307D01*
X0109626Y0057125D01*
X0110444Y0056307D01*
X0110444Y0053855D01*
X0108809Y0053855D02*
X0108809Y0056307D01*
X0112331Y0057125D02*
X0113148Y0057125D01*
X0113148Y0053855D01*
X0112331Y0053855D02*
X0113965Y0053855D01*
X0115768Y0057125D02*
X0117403Y0057125D01*
X0116586Y0057942D02*
X0116586Y0054672D01*
X0117403Y0053855D01*
X0113148Y0058759D02*
X0113148Y0059577D01*
X0109710Y0050009D02*
X0109710Y0045105D01*
X0108893Y0045105D02*
X0110528Y0045105D01*
X0112331Y0045922D02*
X0113148Y0046740D01*
X0115600Y0046740D01*
X0115600Y0047557D02*
X0115600Y0045105D01*
X0113148Y0045105D01*
X0112331Y0045922D01*
X0113148Y0048375D02*
X0114783Y0048375D01*
X0115600Y0047557D01*
X0117487Y0048375D02*
X0117487Y0045922D01*
X0118304Y0045105D01*
X0120756Y0045105D01*
X0120756Y0044288D02*
X0119939Y0043470D01*
X0119122Y0043470D01*
X0120756Y0044288D02*
X0120756Y0048375D01*
X0120840Y0039625D02*
X0121658Y0039625D01*
X0120840Y0039625D02*
X0119206Y0037990D01*
X0119206Y0036355D02*
X0119206Y0039625D01*
X0117319Y0038807D02*
X0117319Y0037990D01*
X0114049Y0037990D01*
X0114049Y0038807D02*
X0114867Y0039625D01*
X0116501Y0039625D01*
X0117319Y0038807D01*
X0116501Y0036355D02*
X0114867Y0036355D01*
X0114049Y0037172D01*
X0114049Y0038807D01*
X0112162Y0039625D02*
X0112162Y0037172D01*
X0111345Y0036355D01*
X0110528Y0037172D01*
X0109710Y0036355D01*
X0108893Y0037172D01*
X0108893Y0039625D01*
X0107006Y0038807D02*
X0106189Y0039625D01*
X0104554Y0039625D01*
X0103737Y0038807D01*
X0103737Y0037172D01*
X0104554Y0036355D01*
X0106189Y0036355D01*
X0107006Y0037172D01*
X0107006Y0038807D01*
X0101850Y0038807D02*
X0101032Y0037990D01*
X0098580Y0037990D01*
X0098580Y0036355D02*
X0098580Y0041259D01*
X0101032Y0041259D01*
X0101850Y0040442D01*
X0101850Y0038807D01*
X0101850Y0045105D02*
X0100215Y0046740D01*
X0101032Y0046740D02*
X0098580Y0046740D01*
X0098580Y0045105D02*
X0098580Y0050009D01*
X0101032Y0050009D01*
X0101850Y0049192D01*
X0101850Y0047557D01*
X0101032Y0046740D01*
X0103737Y0046740D02*
X0107006Y0046740D01*
X0107006Y0047557D01*
X0106189Y0048375D01*
X0104554Y0048375D01*
X0103737Y0047557D01*
X0103737Y0045922D01*
X0104554Y0045105D01*
X0106189Y0045105D01*
X0108893Y0050009D02*
X0109710Y0050009D01*
X0104554Y0057125D02*
X0103737Y0057125D01*
X0101850Y0053855D02*
X0098580Y0053855D01*
X0098580Y0058759D01*
D11*
X0099181Y0200765D02*
X0099181Y0206870D01*
X0096805Y0206870D02*
X0092735Y0206870D01*
X0094770Y0206870D02*
X0094770Y0200765D01*
X0090360Y0201783D02*
X0090360Y0205853D01*
X0089342Y0206870D01*
X0087307Y0206870D01*
X0086290Y0205853D01*
X0086290Y0204835D01*
X0087307Y0203818D01*
X0090360Y0203818D01*
X0090360Y0201783D02*
X0089342Y0200765D01*
X0087307Y0200765D01*
X0086290Y0201783D01*
X0083914Y0201783D02*
X0082897Y0200765D01*
X0079844Y0200765D01*
X0079844Y0206870D01*
X0082897Y0206870D01*
X0083914Y0205853D01*
X0083914Y0204835D01*
X0082897Y0203818D01*
X0079844Y0203818D01*
X0077469Y0203818D02*
X0073399Y0203818D01*
X0073399Y0206870D02*
X0073399Y0200765D01*
X0077469Y0200765D02*
X0077469Y0206870D01*
X0082897Y0203818D02*
X0083914Y0202800D01*
X0083914Y0201783D01*
X0099181Y0202800D02*
X0103251Y0206870D01*
X0105626Y0205853D02*
X0105626Y0201783D01*
X0106644Y0200765D01*
X0108679Y0200765D01*
X0109696Y0201783D01*
X0109696Y0205853D01*
X0108679Y0206870D01*
X0106644Y0206870D01*
X0105626Y0205853D01*
X0103251Y0200765D02*
X0100198Y0203818D01*
D12*
X0088230Y0171305D02*
X0088230Y0151305D01*
X0074480Y0151305D01*
X0088230Y0151305D02*
X0088230Y0131305D01*
X0074480Y0131305D01*
X0088230Y0131305D02*
X0088230Y0090055D01*
X0074480Y0090055D01*
X0088230Y0090055D02*
X0088230Y0071305D01*
X0073230Y0071305D01*
X0073230Y0171305D02*
X0088230Y0171305D01*
D13*
X0086833Y0179209D02*
X0086833Y0185902D01*
X0074628Y0185902D01*
X0074628Y0179209D01*
X0086833Y0179209D01*
X0086833Y0189209D02*
X0086833Y0195902D01*
X0074628Y0195902D01*
X0074628Y0189209D01*
X0086833Y0189209D01*
X0095750Y0196610D02*
X0095750Y0178500D01*
X0110710Y0178500D01*
X0110710Y0196610D01*
X0095750Y0196610D01*
X0093899Y0169504D02*
X0102561Y0169504D01*
X0102561Y0150606D01*
X0093899Y0150606D01*
X0093899Y0169504D01*
X0104628Y0167152D02*
X0104628Y0160459D01*
X0116833Y0160459D01*
X0116833Y0167152D01*
X0104628Y0167152D01*
X0109628Y0158402D02*
X0109628Y0151709D01*
X0121833Y0151709D01*
X0121833Y0158402D01*
X0109628Y0158402D01*
X0104628Y0149652D02*
X0104628Y0142959D01*
X0116833Y0142959D01*
X0116833Y0149652D01*
X0104628Y0149652D01*
X0101577Y0148657D02*
X0094884Y0148657D01*
X0094884Y0136453D01*
X0101577Y0136453D01*
X0101577Y0148657D01*
X0104628Y0140902D02*
X0104628Y0134209D01*
X0116833Y0134209D01*
X0116833Y0140902D01*
X0104628Y0140902D01*
X0096626Y0119957D02*
X0090327Y0119957D01*
X0090327Y0114445D01*
X0093476Y0114445D01*
X0096626Y0111295D01*
X0090327Y0111295D01*
X0093476Y0114445D01*
X0096626Y0114445D01*
X0096626Y0111295D01*
X0096626Y0102634D01*
X0090327Y0102634D01*
X0090327Y0111295D01*
X0090327Y0114445D01*
X0096626Y0114445D02*
X0096626Y0119957D01*
X0122128Y0134209D02*
X0122128Y0140902D01*
X0134333Y0140902D01*
X0134333Y0134209D01*
X0122128Y0134209D01*
X0135878Y0134209D02*
X0148083Y0134209D01*
X0148083Y0140902D01*
X0135878Y0140902D01*
X0135878Y0134209D01*
X0139618Y0143825D02*
X0144342Y0143825D01*
X0144342Y0148943D01*
X0139618Y0148943D01*
X0139618Y0152093D01*
X0144342Y0152093D01*
X0141980Y0148943D01*
X0139618Y0152093D01*
X0139618Y0158785D01*
X0144342Y0158785D01*
X0144342Y0152093D01*
X0144342Y0148943D01*
X0139618Y0148943D02*
X0139618Y0143825D01*
X0136242Y0153549D02*
X0136242Y0159061D01*
X0125218Y0159061D01*
X0125218Y0153549D01*
X0136242Y0153549D01*
X0139618Y0160075D02*
X0144342Y0160075D01*
X0144342Y0165193D01*
X0139618Y0165193D01*
X0139618Y0168343D01*
X0144342Y0168343D01*
X0141980Y0165193D01*
X0139618Y0168343D01*
X0139618Y0175035D01*
X0144342Y0175035D01*
X0144342Y0168343D01*
X0144342Y0165193D01*
X0139618Y0165193D02*
X0139618Y0160075D01*
X0126577Y0170203D02*
X0119884Y0170203D01*
X0119884Y0182407D01*
X0126577Y0182407D01*
X0126577Y0170203D01*
X0096833Y0059652D02*
X0084628Y0059652D01*
X0084628Y0052959D01*
X0096833Y0052959D01*
X0096833Y0059652D01*
X0096833Y0050902D02*
X0096833Y0044209D01*
X0084628Y0044209D01*
X0084628Y0050902D01*
X0096833Y0050902D01*
X0096833Y0042152D02*
X0096833Y0035459D01*
X0084628Y0035459D01*
X0084628Y0042152D01*
X0096833Y0042152D01*
X0083083Y0042152D02*
X0083083Y0035459D01*
X0070878Y0035459D01*
X0070878Y0042152D01*
X0083083Y0042152D01*
X0083083Y0044209D02*
X0083083Y0050902D01*
X0070878Y0050902D01*
X0070878Y0044209D01*
X0083083Y0044209D01*
X0083083Y0052959D02*
X0083083Y0059652D01*
X0070878Y0059652D01*
X0070878Y0052959D01*
X0083083Y0052959D01*
D14*
X0034795Y0071305D02*
X0034795Y0171305D01*
X0074165Y0171305D01*
X0074165Y0071305D01*
X0034795Y0071305D01*
D15*
X0103872Y0069346D02*
X0103872Y0104795D01*
X0142588Y0104795D01*
X0142588Y0069346D01*
D16*
X0123230Y0106459D03*
D17*
X0133230Y0110705D03*
X0113230Y0110705D03*
D18*
X0126197Y0154637D02*
X0127310Y0154637D01*
X0126753Y0154637D02*
X0126753Y0157976D01*
X0126197Y0157976D02*
X0127310Y0157976D01*
X0128613Y0157420D02*
X0128613Y0155193D01*
X0129170Y0154637D01*
X0130283Y0154637D01*
X0130840Y0155193D01*
X0132239Y0154637D02*
X0134465Y0154637D01*
X0133352Y0154637D02*
X0133352Y0157976D01*
X0132239Y0156863D01*
X0130840Y0157420D02*
X0130283Y0157976D01*
X0129170Y0157976D01*
X0128613Y0157420D01*
X0105430Y0183251D02*
X0101026Y0183251D01*
X0101026Y0185453D01*
X0101760Y0186187D01*
X0103228Y0186187D01*
X0103962Y0185453D01*
X0103962Y0183251D01*
X0103962Y0184719D02*
X0105430Y0186187D01*
X0104696Y0187855D02*
X0105430Y0188589D01*
X0105430Y0190057D01*
X0104696Y0190791D01*
X0101760Y0190791D01*
X0101026Y0190057D01*
X0101026Y0188589D01*
X0101760Y0187855D01*
X0102494Y0187855D01*
X0103228Y0188589D01*
X0103228Y0190791D01*
M02*
