G75*
%MOIN*%
%OFA0B0*%
%FSLAX25Y25*%
%IPPOS*%
%LPD*%
%AMOC8*
5,1,8,0,0,1.08239X$1,22.5*
%
%ADD10C,0.00394*%
%ADD11R,0.05118X0.04331*%
%ADD12R,0.04331X0.05118*%
%ADD13R,0.07087X0.06299*%
%ADD14C,0.07677*%
%ADD15R,0.05709X0.18504*%
%ADD16R,0.42913X0.41339*%
%ADD17R,0.02362X0.04331*%
%ADD18R,0.05118X0.05118*%
%ADD19R,0.05118X0.07874*%
%ADD20R,0.02362X0.03150*%
%ADD21R,0.04724X0.03543*%
%ADD22C,0.03200*%
%ADD23C,0.02400*%
%ADD24C,0.01600*%
%ADD25C,0.07000*%
%ADD26C,0.00787*%
%ADD27C,0.03562*%
%ADD28C,0.16992*%
D10*
X0033230Y0040429D02*
X0033230Y0201846D01*
X0033232Y0202036D01*
X0033239Y0202226D01*
X0033251Y0202416D01*
X0033267Y0202606D01*
X0033287Y0202795D01*
X0033313Y0202984D01*
X0033342Y0203172D01*
X0033377Y0203359D01*
X0033416Y0203545D01*
X0033459Y0203730D01*
X0033507Y0203915D01*
X0033559Y0204098D01*
X0033615Y0204279D01*
X0033676Y0204459D01*
X0033742Y0204638D01*
X0033811Y0204815D01*
X0033885Y0204991D01*
X0033963Y0205164D01*
X0034046Y0205336D01*
X0034132Y0205505D01*
X0034222Y0205673D01*
X0034317Y0205838D01*
X0034415Y0206001D01*
X0034518Y0206161D01*
X0034624Y0206319D01*
X0034734Y0206474D01*
X0034847Y0206627D01*
X0034965Y0206777D01*
X0035086Y0206923D01*
X0035210Y0207067D01*
X0035338Y0207208D01*
X0035469Y0207346D01*
X0035604Y0207481D01*
X0035742Y0207612D01*
X0035883Y0207740D01*
X0036027Y0207864D01*
X0036173Y0207985D01*
X0036323Y0208103D01*
X0036476Y0208216D01*
X0036631Y0208326D01*
X0036789Y0208432D01*
X0036949Y0208535D01*
X0037112Y0208633D01*
X0037277Y0208728D01*
X0037445Y0208818D01*
X0037614Y0208904D01*
X0037786Y0208987D01*
X0037959Y0209065D01*
X0038135Y0209139D01*
X0038312Y0209208D01*
X0038491Y0209274D01*
X0038671Y0209335D01*
X0038852Y0209391D01*
X0039035Y0209443D01*
X0039220Y0209491D01*
X0039405Y0209534D01*
X0039591Y0209573D01*
X0039778Y0209608D01*
X0039966Y0209637D01*
X0040155Y0209663D01*
X0040344Y0209683D01*
X0040534Y0209699D01*
X0040724Y0209711D01*
X0040914Y0209718D01*
X0041104Y0209720D01*
X0143466Y0209720D01*
X0143656Y0209718D01*
X0143846Y0209711D01*
X0144036Y0209699D01*
X0144226Y0209683D01*
X0144415Y0209663D01*
X0144604Y0209637D01*
X0144792Y0209608D01*
X0144979Y0209573D01*
X0145165Y0209534D01*
X0145350Y0209491D01*
X0145535Y0209443D01*
X0145718Y0209391D01*
X0145899Y0209335D01*
X0146079Y0209274D01*
X0146258Y0209208D01*
X0146435Y0209139D01*
X0146611Y0209065D01*
X0146784Y0208987D01*
X0146956Y0208904D01*
X0147125Y0208818D01*
X0147293Y0208728D01*
X0147458Y0208633D01*
X0147621Y0208535D01*
X0147781Y0208432D01*
X0147939Y0208326D01*
X0148094Y0208216D01*
X0148247Y0208103D01*
X0148397Y0207985D01*
X0148543Y0207864D01*
X0148687Y0207740D01*
X0148828Y0207612D01*
X0148966Y0207481D01*
X0149101Y0207346D01*
X0149232Y0207208D01*
X0149360Y0207067D01*
X0149484Y0206923D01*
X0149605Y0206777D01*
X0149723Y0206627D01*
X0149836Y0206474D01*
X0149946Y0206319D01*
X0150052Y0206161D01*
X0150155Y0206001D01*
X0150253Y0205838D01*
X0150348Y0205673D01*
X0150438Y0205505D01*
X0150524Y0205336D01*
X0150607Y0205164D01*
X0150685Y0204991D01*
X0150759Y0204815D01*
X0150828Y0204638D01*
X0150894Y0204459D01*
X0150955Y0204279D01*
X0151011Y0204098D01*
X0151063Y0203915D01*
X0151111Y0203730D01*
X0151154Y0203545D01*
X0151193Y0203359D01*
X0151228Y0203172D01*
X0151257Y0202984D01*
X0151283Y0202795D01*
X0151303Y0202606D01*
X0151319Y0202416D01*
X0151331Y0202226D01*
X0151338Y0202036D01*
X0151340Y0201846D01*
X0151340Y0040429D01*
X0151338Y0040239D01*
X0151331Y0040049D01*
X0151319Y0039859D01*
X0151303Y0039669D01*
X0151283Y0039480D01*
X0151257Y0039291D01*
X0151228Y0039103D01*
X0151193Y0038916D01*
X0151154Y0038730D01*
X0151111Y0038545D01*
X0151063Y0038360D01*
X0151011Y0038177D01*
X0150955Y0037996D01*
X0150894Y0037816D01*
X0150828Y0037637D01*
X0150759Y0037460D01*
X0150685Y0037284D01*
X0150607Y0037111D01*
X0150524Y0036939D01*
X0150438Y0036770D01*
X0150348Y0036602D01*
X0150253Y0036437D01*
X0150155Y0036274D01*
X0150052Y0036114D01*
X0149946Y0035956D01*
X0149836Y0035801D01*
X0149723Y0035648D01*
X0149605Y0035498D01*
X0149484Y0035352D01*
X0149360Y0035208D01*
X0149232Y0035067D01*
X0149101Y0034929D01*
X0148966Y0034794D01*
X0148828Y0034663D01*
X0148687Y0034535D01*
X0148543Y0034411D01*
X0148397Y0034290D01*
X0148247Y0034172D01*
X0148094Y0034059D01*
X0147939Y0033949D01*
X0147781Y0033843D01*
X0147621Y0033740D01*
X0147458Y0033642D01*
X0147293Y0033547D01*
X0147125Y0033457D01*
X0146956Y0033371D01*
X0146784Y0033288D01*
X0146611Y0033210D01*
X0146435Y0033136D01*
X0146258Y0033067D01*
X0146079Y0033001D01*
X0145899Y0032940D01*
X0145718Y0032884D01*
X0145535Y0032832D01*
X0145350Y0032784D01*
X0145165Y0032741D01*
X0144979Y0032702D01*
X0144792Y0032667D01*
X0144604Y0032638D01*
X0144415Y0032612D01*
X0144226Y0032592D01*
X0144036Y0032576D01*
X0143846Y0032564D01*
X0143656Y0032557D01*
X0143466Y0032555D01*
X0041104Y0032555D01*
X0040914Y0032557D01*
X0040724Y0032564D01*
X0040534Y0032576D01*
X0040344Y0032592D01*
X0040155Y0032612D01*
X0039966Y0032638D01*
X0039778Y0032667D01*
X0039591Y0032702D01*
X0039405Y0032741D01*
X0039220Y0032784D01*
X0039035Y0032832D01*
X0038852Y0032884D01*
X0038671Y0032940D01*
X0038491Y0033001D01*
X0038312Y0033067D01*
X0038135Y0033136D01*
X0037959Y0033210D01*
X0037786Y0033288D01*
X0037614Y0033371D01*
X0037445Y0033457D01*
X0037277Y0033547D01*
X0037112Y0033642D01*
X0036949Y0033740D01*
X0036789Y0033843D01*
X0036631Y0033949D01*
X0036476Y0034059D01*
X0036323Y0034172D01*
X0036173Y0034290D01*
X0036027Y0034411D01*
X0035883Y0034535D01*
X0035742Y0034663D01*
X0035604Y0034794D01*
X0035469Y0034929D01*
X0035338Y0035067D01*
X0035210Y0035208D01*
X0035086Y0035352D01*
X0034965Y0035498D01*
X0034847Y0035648D01*
X0034734Y0035801D01*
X0034624Y0035956D01*
X0034518Y0036114D01*
X0034415Y0036274D01*
X0034317Y0036437D01*
X0034222Y0036602D01*
X0034132Y0036770D01*
X0034046Y0036939D01*
X0033963Y0037111D01*
X0033885Y0037284D01*
X0033811Y0037460D01*
X0033742Y0037637D01*
X0033676Y0037816D01*
X0033615Y0037996D01*
X0033559Y0038177D01*
X0033507Y0038360D01*
X0033459Y0038545D01*
X0033416Y0038730D01*
X0033377Y0038916D01*
X0033342Y0039103D01*
X0033313Y0039291D01*
X0033287Y0039480D01*
X0033267Y0039669D01*
X0033251Y0039859D01*
X0033239Y0040049D01*
X0033232Y0040239D01*
X0033230Y0040429D01*
D11*
X0098230Y0139406D03*
X0098230Y0145705D03*
X0123230Y0173156D03*
X0123230Y0179455D03*
D12*
X0113880Y0163805D03*
X0107581Y0163805D03*
X0112581Y0155055D03*
X0118880Y0155055D03*
X0113880Y0146305D03*
X0107581Y0146305D03*
X0107581Y0137555D03*
X0113880Y0137555D03*
X0125081Y0137555D03*
X0131380Y0137555D03*
X0138831Y0137555D03*
X0145130Y0137555D03*
X0083880Y0182555D03*
X0077581Y0182555D03*
X0077581Y0192555D03*
X0083880Y0192555D03*
X0087581Y0056305D03*
X0093880Y0056305D03*
X0093880Y0047555D03*
X0087581Y0047555D03*
X0080130Y0047555D03*
X0073831Y0047555D03*
X0073831Y0038805D03*
X0080130Y0038805D03*
X0087581Y0038805D03*
X0093880Y0038805D03*
X0080130Y0056305D03*
X0073831Y0056305D03*
D13*
X0098230Y0154543D03*
X0098230Y0165567D03*
D14*
X0058319Y0161305D02*
X0050642Y0161305D01*
X0050642Y0141305D02*
X0058319Y0141305D01*
X0058319Y0121305D02*
X0050642Y0121305D01*
X0050642Y0101305D02*
X0058319Y0101305D01*
X0058319Y0081305D02*
X0050642Y0081305D01*
D15*
X0113230Y0119799D03*
X0133230Y0119799D03*
D16*
X0123230Y0083776D03*
D17*
X0126990Y0150793D03*
X0134470Y0150793D03*
X0134470Y0161817D03*
X0130730Y0161817D03*
X0126990Y0161817D03*
D18*
X0092403Y0183028D03*
X0092403Y0192083D03*
D19*
X0114057Y0187555D03*
D20*
X0141980Y0172476D03*
X0141980Y0162634D03*
X0141980Y0156226D03*
X0141980Y0146384D03*
D21*
X0093476Y0117201D03*
X0093476Y0105390D03*
D22*
X0093230Y0105144D02*
X0093230Y0101305D01*
X0105701Y0101305D01*
X0118215Y0088790D01*
X0123230Y0083776D01*
X0093230Y0101305D02*
X0074480Y0101305D01*
X0054480Y0101305D01*
X0054480Y0121305D02*
X0093230Y0121305D01*
X0093230Y0117447D01*
D23*
X0093476Y0117201D01*
X0093476Y0105390D02*
X0093230Y0105144D01*
D24*
X0093230Y0121305D02*
X0098230Y0126305D01*
X0098230Y0139406D01*
X0098230Y0145705D02*
X0098230Y0154543D01*
X0090730Y0161305D02*
X0071980Y0161305D01*
X0071980Y0191305D01*
X0073230Y0192555D01*
X0077581Y0192555D01*
X0083880Y0192555D02*
X0091931Y0192555D01*
X0092403Y0192083D01*
X0092403Y0183028D02*
X0091931Y0182555D01*
X0083880Y0182555D01*
X0098230Y0170055D02*
X0098230Y0165567D01*
X0098230Y0170055D02*
X0101331Y0173156D01*
X0123230Y0173156D01*
X0131380Y0173156D01*
X0134480Y0170055D01*
X0134480Y0161827D01*
X0134470Y0161817D01*
X0135287Y0162634D01*
X0141980Y0162634D01*
X0141980Y0156226D01*
X0134480Y0150783D02*
X0134480Y0146305D01*
X0138831Y0141955D01*
X0138831Y0137555D01*
X0133230Y0131305D02*
X0133230Y0119799D01*
X0133230Y0131305D02*
X0131380Y0133156D01*
X0131380Y0137555D01*
X0126980Y0142555D02*
X0126980Y0150783D01*
X0126990Y0150793D01*
X0126990Y0155055D01*
X0118880Y0155055D01*
X0113230Y0155055D02*
X0112581Y0155055D01*
X0113230Y0155055D02*
X0113230Y0163805D01*
X0113880Y0163805D01*
X0126980Y0163805D01*
X0126980Y0161827D01*
X0126990Y0161817D01*
X0134470Y0150793D02*
X0134480Y0150783D01*
X0134559Y0146384D02*
X0141980Y0146384D01*
X0134559Y0146384D02*
X0134480Y0146305D01*
X0126980Y0142555D02*
X0125081Y0140656D01*
X0125081Y0137555D01*
X0113230Y0130055D02*
X0113230Y0119799D01*
X0113230Y0108805D01*
X0114480Y0107555D01*
X0146980Y0107555D01*
X0148230Y0106305D01*
X0148230Y0061305D01*
X0146980Y0060055D01*
X0103230Y0060055D01*
X0099480Y0056305D01*
X0093880Y0056305D01*
X0096980Y0061305D02*
X0099480Y0063805D01*
X0103230Y0063805D01*
X0103230Y0073805D01*
X0118215Y0088790D01*
X0096980Y0061305D02*
X0074480Y0061305D01*
X0073831Y0060656D01*
X0073831Y0056305D01*
X0080130Y0056305D02*
X0087581Y0056305D01*
X0087581Y0047555D02*
X0080130Y0047555D01*
X0073831Y0047555D02*
X0070730Y0047555D01*
X0068230Y0050055D01*
X0068230Y0061305D01*
X0061980Y0067555D01*
X0048230Y0067555D01*
X0041980Y0073805D01*
X0041980Y0120055D01*
X0043230Y0121305D01*
X0054480Y0121305D01*
X0074480Y0101305D02*
X0073831Y0100656D01*
X0060730Y0065055D02*
X0046980Y0065055D01*
X0039480Y0072555D01*
X0039480Y0158805D01*
X0041980Y0161305D01*
X0054480Y0161305D01*
X0071980Y0161305D01*
X0107581Y0163805D02*
X0107581Y0146305D01*
X0107581Y0137555D01*
X0107581Y0131955D01*
X0108230Y0131305D01*
X0111980Y0131305D01*
X0113230Y0130055D01*
X0123230Y0179455D02*
X0123230Y0183805D01*
X0119480Y0187555D01*
X0114057Y0187555D01*
X0060730Y0065055D02*
X0065730Y0060055D01*
X0065730Y0041305D01*
X0068230Y0038805D01*
X0073831Y0038805D01*
X0080130Y0038805D02*
X0087581Y0038805D01*
D25*
X0054480Y0121305D02*
X0054480Y0141305D01*
D26*
X0049565Y0146719D02*
X0047575Y0145894D01*
X0046052Y0144372D01*
X0045228Y0142382D01*
X0045228Y0140228D01*
X0046052Y0138239D01*
X0047575Y0136716D01*
X0049405Y0135958D01*
X0049405Y0126652D01*
X0047575Y0125894D01*
X0046052Y0124372D01*
X0045766Y0123680D01*
X0042246Y0123680D01*
X0041855Y0123288D01*
X0041855Y0157821D01*
X0042964Y0158930D01*
X0045766Y0158930D01*
X0046052Y0158239D01*
X0047575Y0156716D01*
X0049565Y0155892D01*
X0059396Y0155892D01*
X0061385Y0156716D01*
X0062908Y0158239D01*
X0063194Y0158930D01*
X0088359Y0158930D01*
X0088829Y0158460D01*
X0090063Y0157949D01*
X0091398Y0157949D01*
X0092631Y0158460D01*
X0093575Y0159404D01*
X0094086Y0160638D01*
X0094086Y0160843D01*
X0102426Y0160843D01*
X0103348Y0161765D01*
X0103348Y0169369D01*
X0102426Y0170291D01*
X0101825Y0170291D01*
X0102314Y0170781D01*
X0119096Y0170781D01*
X0119096Y0170338D01*
X0120019Y0169415D01*
X0126442Y0169415D01*
X0127364Y0170338D01*
X0127364Y0170781D01*
X0130396Y0170781D01*
X0132105Y0169071D01*
X0132105Y0165026D01*
X0131714Y0164635D01*
X0131714Y0158999D01*
X0132637Y0158077D01*
X0136304Y0158077D01*
X0137226Y0158999D01*
X0137226Y0160259D01*
X0139372Y0160259D01*
X0139605Y0160026D01*
X0139605Y0158835D01*
X0139224Y0158453D01*
X0139224Y0153999D01*
X0140147Y0153077D01*
X0143814Y0153077D01*
X0144736Y0153999D01*
X0144736Y0158453D01*
X0144355Y0158835D01*
X0144355Y0160026D01*
X0144736Y0160407D01*
X0144736Y0164861D01*
X0143814Y0165783D01*
X0140147Y0165783D01*
X0139372Y0165009D01*
X0136855Y0165009D01*
X0136855Y0171039D01*
X0135464Y0172430D01*
X0132363Y0175530D01*
X0127364Y0175530D01*
X0127364Y0175973D01*
X0127032Y0176305D01*
X0127364Y0176637D01*
X0127364Y0182272D01*
X0126442Y0183195D01*
X0125605Y0183195D01*
X0125605Y0184789D01*
X0124214Y0186180D01*
X0120464Y0189930D01*
X0118191Y0189930D01*
X0118191Y0192144D01*
X0117268Y0193067D01*
X0110846Y0193067D01*
X0109923Y0192144D01*
X0109923Y0182966D01*
X0110846Y0182043D01*
X0117268Y0182043D01*
X0118191Y0182966D01*
X0118191Y0185180D01*
X0118496Y0185180D01*
X0120482Y0183195D01*
X0120019Y0183195D01*
X0119096Y0182272D01*
X0119096Y0176637D01*
X0119428Y0176305D01*
X0119096Y0175973D01*
X0119096Y0175530D01*
X0100347Y0175530D01*
X0098956Y0174139D01*
X0095855Y0171039D01*
X0095855Y0170291D01*
X0094035Y0170291D01*
X0093112Y0169369D01*
X0093112Y0163669D01*
X0092631Y0164150D01*
X0091398Y0164661D01*
X0090063Y0164661D01*
X0088829Y0164150D01*
X0088359Y0163680D01*
X0074355Y0163680D01*
X0074355Y0188829D01*
X0074763Y0188421D01*
X0080398Y0188421D01*
X0080730Y0188753D01*
X0081062Y0188421D01*
X0086697Y0188421D01*
X0087620Y0189344D01*
X0087620Y0190180D01*
X0088270Y0190180D01*
X0088270Y0188871D01*
X0089192Y0187949D01*
X0095615Y0187949D01*
X0096537Y0188871D01*
X0096537Y0195294D01*
X0095615Y0196217D01*
X0089192Y0196217D01*
X0088270Y0195294D01*
X0088270Y0194930D01*
X0087620Y0194930D01*
X0087620Y0195766D01*
X0086697Y0196689D01*
X0081062Y0196689D01*
X0080730Y0196357D01*
X0080398Y0196689D01*
X0074763Y0196689D01*
X0073840Y0195766D01*
X0073840Y0194930D01*
X0072246Y0194930D01*
X0070996Y0193680D01*
X0069605Y0192289D01*
X0069605Y0163680D01*
X0063194Y0163680D01*
X0062908Y0164372D01*
X0061385Y0165894D01*
X0059396Y0166719D01*
X0049565Y0166719D01*
X0047575Y0165894D01*
X0046052Y0164372D01*
X0045766Y0163680D01*
X0040996Y0163680D01*
X0039605Y0162289D01*
X0037105Y0159789D01*
X0037105Y0071571D01*
X0038496Y0070180D01*
X0045996Y0062680D01*
X0059746Y0062680D01*
X0063355Y0059071D01*
X0063355Y0040321D01*
X0064746Y0038930D01*
X0067246Y0036430D01*
X0070090Y0036430D01*
X0070090Y0035594D01*
X0071013Y0034671D01*
X0076648Y0034671D01*
X0076980Y0035003D01*
X0077312Y0034671D01*
X0082947Y0034671D01*
X0083855Y0035579D01*
X0084763Y0034671D01*
X0090398Y0034671D01*
X0091321Y0035594D01*
X0091321Y0042016D01*
X0090398Y0042939D01*
X0084763Y0042939D01*
X0083855Y0042031D01*
X0082947Y0042939D01*
X0077312Y0042939D01*
X0076980Y0042607D01*
X0076648Y0042939D01*
X0071013Y0042939D01*
X0070090Y0042016D01*
X0070090Y0041180D01*
X0069214Y0041180D01*
X0068105Y0042289D01*
X0068105Y0046822D01*
X0068355Y0046571D01*
X0069746Y0045180D01*
X0070090Y0045180D01*
X0070090Y0044344D01*
X0068105Y0044344D01*
X0068105Y0045130D02*
X0070090Y0045130D01*
X0070090Y0044344D02*
X0071013Y0043421D01*
X0076648Y0043421D01*
X0076980Y0043753D01*
X0077312Y0043421D01*
X0082947Y0043421D01*
X0083855Y0044329D01*
X0084763Y0043421D01*
X0090398Y0043421D01*
X0091321Y0044344D01*
X0149569Y0044344D01*
X0149569Y0045130D02*
X0091321Y0045130D01*
X0091321Y0045916D02*
X0149569Y0045916D01*
X0149569Y0046702D02*
X0091321Y0046702D01*
X0091321Y0047487D02*
X0149569Y0047487D01*
X0149569Y0048273D02*
X0091321Y0048273D01*
X0091321Y0049059D02*
X0149569Y0049059D01*
X0149569Y0049845D02*
X0091321Y0049845D01*
X0091321Y0050631D02*
X0149569Y0050631D01*
X0149569Y0051417D02*
X0090670Y0051417D01*
X0090398Y0051689D02*
X0084763Y0051689D01*
X0083855Y0050781D01*
X0082947Y0051689D01*
X0077312Y0051689D01*
X0076980Y0051357D01*
X0076648Y0051689D01*
X0071013Y0051689D01*
X0070605Y0051281D01*
X0070605Y0052579D01*
X0071013Y0052171D01*
X0076648Y0052171D01*
X0076980Y0052503D01*
X0077312Y0052171D01*
X0082947Y0052171D01*
X0083855Y0053079D01*
X0084763Y0052171D01*
X0090398Y0052171D01*
X0090730Y0052503D01*
X0091062Y0052171D01*
X0096697Y0052171D01*
X0097620Y0053094D01*
X0097620Y0053930D01*
X0100464Y0053930D01*
X0101855Y0055321D01*
X0101855Y0055321D01*
X0104214Y0057680D01*
X0147964Y0057680D01*
X0149214Y0058930D01*
X0149569Y0059285D01*
X0149569Y0040429D01*
X0149494Y0039475D01*
X0148904Y0037659D01*
X0147781Y0036114D01*
X0146237Y0034992D01*
X0144421Y0034402D01*
X0143466Y0034327D01*
X0041104Y0034327D01*
X0040150Y0034402D01*
X0038334Y0034992D01*
X0036789Y0036114D01*
X0035667Y0037659D01*
X0035077Y0039475D01*
X0035002Y0040429D01*
X0035002Y0201846D01*
X0035077Y0202801D01*
X0035667Y0204617D01*
X0036789Y0206161D01*
X0038334Y0207284D01*
X0040150Y0207874D01*
X0041104Y0207949D01*
X0143466Y0207949D01*
X0144421Y0207874D01*
X0146237Y0207284D01*
X0147781Y0206161D01*
X0148904Y0204617D01*
X0149494Y0202801D01*
X0149569Y0201846D01*
X0149569Y0108325D01*
X0149355Y0108539D01*
X0147964Y0109930D01*
X0137659Y0109930D01*
X0137659Y0129703D01*
X0136737Y0130626D01*
X0135605Y0130626D01*
X0135605Y0132289D01*
X0134335Y0133559D01*
X0135105Y0134329D01*
X0136013Y0133421D01*
X0141648Y0133421D01*
X0142571Y0134344D01*
X0142571Y0140766D01*
X0141648Y0141689D01*
X0141205Y0141689D01*
X0141205Y0142938D01*
X0140909Y0143234D01*
X0143814Y0143234D01*
X0144736Y0144157D01*
X0144736Y0148611D01*
X0143814Y0149533D01*
X0140147Y0149533D01*
X0139372Y0148759D01*
X0137226Y0148759D01*
X0137226Y0153611D01*
X0136304Y0154533D01*
X0132637Y0154533D01*
X0131714Y0153611D01*
X0131714Y0148285D01*
X0131635Y0148206D01*
X0131124Y0146973D01*
X0131124Y0145638D01*
X0131635Y0144404D01*
X0132579Y0143460D01*
X0133813Y0142949D01*
X0134478Y0142949D01*
X0135875Y0141551D01*
X0135105Y0140781D01*
X0134197Y0141689D01*
X0129355Y0141689D01*
X0129355Y0147585D01*
X0129746Y0147976D01*
X0129746Y0153611D01*
X0129365Y0153992D01*
X0129365Y0156039D01*
X0127974Y0157430D01*
X0122620Y0157430D01*
X0122620Y0158266D01*
X0121697Y0159189D01*
X0116062Y0159189D01*
X0115730Y0158857D01*
X0115605Y0158982D01*
X0115605Y0159671D01*
X0116697Y0159671D01*
X0117620Y0160594D01*
X0117620Y0161430D01*
X0124234Y0161430D01*
X0124234Y0158999D01*
X0125157Y0158077D01*
X0128823Y0158077D01*
X0129746Y0158999D01*
X0129746Y0164635D01*
X0128823Y0165557D01*
X0128587Y0165557D01*
X0127964Y0166180D01*
X0117620Y0166180D01*
X0117620Y0167016D01*
X0116697Y0167939D01*
X0111062Y0167939D01*
X0110730Y0167607D01*
X0110398Y0167939D01*
X0104763Y0167939D01*
X0103840Y0167016D01*
X0103840Y0160594D01*
X0104763Y0159671D01*
X0105206Y0159671D01*
X0105206Y0150439D01*
X0104763Y0150439D01*
X0103840Y0149516D01*
X0103840Y0143094D01*
X0104763Y0142171D01*
X0105206Y0142171D01*
X0105206Y0141689D01*
X0104763Y0141689D01*
X0103840Y0140766D01*
X0103840Y0134344D01*
X0104763Y0133421D01*
X0105206Y0133421D01*
X0105206Y0130971D01*
X0105855Y0130321D01*
X0107246Y0128930D01*
X0108801Y0128930D01*
X0108801Y0109895D01*
X0109724Y0108972D01*
X0110855Y0108972D01*
X0110855Y0107821D01*
X0112246Y0106430D01*
X0112657Y0106020D01*
X0101121Y0106020D01*
X0100199Y0105097D01*
X0100199Y0104480D01*
X0097413Y0104480D01*
X0097413Y0107814D01*
X0096491Y0108736D01*
X0090462Y0108736D01*
X0089539Y0107814D01*
X0089539Y0104480D01*
X0062800Y0104480D01*
X0061385Y0105894D01*
X0059396Y0106719D01*
X0049565Y0106719D01*
X0047575Y0105894D01*
X0046052Y0104372D01*
X0045228Y0102382D01*
X0045228Y0100228D01*
X0046052Y0098239D01*
X0047575Y0096716D01*
X0049565Y0095892D01*
X0059396Y0095892D01*
X0061385Y0096716D01*
X0062800Y0098130D01*
X0100199Y0098130D01*
X0100199Y0066180D01*
X0098496Y0066180D01*
X0097105Y0064789D01*
X0095996Y0063680D01*
X0073496Y0063680D01*
X0072105Y0062289D01*
X0071456Y0061639D01*
X0071456Y0060439D01*
X0071013Y0060439D01*
X0070605Y0060031D01*
X0070605Y0062289D01*
X0069214Y0063680D01*
X0062964Y0069930D01*
X0049214Y0069930D01*
X0044355Y0074789D01*
X0044355Y0118930D01*
X0045766Y0118930D01*
X0046052Y0118239D01*
X0047575Y0116716D01*
X0049565Y0115892D01*
X0059396Y0115892D01*
X0061385Y0116716D01*
X0062800Y0118130D01*
X0089539Y0118130D01*
X0089539Y0114777D01*
X0090462Y0113854D01*
X0096491Y0113854D01*
X0097413Y0114777D01*
X0097413Y0119625D01*
X0096491Y0120547D01*
X0096405Y0120547D01*
X0096405Y0121121D01*
X0099214Y0123930D01*
X0100605Y0125321D01*
X0100605Y0135665D01*
X0101442Y0135665D01*
X0102364Y0136588D01*
X0102364Y0142223D01*
X0102032Y0142555D01*
X0102364Y0142887D01*
X0102364Y0148522D01*
X0101442Y0149445D01*
X0100605Y0149445D01*
X0100605Y0149819D01*
X0102426Y0149819D01*
X0103348Y0150741D01*
X0103348Y0158345D01*
X0102426Y0159268D01*
X0094035Y0159268D01*
X0093112Y0158345D01*
X0093112Y0150741D01*
X0094035Y0149819D01*
X0095855Y0149819D01*
X0095855Y0149445D01*
X0095019Y0149445D01*
X0094096Y0148522D01*
X0094096Y0142887D01*
X0094428Y0142555D01*
X0094096Y0142223D01*
X0094096Y0136588D01*
X0095019Y0135665D01*
X0095855Y0135665D01*
X0095855Y0127289D01*
X0093046Y0124480D01*
X0062800Y0124480D01*
X0061385Y0125894D01*
X0059555Y0126652D01*
X0059555Y0135958D01*
X0061385Y0136716D01*
X0062908Y0138239D01*
X0063732Y0140228D01*
X0063732Y0142382D01*
X0062908Y0144372D01*
X0061385Y0145894D01*
X0059396Y0146719D01*
X0049565Y0146719D01*
X0049067Y0146513D02*
X0041855Y0146513D01*
X0041855Y0147298D02*
X0094096Y0147298D01*
X0094096Y0146513D02*
X0059893Y0146513D01*
X0061553Y0145727D02*
X0094096Y0145727D01*
X0094096Y0144941D02*
X0062339Y0144941D01*
X0062998Y0144155D02*
X0094096Y0144155D01*
X0094096Y0143369D02*
X0063323Y0143369D01*
X0063649Y0142583D02*
X0094400Y0142583D01*
X0094096Y0141797D02*
X0063732Y0141797D01*
X0063732Y0141011D02*
X0094096Y0141011D01*
X0094096Y0140225D02*
X0063731Y0140225D01*
X0063405Y0139439D02*
X0094096Y0139439D01*
X0094096Y0138653D02*
X0063080Y0138653D01*
X0062537Y0137867D02*
X0094096Y0137867D01*
X0094096Y0137082D02*
X0061751Y0137082D01*
X0060371Y0136296D02*
X0094389Y0136296D01*
X0095855Y0135510D02*
X0059555Y0135510D01*
X0059555Y0134724D02*
X0095855Y0134724D01*
X0095855Y0133938D02*
X0059555Y0133938D01*
X0059555Y0133152D02*
X0095855Y0133152D01*
X0095855Y0132366D02*
X0059555Y0132366D01*
X0059555Y0131580D02*
X0095855Y0131580D01*
X0095855Y0130794D02*
X0059555Y0130794D01*
X0059555Y0130008D02*
X0095855Y0130008D01*
X0095855Y0129222D02*
X0059555Y0129222D01*
X0059555Y0128437D02*
X0095855Y0128437D01*
X0095855Y0127651D02*
X0059555Y0127651D01*
X0059555Y0126865D02*
X0095431Y0126865D01*
X0094645Y0126079D02*
X0060940Y0126079D01*
X0061987Y0125293D02*
X0093859Y0125293D01*
X0093074Y0124507D02*
X0062773Y0124507D01*
X0062103Y0117434D02*
X0089539Y0117434D01*
X0089539Y0116648D02*
X0061221Y0116648D01*
X0060090Y0106431D02*
X0089539Y0106431D01*
X0089539Y0107217D02*
X0044355Y0107217D01*
X0044355Y0108003D02*
X0089728Y0108003D01*
X0089539Y0105645D02*
X0061635Y0105645D01*
X0062420Y0104859D02*
X0089539Y0104859D01*
X0097413Y0104859D02*
X0100199Y0104859D01*
X0100747Y0105645D02*
X0097413Y0105645D01*
X0097413Y0106431D02*
X0112246Y0106431D01*
X0111460Y0107217D02*
X0097413Y0107217D01*
X0097224Y0108003D02*
X0110855Y0108003D01*
X0110855Y0108789D02*
X0044355Y0108789D01*
X0044355Y0109575D02*
X0109121Y0109575D01*
X0108801Y0110361D02*
X0044355Y0110361D01*
X0044355Y0111146D02*
X0108801Y0111146D01*
X0108801Y0111932D02*
X0044355Y0111932D01*
X0044355Y0112718D02*
X0108801Y0112718D01*
X0108801Y0113504D02*
X0044355Y0113504D01*
X0044355Y0114290D02*
X0090026Y0114290D01*
X0089539Y0115076D02*
X0044355Y0115076D01*
X0044355Y0115862D02*
X0089539Y0115862D01*
X0096926Y0114290D02*
X0108801Y0114290D01*
X0108801Y0115076D02*
X0097413Y0115076D01*
X0097413Y0115862D02*
X0108801Y0115862D01*
X0108801Y0116648D02*
X0097413Y0116648D01*
X0097413Y0117434D02*
X0108801Y0117434D01*
X0108801Y0118220D02*
X0097413Y0118220D01*
X0097413Y0119006D02*
X0108801Y0119006D01*
X0108801Y0119791D02*
X0097247Y0119791D01*
X0096405Y0120577D02*
X0108801Y0120577D01*
X0108801Y0121363D02*
X0096647Y0121363D01*
X0097433Y0122149D02*
X0108801Y0122149D01*
X0108801Y0122935D02*
X0098219Y0122935D01*
X0099005Y0123721D02*
X0108801Y0123721D01*
X0108801Y0124507D02*
X0099790Y0124507D01*
X0100576Y0125293D02*
X0108801Y0125293D01*
X0108801Y0126079D02*
X0100605Y0126079D01*
X0100605Y0126865D02*
X0108801Y0126865D01*
X0108801Y0127651D02*
X0100605Y0127651D01*
X0100605Y0128437D02*
X0108801Y0128437D01*
X0106954Y0129222D02*
X0100605Y0129222D01*
X0100605Y0130008D02*
X0106168Y0130008D01*
X0105383Y0130794D02*
X0100605Y0130794D01*
X0100605Y0131580D02*
X0105206Y0131580D01*
X0105206Y0132366D02*
X0100605Y0132366D01*
X0100605Y0133152D02*
X0105206Y0133152D01*
X0104246Y0133938D02*
X0100605Y0133938D01*
X0100605Y0134724D02*
X0103840Y0134724D01*
X0103840Y0135510D02*
X0100605Y0135510D01*
X0102072Y0136296D02*
X0103840Y0136296D01*
X0103840Y0137082D02*
X0102364Y0137082D01*
X0102364Y0137867D02*
X0103840Y0137867D01*
X0103840Y0138653D02*
X0102364Y0138653D01*
X0102364Y0139439D02*
X0103840Y0139439D01*
X0103840Y0140225D02*
X0102364Y0140225D01*
X0102364Y0141011D02*
X0104085Y0141011D01*
X0105206Y0141797D02*
X0102364Y0141797D01*
X0102060Y0142583D02*
X0104351Y0142583D01*
X0103840Y0143369D02*
X0102364Y0143369D01*
X0102364Y0144155D02*
X0103840Y0144155D01*
X0103840Y0144941D02*
X0102364Y0144941D01*
X0102364Y0145727D02*
X0103840Y0145727D01*
X0103840Y0146513D02*
X0102364Y0146513D01*
X0102364Y0147298D02*
X0103840Y0147298D01*
X0103840Y0148084D02*
X0102364Y0148084D01*
X0102016Y0148870D02*
X0103840Y0148870D01*
X0103980Y0149656D02*
X0100605Y0149656D01*
X0103049Y0150442D02*
X0105206Y0150442D01*
X0105206Y0151228D02*
X0103348Y0151228D01*
X0103348Y0152014D02*
X0105206Y0152014D01*
X0105206Y0152800D02*
X0103348Y0152800D01*
X0103348Y0153586D02*
X0105206Y0153586D01*
X0105206Y0154372D02*
X0103348Y0154372D01*
X0103348Y0155158D02*
X0105206Y0155158D01*
X0105206Y0155943D02*
X0103348Y0155943D01*
X0103348Y0156729D02*
X0105206Y0156729D01*
X0105206Y0157515D02*
X0103348Y0157515D01*
X0103348Y0158301D02*
X0105206Y0158301D01*
X0105206Y0159087D02*
X0102606Y0159087D01*
X0103840Y0160659D02*
X0094086Y0160659D01*
X0093769Y0159873D02*
X0104561Y0159873D01*
X0103840Y0161445D02*
X0103028Y0161445D01*
X0103348Y0162231D02*
X0103840Y0162231D01*
X0103840Y0163017D02*
X0103348Y0163017D01*
X0103348Y0163803D02*
X0103840Y0163803D01*
X0103840Y0164588D02*
X0103348Y0164588D01*
X0103348Y0165374D02*
X0103840Y0165374D01*
X0103840Y0166160D02*
X0103348Y0166160D01*
X0103348Y0166946D02*
X0103840Y0166946D01*
X0103348Y0167732D02*
X0104556Y0167732D01*
X0103348Y0168518D02*
X0132105Y0168518D01*
X0132105Y0167732D02*
X0116904Y0167732D01*
X0117620Y0166946D02*
X0132105Y0166946D01*
X0132105Y0166160D02*
X0127983Y0166160D01*
X0129006Y0165374D02*
X0132105Y0165374D01*
X0131714Y0164588D02*
X0129746Y0164588D01*
X0129746Y0163803D02*
X0131714Y0163803D01*
X0131714Y0163017D02*
X0129746Y0163017D01*
X0129746Y0162231D02*
X0131714Y0162231D01*
X0131714Y0161445D02*
X0129746Y0161445D01*
X0129746Y0160659D02*
X0131714Y0160659D01*
X0131714Y0159873D02*
X0129746Y0159873D01*
X0129746Y0159087D02*
X0131714Y0159087D01*
X0132413Y0158301D02*
X0129048Y0158301D01*
X0128674Y0156729D02*
X0139224Y0156729D01*
X0139224Y0155943D02*
X0129365Y0155943D01*
X0129365Y0155158D02*
X0139224Y0155158D01*
X0139224Y0154372D02*
X0136466Y0154372D01*
X0137226Y0153586D02*
X0139638Y0153586D01*
X0137226Y0152800D02*
X0149569Y0152800D01*
X0149569Y0153586D02*
X0144323Y0153586D01*
X0144736Y0154372D02*
X0149569Y0154372D01*
X0149569Y0155158D02*
X0144736Y0155158D01*
X0144736Y0155943D02*
X0149569Y0155943D01*
X0149569Y0156729D02*
X0144736Y0156729D01*
X0144736Y0157515D02*
X0149569Y0157515D01*
X0149569Y0158301D02*
X0144736Y0158301D01*
X0144355Y0159087D02*
X0149569Y0159087D01*
X0149569Y0159873D02*
X0144355Y0159873D01*
X0144736Y0160659D02*
X0149569Y0160659D01*
X0149569Y0161445D02*
X0144736Y0161445D01*
X0144736Y0162231D02*
X0149569Y0162231D01*
X0149569Y0163017D02*
X0144736Y0163017D01*
X0144736Y0163803D02*
X0149569Y0163803D01*
X0149569Y0164588D02*
X0144736Y0164588D01*
X0144223Y0165374D02*
X0149569Y0165374D01*
X0149569Y0166160D02*
X0136855Y0166160D01*
X0136855Y0165374D02*
X0139738Y0165374D01*
X0136855Y0166946D02*
X0149569Y0166946D01*
X0149569Y0167732D02*
X0136855Y0167732D01*
X0136855Y0168518D02*
X0149569Y0168518D01*
X0149569Y0169304D02*
X0136855Y0169304D01*
X0136855Y0170090D02*
X0149569Y0170090D01*
X0149569Y0170876D02*
X0136855Y0170876D01*
X0136232Y0171662D02*
X0149569Y0171662D01*
X0149569Y0172448D02*
X0135446Y0172448D01*
X0134660Y0173234D02*
X0149569Y0173234D01*
X0149569Y0174019D02*
X0133874Y0174019D01*
X0133088Y0174805D02*
X0149569Y0174805D01*
X0149569Y0175591D02*
X0127364Y0175591D01*
X0127104Y0176377D02*
X0149569Y0176377D01*
X0149569Y0177163D02*
X0127364Y0177163D01*
X0127364Y0177949D02*
X0149569Y0177949D01*
X0149569Y0178735D02*
X0127364Y0178735D01*
X0127364Y0179521D02*
X0149569Y0179521D01*
X0149569Y0180307D02*
X0127364Y0180307D01*
X0127364Y0181093D02*
X0149569Y0181093D01*
X0149569Y0181879D02*
X0127364Y0181879D01*
X0126972Y0182664D02*
X0149569Y0182664D01*
X0149569Y0183450D02*
X0125605Y0183450D01*
X0125605Y0184236D02*
X0149569Y0184236D01*
X0149569Y0185022D02*
X0125372Y0185022D01*
X0124586Y0185808D02*
X0149569Y0185808D01*
X0149569Y0186594D02*
X0123800Y0186594D01*
X0123014Y0187380D02*
X0149569Y0187380D01*
X0149569Y0188166D02*
X0122228Y0188166D01*
X0121442Y0188952D02*
X0149569Y0188952D01*
X0149569Y0189738D02*
X0120656Y0189738D01*
X0118191Y0190524D02*
X0149569Y0190524D01*
X0149569Y0191310D02*
X0118191Y0191310D01*
X0118191Y0192095D02*
X0149569Y0192095D01*
X0149569Y0192881D02*
X0117454Y0192881D01*
X0110660Y0192881D02*
X0096537Y0192881D01*
X0096537Y0192095D02*
X0109923Y0192095D01*
X0109923Y0191310D02*
X0096537Y0191310D01*
X0096537Y0190524D02*
X0109923Y0190524D01*
X0109923Y0189738D02*
X0096537Y0189738D01*
X0096537Y0188952D02*
X0109923Y0188952D01*
X0109923Y0188166D02*
X0095832Y0188166D01*
X0095615Y0187161D02*
X0096537Y0186239D01*
X0096537Y0179816D01*
X0095615Y0178894D01*
X0089192Y0178894D01*
X0088270Y0179816D01*
X0088270Y0180180D01*
X0087620Y0180180D01*
X0087620Y0179344D01*
X0086697Y0178421D01*
X0081062Y0178421D01*
X0080140Y0179344D01*
X0080140Y0185766D01*
X0081062Y0186689D01*
X0086697Y0186689D01*
X0087620Y0185766D01*
X0087620Y0184930D01*
X0088270Y0184930D01*
X0088270Y0186239D01*
X0089192Y0187161D01*
X0095615Y0187161D01*
X0096182Y0186594D02*
X0109923Y0186594D01*
X0109923Y0185808D02*
X0096537Y0185808D01*
X0096537Y0185022D02*
X0109923Y0185022D01*
X0109923Y0184236D02*
X0096537Y0184236D01*
X0096537Y0183450D02*
X0109923Y0183450D01*
X0110224Y0182664D02*
X0096537Y0182664D01*
X0096537Y0181879D02*
X0119096Y0181879D01*
X0119096Y0181093D02*
X0096537Y0181093D01*
X0096537Y0180307D02*
X0119096Y0180307D01*
X0119096Y0179521D02*
X0096242Y0179521D01*
X0099622Y0174805D02*
X0074355Y0174805D01*
X0074355Y0174019D02*
X0098836Y0174019D01*
X0098050Y0173234D02*
X0074355Y0173234D01*
X0074355Y0172448D02*
X0097264Y0172448D01*
X0096478Y0171662D02*
X0074355Y0171662D01*
X0074355Y0170876D02*
X0095855Y0170876D01*
X0093833Y0170090D02*
X0074355Y0170090D01*
X0074355Y0169304D02*
X0093112Y0169304D01*
X0093112Y0168518D02*
X0074355Y0168518D01*
X0074355Y0167732D02*
X0093112Y0167732D01*
X0093112Y0166946D02*
X0074355Y0166946D01*
X0074355Y0166160D02*
X0093112Y0166160D01*
X0093112Y0165374D02*
X0074355Y0165374D01*
X0074355Y0164588D02*
X0089888Y0164588D01*
X0088482Y0163803D02*
X0074355Y0163803D01*
X0069605Y0163803D02*
X0063144Y0163803D01*
X0062691Y0164588D02*
X0069605Y0164588D01*
X0069605Y0165374D02*
X0061905Y0165374D01*
X0060743Y0166160D02*
X0069605Y0166160D01*
X0069605Y0166946D02*
X0035002Y0166946D01*
X0035002Y0166160D02*
X0048217Y0166160D01*
X0047055Y0165374D02*
X0035002Y0165374D01*
X0035002Y0164588D02*
X0046269Y0164588D01*
X0045817Y0163803D02*
X0035002Y0163803D01*
X0035002Y0163017D02*
X0040333Y0163017D01*
X0039547Y0162231D02*
X0035002Y0162231D01*
X0035002Y0161445D02*
X0038761Y0161445D01*
X0037976Y0160659D02*
X0035002Y0160659D01*
X0035002Y0159873D02*
X0037190Y0159873D01*
X0037105Y0159087D02*
X0035002Y0159087D01*
X0035002Y0158301D02*
X0037105Y0158301D01*
X0037105Y0157515D02*
X0035002Y0157515D01*
X0035002Y0156729D02*
X0037105Y0156729D01*
X0037105Y0155943D02*
X0035002Y0155943D01*
X0035002Y0155158D02*
X0037105Y0155158D01*
X0037105Y0154372D02*
X0035002Y0154372D01*
X0035002Y0153586D02*
X0037105Y0153586D01*
X0037105Y0152800D02*
X0035002Y0152800D01*
X0035002Y0152014D02*
X0037105Y0152014D01*
X0037105Y0151228D02*
X0035002Y0151228D01*
X0035002Y0150442D02*
X0037105Y0150442D01*
X0037105Y0149656D02*
X0035002Y0149656D01*
X0035002Y0148870D02*
X0037105Y0148870D01*
X0037105Y0148084D02*
X0035002Y0148084D01*
X0035002Y0147298D02*
X0037105Y0147298D01*
X0037105Y0146513D02*
X0035002Y0146513D01*
X0035002Y0145727D02*
X0037105Y0145727D01*
X0037105Y0144941D02*
X0035002Y0144941D01*
X0035002Y0144155D02*
X0037105Y0144155D01*
X0037105Y0143369D02*
X0035002Y0143369D01*
X0035002Y0142583D02*
X0037105Y0142583D01*
X0037105Y0141797D02*
X0035002Y0141797D01*
X0035002Y0141011D02*
X0037105Y0141011D01*
X0037105Y0140225D02*
X0035002Y0140225D01*
X0035002Y0139439D02*
X0037105Y0139439D01*
X0037105Y0138653D02*
X0035002Y0138653D01*
X0035002Y0137867D02*
X0037105Y0137867D01*
X0037105Y0137082D02*
X0035002Y0137082D01*
X0035002Y0136296D02*
X0037105Y0136296D01*
X0037105Y0135510D02*
X0035002Y0135510D01*
X0035002Y0134724D02*
X0037105Y0134724D01*
X0037105Y0133938D02*
X0035002Y0133938D01*
X0035002Y0133152D02*
X0037105Y0133152D01*
X0037105Y0132366D02*
X0035002Y0132366D01*
X0035002Y0131580D02*
X0037105Y0131580D01*
X0037105Y0130794D02*
X0035002Y0130794D01*
X0035002Y0130008D02*
X0037105Y0130008D01*
X0037105Y0129222D02*
X0035002Y0129222D01*
X0035002Y0128437D02*
X0037105Y0128437D01*
X0037105Y0127651D02*
X0035002Y0127651D01*
X0035002Y0126865D02*
X0037105Y0126865D01*
X0037105Y0126079D02*
X0035002Y0126079D01*
X0035002Y0125293D02*
X0037105Y0125293D01*
X0037105Y0124507D02*
X0035002Y0124507D01*
X0035002Y0123721D02*
X0037105Y0123721D01*
X0037105Y0122935D02*
X0035002Y0122935D01*
X0035002Y0122149D02*
X0037105Y0122149D01*
X0037105Y0121363D02*
X0035002Y0121363D01*
X0035002Y0120577D02*
X0037105Y0120577D01*
X0037105Y0119791D02*
X0035002Y0119791D01*
X0035002Y0119006D02*
X0037105Y0119006D01*
X0037105Y0118220D02*
X0035002Y0118220D01*
X0035002Y0117434D02*
X0037105Y0117434D01*
X0037105Y0116648D02*
X0035002Y0116648D01*
X0035002Y0115862D02*
X0037105Y0115862D01*
X0037105Y0115076D02*
X0035002Y0115076D01*
X0035002Y0114290D02*
X0037105Y0114290D01*
X0037105Y0113504D02*
X0035002Y0113504D01*
X0035002Y0112718D02*
X0037105Y0112718D01*
X0037105Y0111932D02*
X0035002Y0111932D01*
X0035002Y0111146D02*
X0037105Y0111146D01*
X0037105Y0110361D02*
X0035002Y0110361D01*
X0035002Y0109575D02*
X0037105Y0109575D01*
X0037105Y0108789D02*
X0035002Y0108789D01*
X0035002Y0108003D02*
X0037105Y0108003D01*
X0037105Y0107217D02*
X0035002Y0107217D01*
X0035002Y0106431D02*
X0037105Y0106431D01*
X0037105Y0105645D02*
X0035002Y0105645D01*
X0035002Y0104859D02*
X0037105Y0104859D01*
X0037105Y0104073D02*
X0035002Y0104073D01*
X0035002Y0103287D02*
X0037105Y0103287D01*
X0037105Y0102501D02*
X0035002Y0102501D01*
X0035002Y0101715D02*
X0037105Y0101715D01*
X0037105Y0100930D02*
X0035002Y0100930D01*
X0035002Y0100144D02*
X0037105Y0100144D01*
X0037105Y0099358D02*
X0035002Y0099358D01*
X0035002Y0098572D02*
X0037105Y0098572D01*
X0037105Y0097786D02*
X0035002Y0097786D01*
X0035002Y0097000D02*
X0037105Y0097000D01*
X0037105Y0096214D02*
X0035002Y0096214D01*
X0035002Y0095428D02*
X0037105Y0095428D01*
X0037105Y0094642D02*
X0035002Y0094642D01*
X0035002Y0093856D02*
X0037105Y0093856D01*
X0037105Y0093070D02*
X0035002Y0093070D01*
X0035002Y0092285D02*
X0037105Y0092285D01*
X0037105Y0091499D02*
X0035002Y0091499D01*
X0035002Y0090713D02*
X0037105Y0090713D01*
X0037105Y0089927D02*
X0035002Y0089927D01*
X0035002Y0089141D02*
X0037105Y0089141D01*
X0037105Y0088355D02*
X0035002Y0088355D01*
X0035002Y0087569D02*
X0037105Y0087569D01*
X0037105Y0086783D02*
X0035002Y0086783D01*
X0035002Y0085997D02*
X0037105Y0085997D01*
X0037105Y0085211D02*
X0035002Y0085211D01*
X0035002Y0084425D02*
X0037105Y0084425D01*
X0037105Y0083639D02*
X0035002Y0083639D01*
X0035002Y0082854D02*
X0037105Y0082854D01*
X0037105Y0082068D02*
X0035002Y0082068D01*
X0035002Y0081282D02*
X0037105Y0081282D01*
X0037105Y0080496D02*
X0035002Y0080496D01*
X0035002Y0079710D02*
X0037105Y0079710D01*
X0037105Y0078924D02*
X0035002Y0078924D01*
X0035002Y0078138D02*
X0037105Y0078138D01*
X0037105Y0077352D02*
X0035002Y0077352D01*
X0035002Y0076566D02*
X0037105Y0076566D01*
X0037105Y0075780D02*
X0035002Y0075780D01*
X0035002Y0074994D02*
X0037105Y0074994D01*
X0037105Y0074209D02*
X0035002Y0074209D01*
X0035002Y0073423D02*
X0037105Y0073423D01*
X0037105Y0072637D02*
X0035002Y0072637D01*
X0035002Y0071851D02*
X0037105Y0071851D01*
X0037612Y0071065D02*
X0035002Y0071065D01*
X0035002Y0070279D02*
X0038398Y0070279D01*
X0039184Y0069493D02*
X0035002Y0069493D01*
X0035002Y0068707D02*
X0039970Y0068707D01*
X0040756Y0067921D02*
X0035002Y0067921D01*
X0035002Y0067135D02*
X0041542Y0067135D01*
X0042327Y0066349D02*
X0035002Y0066349D01*
X0035002Y0065563D02*
X0043113Y0065563D01*
X0043899Y0064778D02*
X0035002Y0064778D01*
X0035002Y0063992D02*
X0044685Y0063992D01*
X0045471Y0063206D02*
X0035002Y0063206D01*
X0035002Y0062420D02*
X0060007Y0062420D01*
X0060793Y0061634D02*
X0035002Y0061634D01*
X0035002Y0060848D02*
X0061579Y0060848D01*
X0062365Y0060062D02*
X0035002Y0060062D01*
X0035002Y0059276D02*
X0063151Y0059276D01*
X0063355Y0058490D02*
X0035002Y0058490D01*
X0035002Y0057704D02*
X0063355Y0057704D01*
X0063355Y0056918D02*
X0035002Y0056918D01*
X0035002Y0056133D02*
X0063355Y0056133D01*
X0063355Y0055347D02*
X0035002Y0055347D01*
X0035002Y0054561D02*
X0063355Y0054561D01*
X0063355Y0053775D02*
X0035002Y0053775D01*
X0035002Y0052989D02*
X0063355Y0052989D01*
X0063355Y0052203D02*
X0035002Y0052203D01*
X0035002Y0051417D02*
X0063355Y0051417D01*
X0063355Y0050631D02*
X0035002Y0050631D01*
X0035002Y0049845D02*
X0063355Y0049845D01*
X0063355Y0049059D02*
X0035002Y0049059D01*
X0035002Y0048273D02*
X0063355Y0048273D01*
X0063355Y0047487D02*
X0035002Y0047487D01*
X0035002Y0046702D02*
X0063355Y0046702D01*
X0063355Y0045916D02*
X0035002Y0045916D01*
X0035002Y0045130D02*
X0063355Y0045130D01*
X0063355Y0044344D02*
X0035002Y0044344D01*
X0035002Y0043558D02*
X0063355Y0043558D01*
X0063355Y0042772D02*
X0035002Y0042772D01*
X0035002Y0041986D02*
X0063355Y0041986D01*
X0063355Y0041200D02*
X0035002Y0041200D01*
X0035003Y0040414D02*
X0063355Y0040414D01*
X0064048Y0039628D02*
X0035065Y0039628D01*
X0035282Y0038842D02*
X0064834Y0038842D01*
X0065620Y0038057D02*
X0035538Y0038057D01*
X0035949Y0037271D02*
X0066406Y0037271D01*
X0067192Y0036485D02*
X0036520Y0036485D01*
X0037361Y0035699D02*
X0070090Y0035699D01*
X0070771Y0034913D02*
X0038577Y0034913D01*
X0048865Y0070279D02*
X0100199Y0070279D01*
X0100199Y0071065D02*
X0048079Y0071065D01*
X0047293Y0071851D02*
X0100199Y0071851D01*
X0100199Y0072637D02*
X0046507Y0072637D01*
X0045721Y0073423D02*
X0100199Y0073423D01*
X0100199Y0074209D02*
X0044935Y0074209D01*
X0044355Y0074994D02*
X0100199Y0074994D01*
X0100199Y0075780D02*
X0044355Y0075780D01*
X0044355Y0076566D02*
X0100199Y0076566D01*
X0100199Y0077352D02*
X0044355Y0077352D01*
X0044355Y0078138D02*
X0100199Y0078138D01*
X0100199Y0078924D02*
X0044355Y0078924D01*
X0044355Y0079710D02*
X0100199Y0079710D01*
X0100199Y0080496D02*
X0044355Y0080496D01*
X0044355Y0081282D02*
X0100199Y0081282D01*
X0100199Y0082068D02*
X0044355Y0082068D01*
X0044355Y0082854D02*
X0100199Y0082854D01*
X0100199Y0083639D02*
X0044355Y0083639D01*
X0044355Y0084425D02*
X0100199Y0084425D01*
X0100199Y0085211D02*
X0044355Y0085211D01*
X0044355Y0085997D02*
X0100199Y0085997D01*
X0100199Y0086783D02*
X0044355Y0086783D01*
X0044355Y0087569D02*
X0100199Y0087569D01*
X0100199Y0088355D02*
X0044355Y0088355D01*
X0044355Y0089141D02*
X0100199Y0089141D01*
X0100199Y0089927D02*
X0044355Y0089927D01*
X0044355Y0090713D02*
X0100199Y0090713D01*
X0100199Y0091499D02*
X0044355Y0091499D01*
X0044355Y0092285D02*
X0100199Y0092285D01*
X0100199Y0093070D02*
X0044355Y0093070D01*
X0044355Y0093856D02*
X0100199Y0093856D01*
X0100199Y0094642D02*
X0044355Y0094642D01*
X0044355Y0095428D02*
X0100199Y0095428D01*
X0100199Y0096214D02*
X0060174Y0096214D01*
X0061669Y0097000D02*
X0100199Y0097000D01*
X0100199Y0097786D02*
X0062455Y0097786D01*
X0048787Y0096214D02*
X0044355Y0096214D01*
X0044355Y0097000D02*
X0047291Y0097000D01*
X0046505Y0097786D02*
X0044355Y0097786D01*
X0044355Y0098572D02*
X0045914Y0098572D01*
X0045589Y0099358D02*
X0044355Y0099358D01*
X0044355Y0100144D02*
X0045263Y0100144D01*
X0045228Y0100930D02*
X0044355Y0100930D01*
X0044355Y0101715D02*
X0045228Y0101715D01*
X0045278Y0102501D02*
X0044355Y0102501D01*
X0044355Y0103287D02*
X0045603Y0103287D01*
X0045929Y0104073D02*
X0044355Y0104073D01*
X0044355Y0104859D02*
X0046540Y0104859D01*
X0047326Y0105645D02*
X0044355Y0105645D01*
X0044355Y0106431D02*
X0048871Y0106431D01*
X0047739Y0116648D02*
X0044355Y0116648D01*
X0044355Y0117434D02*
X0046857Y0117434D01*
X0046071Y0118220D02*
X0044355Y0118220D01*
X0045783Y0123721D02*
X0041855Y0123721D01*
X0041855Y0124507D02*
X0046188Y0124507D01*
X0046974Y0125293D02*
X0041855Y0125293D01*
X0041855Y0126079D02*
X0048020Y0126079D01*
X0049405Y0126865D02*
X0041855Y0126865D01*
X0041855Y0127651D02*
X0049405Y0127651D01*
X0049405Y0128437D02*
X0041855Y0128437D01*
X0041855Y0129222D02*
X0049405Y0129222D01*
X0049405Y0130008D02*
X0041855Y0130008D01*
X0041855Y0130794D02*
X0049405Y0130794D01*
X0049405Y0131580D02*
X0041855Y0131580D01*
X0041855Y0132366D02*
X0049405Y0132366D01*
X0049405Y0133152D02*
X0041855Y0133152D01*
X0041855Y0133938D02*
X0049405Y0133938D01*
X0049405Y0134724D02*
X0041855Y0134724D01*
X0041855Y0135510D02*
X0049405Y0135510D01*
X0048590Y0136296D02*
X0041855Y0136296D01*
X0041855Y0137082D02*
X0047209Y0137082D01*
X0046424Y0137867D02*
X0041855Y0137867D01*
X0041855Y0138653D02*
X0045881Y0138653D01*
X0045555Y0139439D02*
X0041855Y0139439D01*
X0041855Y0140225D02*
X0045230Y0140225D01*
X0045228Y0141011D02*
X0041855Y0141011D01*
X0041855Y0141797D02*
X0045228Y0141797D01*
X0045311Y0142583D02*
X0041855Y0142583D01*
X0041855Y0143369D02*
X0045637Y0143369D01*
X0045963Y0144155D02*
X0041855Y0144155D01*
X0041855Y0144941D02*
X0046621Y0144941D01*
X0047407Y0145727D02*
X0041855Y0145727D01*
X0041855Y0148084D02*
X0094096Y0148084D01*
X0094444Y0148870D02*
X0041855Y0148870D01*
X0041855Y0149656D02*
X0095855Y0149656D01*
X0093411Y0150442D02*
X0041855Y0150442D01*
X0041855Y0151228D02*
X0093112Y0151228D01*
X0093112Y0152014D02*
X0041855Y0152014D01*
X0041855Y0152800D02*
X0093112Y0152800D01*
X0093112Y0153586D02*
X0041855Y0153586D01*
X0041855Y0154372D02*
X0093112Y0154372D01*
X0093112Y0155158D02*
X0041855Y0155158D01*
X0041855Y0155943D02*
X0049440Y0155943D01*
X0047562Y0156729D02*
X0041855Y0156729D01*
X0041855Y0157515D02*
X0046776Y0157515D01*
X0046026Y0158301D02*
X0042335Y0158301D01*
X0035002Y0167732D02*
X0069605Y0167732D01*
X0069605Y0168518D02*
X0035002Y0168518D01*
X0035002Y0169304D02*
X0069605Y0169304D01*
X0069605Y0170090D02*
X0035002Y0170090D01*
X0035002Y0170876D02*
X0069605Y0170876D01*
X0069605Y0171662D02*
X0035002Y0171662D01*
X0035002Y0172448D02*
X0069605Y0172448D01*
X0069605Y0173234D02*
X0035002Y0173234D01*
X0035002Y0174019D02*
X0069605Y0174019D01*
X0069605Y0174805D02*
X0035002Y0174805D01*
X0035002Y0175591D02*
X0069605Y0175591D01*
X0069605Y0176377D02*
X0035002Y0176377D01*
X0035002Y0177163D02*
X0069605Y0177163D01*
X0069605Y0177949D02*
X0035002Y0177949D01*
X0035002Y0178735D02*
X0069605Y0178735D01*
X0069605Y0179521D02*
X0035002Y0179521D01*
X0035002Y0180307D02*
X0069605Y0180307D01*
X0069605Y0181093D02*
X0035002Y0181093D01*
X0035002Y0181879D02*
X0069605Y0181879D01*
X0069605Y0182664D02*
X0035002Y0182664D01*
X0035002Y0183450D02*
X0069605Y0183450D01*
X0069605Y0184236D02*
X0035002Y0184236D01*
X0035002Y0185022D02*
X0069605Y0185022D01*
X0069605Y0185808D02*
X0035002Y0185808D01*
X0035002Y0186594D02*
X0069605Y0186594D01*
X0069605Y0187380D02*
X0035002Y0187380D01*
X0035002Y0188166D02*
X0069605Y0188166D01*
X0069605Y0188952D02*
X0035002Y0188952D01*
X0035002Y0189738D02*
X0069605Y0189738D01*
X0069605Y0190524D02*
X0035002Y0190524D01*
X0035002Y0191310D02*
X0069605Y0191310D01*
X0069605Y0192095D02*
X0035002Y0192095D01*
X0035002Y0192881D02*
X0070198Y0192881D01*
X0070984Y0193667D02*
X0035002Y0193667D01*
X0035002Y0194453D02*
X0071770Y0194453D01*
X0073840Y0195239D02*
X0035002Y0195239D01*
X0035002Y0196025D02*
X0074099Y0196025D01*
X0074355Y0188166D02*
X0088975Y0188166D01*
X0088270Y0188952D02*
X0087228Y0188952D01*
X0087620Y0189738D02*
X0088270Y0189738D01*
X0088625Y0186594D02*
X0086792Y0186594D01*
X0087578Y0185808D02*
X0088270Y0185808D01*
X0088270Y0185022D02*
X0087620Y0185022D01*
X0087620Y0179521D02*
X0088565Y0179521D01*
X0087011Y0178735D02*
X0119096Y0178735D01*
X0119096Y0177949D02*
X0074355Y0177949D01*
X0074355Y0177163D02*
X0119096Y0177163D01*
X0119356Y0176377D02*
X0074355Y0176377D01*
X0074355Y0175591D02*
X0119096Y0175591D01*
X0119344Y0170090D02*
X0102627Y0170090D01*
X0103348Y0169304D02*
X0131873Y0169304D01*
X0131087Y0170090D02*
X0127116Y0170090D01*
X0124234Y0160659D02*
X0117620Y0160659D01*
X0116899Y0159873D02*
X0124234Y0159873D01*
X0124234Y0159087D02*
X0121799Y0159087D01*
X0122585Y0158301D02*
X0124932Y0158301D01*
X0122620Y0157515D02*
X0139224Y0157515D01*
X0139224Y0158301D02*
X0136528Y0158301D01*
X0137226Y0159087D02*
X0139605Y0159087D01*
X0139605Y0159873D02*
X0137226Y0159873D01*
X0132475Y0154372D02*
X0129365Y0154372D01*
X0129746Y0153586D02*
X0131714Y0153586D01*
X0131714Y0152800D02*
X0129746Y0152800D01*
X0129746Y0152014D02*
X0131714Y0152014D01*
X0131714Y0151228D02*
X0129746Y0151228D01*
X0129746Y0150442D02*
X0131714Y0150442D01*
X0131714Y0149656D02*
X0129746Y0149656D01*
X0129746Y0148870D02*
X0131714Y0148870D01*
X0131585Y0148084D02*
X0129746Y0148084D01*
X0129355Y0147298D02*
X0131259Y0147298D01*
X0131124Y0146513D02*
X0129355Y0146513D01*
X0129355Y0145727D02*
X0131124Y0145727D01*
X0131413Y0144941D02*
X0129355Y0144941D01*
X0129355Y0144155D02*
X0131885Y0144155D01*
X0132800Y0143369D02*
X0129355Y0143369D01*
X0129355Y0142583D02*
X0134844Y0142583D01*
X0135630Y0141797D02*
X0129355Y0141797D01*
X0124605Y0143539D02*
X0122756Y0141689D01*
X0122263Y0141689D01*
X0121340Y0140766D01*
X0121340Y0134344D01*
X0122263Y0133421D01*
X0127898Y0133421D01*
X0128230Y0133753D01*
X0128562Y0133421D01*
X0129005Y0133421D01*
X0129005Y0132172D01*
X0130551Y0130626D01*
X0129724Y0130626D01*
X0128801Y0129703D01*
X0128801Y0109930D01*
X0117659Y0109930D01*
X0117659Y0129703D01*
X0116737Y0130626D01*
X0115605Y0130626D01*
X0115605Y0131039D01*
X0114355Y0132289D01*
X0112964Y0133680D01*
X0110657Y0133680D01*
X0111321Y0134344D01*
X0111321Y0140766D01*
X0110398Y0141689D01*
X0109955Y0141689D01*
X0109955Y0142171D01*
X0110398Y0142171D01*
X0111321Y0143094D01*
X0111321Y0149516D01*
X0110398Y0150439D01*
X0109955Y0150439D01*
X0109955Y0150921D01*
X0115398Y0150921D01*
X0115730Y0151253D01*
X0116062Y0150921D01*
X0121697Y0150921D01*
X0122620Y0151844D01*
X0122620Y0152680D01*
X0124234Y0152680D01*
X0124234Y0147976D01*
X0124605Y0147604D01*
X0124605Y0143539D01*
X0124435Y0143369D02*
X0111321Y0143369D01*
X0111321Y0144155D02*
X0124605Y0144155D01*
X0124605Y0144941D02*
X0111321Y0144941D01*
X0111321Y0145727D02*
X0124605Y0145727D01*
X0124605Y0146513D02*
X0111321Y0146513D01*
X0111321Y0147298D02*
X0124605Y0147298D01*
X0124234Y0148084D02*
X0111321Y0148084D01*
X0111321Y0148870D02*
X0124234Y0148870D01*
X0124234Y0149656D02*
X0111181Y0149656D01*
X0109955Y0150442D02*
X0124234Y0150442D01*
X0124234Y0151228D02*
X0122004Y0151228D01*
X0122620Y0152014D02*
X0124234Y0152014D01*
X0123650Y0142583D02*
X0110810Y0142583D01*
X0109955Y0141797D02*
X0122864Y0141797D01*
X0121585Y0141011D02*
X0111076Y0141011D01*
X0111321Y0140225D02*
X0121340Y0140225D01*
X0121340Y0139439D02*
X0111321Y0139439D01*
X0111321Y0138653D02*
X0121340Y0138653D01*
X0121340Y0137867D02*
X0111321Y0137867D01*
X0111321Y0137082D02*
X0121340Y0137082D01*
X0121340Y0136296D02*
X0111321Y0136296D01*
X0111321Y0135510D02*
X0121340Y0135510D01*
X0121340Y0134724D02*
X0111321Y0134724D01*
X0110915Y0133938D02*
X0121746Y0133938D01*
X0117354Y0130008D02*
X0129106Y0130008D01*
X0128801Y0129222D02*
X0117659Y0129222D01*
X0117659Y0128437D02*
X0128801Y0128437D01*
X0128801Y0127651D02*
X0117659Y0127651D01*
X0117659Y0126865D02*
X0128801Y0126865D01*
X0128801Y0126079D02*
X0117659Y0126079D01*
X0117659Y0125293D02*
X0128801Y0125293D01*
X0128801Y0124507D02*
X0117659Y0124507D01*
X0117659Y0123721D02*
X0128801Y0123721D01*
X0128801Y0122935D02*
X0117659Y0122935D01*
X0117659Y0122149D02*
X0128801Y0122149D01*
X0128801Y0121363D02*
X0117659Y0121363D01*
X0117659Y0120577D02*
X0128801Y0120577D01*
X0128801Y0119791D02*
X0117659Y0119791D01*
X0117659Y0119006D02*
X0128801Y0119006D01*
X0128801Y0118220D02*
X0117659Y0118220D01*
X0117659Y0117434D02*
X0128801Y0117434D01*
X0128801Y0116648D02*
X0117659Y0116648D01*
X0117659Y0115862D02*
X0128801Y0115862D01*
X0128801Y0115076D02*
X0117659Y0115076D01*
X0117659Y0114290D02*
X0128801Y0114290D01*
X0128801Y0113504D02*
X0117659Y0113504D01*
X0117659Y0112718D02*
X0128801Y0112718D01*
X0128801Y0111932D02*
X0117659Y0111932D01*
X0117659Y0111146D02*
X0128801Y0111146D01*
X0128801Y0110361D02*
X0117659Y0110361D01*
X0115605Y0130794D02*
X0130383Y0130794D01*
X0129597Y0131580D02*
X0115064Y0131580D01*
X0114278Y0132366D02*
X0129005Y0132366D01*
X0129005Y0133152D02*
X0113492Y0133152D01*
X0115705Y0151228D02*
X0115755Y0151228D01*
X0115605Y0159087D02*
X0115960Y0159087D01*
X0110855Y0167732D02*
X0110605Y0167732D01*
X0117889Y0182664D02*
X0119488Y0182664D01*
X0120226Y0183450D02*
X0118191Y0183450D01*
X0118191Y0184236D02*
X0119441Y0184236D01*
X0118655Y0185022D02*
X0118191Y0185022D01*
X0109923Y0187380D02*
X0074355Y0187380D01*
X0074355Y0186594D02*
X0080967Y0186594D01*
X0080181Y0185808D02*
X0074355Y0185808D01*
X0074355Y0185022D02*
X0080140Y0185022D01*
X0080140Y0184236D02*
X0074355Y0184236D01*
X0074355Y0183450D02*
X0080140Y0183450D01*
X0080140Y0182664D02*
X0074355Y0182664D01*
X0074355Y0181879D02*
X0080140Y0181879D01*
X0080140Y0181093D02*
X0074355Y0181093D01*
X0074355Y0180307D02*
X0080140Y0180307D01*
X0080140Y0179521D02*
X0074355Y0179521D01*
X0074355Y0178735D02*
X0080748Y0178735D01*
X0091573Y0164588D02*
X0093112Y0164588D01*
X0093112Y0163803D02*
X0092979Y0163803D01*
X0093258Y0159087D02*
X0093854Y0159087D01*
X0093112Y0158301D02*
X0092247Y0158301D01*
X0093112Y0157515D02*
X0062185Y0157515D01*
X0062934Y0158301D02*
X0089213Y0158301D01*
X0093112Y0156729D02*
X0061399Y0156729D01*
X0059520Y0155943D02*
X0093112Y0155943D01*
X0096537Y0193667D02*
X0149569Y0193667D01*
X0149569Y0194453D02*
X0096537Y0194453D01*
X0096537Y0195239D02*
X0149569Y0195239D01*
X0149569Y0196025D02*
X0095806Y0196025D01*
X0089001Y0196025D02*
X0087361Y0196025D01*
X0087620Y0195239D02*
X0088270Y0195239D01*
X0134875Y0141011D02*
X0135335Y0141011D01*
X0141205Y0141797D02*
X0149569Y0141797D01*
X0149569Y0141011D02*
X0142326Y0141011D01*
X0142571Y0140225D02*
X0149569Y0140225D01*
X0149569Y0139439D02*
X0142571Y0139439D01*
X0142571Y0138653D02*
X0149569Y0138653D01*
X0149569Y0137867D02*
X0142571Y0137867D01*
X0142571Y0137082D02*
X0149569Y0137082D01*
X0149569Y0136296D02*
X0142571Y0136296D01*
X0142571Y0135510D02*
X0149569Y0135510D01*
X0149569Y0134724D02*
X0142571Y0134724D01*
X0142165Y0133938D02*
X0149569Y0133938D01*
X0149569Y0133152D02*
X0134742Y0133152D01*
X0134714Y0133938D02*
X0135496Y0133938D01*
X0135528Y0132366D02*
X0149569Y0132366D01*
X0149569Y0131580D02*
X0135605Y0131580D01*
X0135605Y0130794D02*
X0149569Y0130794D01*
X0149569Y0130008D02*
X0137354Y0130008D01*
X0137659Y0129222D02*
X0149569Y0129222D01*
X0149569Y0128437D02*
X0137659Y0128437D01*
X0137659Y0127651D02*
X0149569Y0127651D01*
X0149569Y0126865D02*
X0137659Y0126865D01*
X0137659Y0126079D02*
X0149569Y0126079D01*
X0149569Y0125293D02*
X0137659Y0125293D01*
X0137659Y0124507D02*
X0149569Y0124507D01*
X0149569Y0123721D02*
X0137659Y0123721D01*
X0137659Y0122935D02*
X0149569Y0122935D01*
X0149569Y0122149D02*
X0137659Y0122149D01*
X0137659Y0121363D02*
X0149569Y0121363D01*
X0149569Y0120577D02*
X0137659Y0120577D01*
X0137659Y0119791D02*
X0149569Y0119791D01*
X0149569Y0119006D02*
X0137659Y0119006D01*
X0137659Y0118220D02*
X0149569Y0118220D01*
X0149569Y0117434D02*
X0137659Y0117434D01*
X0137659Y0116648D02*
X0149569Y0116648D01*
X0149569Y0115862D02*
X0137659Y0115862D01*
X0137659Y0115076D02*
X0149569Y0115076D01*
X0149569Y0114290D02*
X0137659Y0114290D01*
X0137659Y0113504D02*
X0149569Y0113504D01*
X0149569Y0112718D02*
X0137659Y0112718D01*
X0137659Y0111932D02*
X0149569Y0111932D01*
X0149569Y0111146D02*
X0137659Y0111146D01*
X0137659Y0110361D02*
X0149569Y0110361D01*
X0149569Y0109575D02*
X0148319Y0109575D01*
X0149105Y0108789D02*
X0149569Y0108789D01*
X0149569Y0142583D02*
X0141205Y0142583D01*
X0143948Y0143369D02*
X0149569Y0143369D01*
X0149569Y0144155D02*
X0144734Y0144155D01*
X0144736Y0144941D02*
X0149569Y0144941D01*
X0149569Y0145727D02*
X0144736Y0145727D01*
X0144736Y0146513D02*
X0149569Y0146513D01*
X0149569Y0147298D02*
X0144736Y0147298D01*
X0144736Y0148084D02*
X0149569Y0148084D01*
X0149569Y0148870D02*
X0144477Y0148870D01*
X0139484Y0148870D02*
X0137226Y0148870D01*
X0137226Y0149656D02*
X0149569Y0149656D01*
X0149569Y0150442D02*
X0137226Y0150442D01*
X0137226Y0151228D02*
X0149569Y0151228D01*
X0149569Y0152014D02*
X0137226Y0152014D01*
X0149569Y0196811D02*
X0035002Y0196811D01*
X0035002Y0197597D02*
X0149569Y0197597D01*
X0149569Y0198383D02*
X0035002Y0198383D01*
X0035002Y0199169D02*
X0149569Y0199169D01*
X0149569Y0199955D02*
X0035002Y0199955D01*
X0035002Y0200740D02*
X0149569Y0200740D01*
X0149569Y0201526D02*
X0035002Y0201526D01*
X0035038Y0202312D02*
X0149532Y0202312D01*
X0149397Y0203098D02*
X0035173Y0203098D01*
X0035429Y0203884D02*
X0149142Y0203884D01*
X0148865Y0204670D02*
X0035706Y0204670D01*
X0036277Y0205456D02*
X0148294Y0205456D01*
X0147671Y0206242D02*
X0036900Y0206242D01*
X0037982Y0207028D02*
X0146589Y0207028D01*
X0144606Y0207814D02*
X0039965Y0207814D01*
X0063401Y0069493D02*
X0100199Y0069493D01*
X0100199Y0068707D02*
X0064187Y0068707D01*
X0064973Y0067921D02*
X0100199Y0067921D01*
X0100199Y0067135D02*
X0065758Y0067135D01*
X0066544Y0066349D02*
X0100199Y0066349D01*
X0097880Y0065563D02*
X0067330Y0065563D01*
X0068116Y0064778D02*
X0097094Y0064778D01*
X0096308Y0063992D02*
X0068902Y0063992D01*
X0069688Y0063206D02*
X0073022Y0063206D01*
X0072236Y0062420D02*
X0070474Y0062420D01*
X0070605Y0061634D02*
X0071456Y0061634D01*
X0071456Y0060848D02*
X0070605Y0060848D01*
X0070605Y0060062D02*
X0070636Y0060062D01*
X0070605Y0052203D02*
X0070981Y0052203D01*
X0070741Y0051417D02*
X0070605Y0051417D01*
X0068225Y0046702D02*
X0068105Y0046702D01*
X0068105Y0045916D02*
X0069011Y0045916D01*
X0068105Y0043558D02*
X0070876Y0043558D01*
X0070846Y0042772D02*
X0068105Y0042772D01*
X0068408Y0041986D02*
X0070090Y0041986D01*
X0070090Y0041200D02*
X0069194Y0041200D01*
X0076815Y0042772D02*
X0077145Y0042772D01*
X0077175Y0043558D02*
X0076785Y0043558D01*
X0076890Y0034913D02*
X0077071Y0034913D01*
X0083189Y0034913D02*
X0084521Y0034913D01*
X0084596Y0042772D02*
X0083114Y0042772D01*
X0083084Y0043558D02*
X0084626Y0043558D01*
X0090535Y0043558D02*
X0149569Y0043558D01*
X0149569Y0042772D02*
X0090565Y0042772D01*
X0091321Y0041986D02*
X0149569Y0041986D01*
X0149569Y0041200D02*
X0091321Y0041200D01*
X0091321Y0040414D02*
X0149568Y0040414D01*
X0149506Y0039628D02*
X0091321Y0039628D01*
X0091321Y0038842D02*
X0149288Y0038842D01*
X0149033Y0038057D02*
X0091321Y0038057D01*
X0091321Y0037271D02*
X0148622Y0037271D01*
X0148051Y0036485D02*
X0091321Y0036485D01*
X0091321Y0035699D02*
X0147210Y0035699D01*
X0145994Y0034913D02*
X0090640Y0034913D01*
X0091321Y0044344D02*
X0091321Y0050766D01*
X0090398Y0051689D01*
X0090430Y0052203D02*
X0091030Y0052203D01*
X0096729Y0052203D02*
X0149569Y0052203D01*
X0149569Y0052989D02*
X0097515Y0052989D01*
X0097620Y0053775D02*
X0149569Y0053775D01*
X0149569Y0054561D02*
X0101094Y0054561D01*
X0101880Y0055347D02*
X0149569Y0055347D01*
X0149569Y0056133D02*
X0102666Y0056133D01*
X0103452Y0056918D02*
X0149569Y0056918D01*
X0149569Y0057704D02*
X0147988Y0057704D01*
X0148774Y0058490D02*
X0149569Y0058490D01*
X0149560Y0059276D02*
X0149569Y0059276D01*
X0084731Y0052203D02*
X0082979Y0052203D01*
X0083219Y0051417D02*
X0084491Y0051417D01*
X0083945Y0052989D02*
X0083765Y0052989D01*
X0077280Y0052203D02*
X0076680Y0052203D01*
X0076920Y0051417D02*
X0077040Y0051417D01*
D27*
X0119480Y0137555D03*
X0119480Y0146305D03*
X0130730Y0156305D03*
X0134480Y0146305D03*
X0145730Y0143805D03*
X0145730Y0131305D03*
X0129480Y0167555D03*
X0090730Y0161305D03*
D28*
X0048978Y0193972D03*
X0135592Y0193972D03*
X0135592Y0048303D03*
X0048978Y0048303D03*
M02*
