G75*
%MOIN*%
%OFA0B0*%
%FSLAX25Y25*%
%IPPOS*%
%LPD*%
%AMOC8*
5,1,8,0,0,1.08239X$1,22.5*
%
%ADD10C,0.00394*%
%ADD11C,0.07677*%
%ADD12C,0.03562*%
%ADD13C,0.00400*%
%ADD14C,0.16992*%
%ADD15C,0.01600*%
D10*
X0033230Y0040429D02*
X0033230Y0201846D01*
X0033232Y0202036D01*
X0033239Y0202226D01*
X0033251Y0202416D01*
X0033267Y0202606D01*
X0033287Y0202795D01*
X0033313Y0202984D01*
X0033342Y0203172D01*
X0033377Y0203359D01*
X0033416Y0203545D01*
X0033459Y0203730D01*
X0033507Y0203915D01*
X0033559Y0204098D01*
X0033615Y0204279D01*
X0033676Y0204459D01*
X0033742Y0204638D01*
X0033811Y0204815D01*
X0033885Y0204991D01*
X0033963Y0205164D01*
X0034046Y0205336D01*
X0034132Y0205505D01*
X0034222Y0205673D01*
X0034317Y0205838D01*
X0034415Y0206001D01*
X0034518Y0206161D01*
X0034624Y0206319D01*
X0034734Y0206474D01*
X0034847Y0206627D01*
X0034965Y0206777D01*
X0035086Y0206923D01*
X0035210Y0207067D01*
X0035338Y0207208D01*
X0035469Y0207346D01*
X0035604Y0207481D01*
X0035742Y0207612D01*
X0035883Y0207740D01*
X0036027Y0207864D01*
X0036173Y0207985D01*
X0036323Y0208103D01*
X0036476Y0208216D01*
X0036631Y0208326D01*
X0036789Y0208432D01*
X0036949Y0208535D01*
X0037112Y0208633D01*
X0037277Y0208728D01*
X0037445Y0208818D01*
X0037614Y0208904D01*
X0037786Y0208987D01*
X0037959Y0209065D01*
X0038135Y0209139D01*
X0038312Y0209208D01*
X0038491Y0209274D01*
X0038671Y0209335D01*
X0038852Y0209391D01*
X0039035Y0209443D01*
X0039220Y0209491D01*
X0039405Y0209534D01*
X0039591Y0209573D01*
X0039778Y0209608D01*
X0039966Y0209637D01*
X0040155Y0209663D01*
X0040344Y0209683D01*
X0040534Y0209699D01*
X0040724Y0209711D01*
X0040914Y0209718D01*
X0041104Y0209720D01*
X0143466Y0209720D01*
X0143656Y0209718D01*
X0143846Y0209711D01*
X0144036Y0209699D01*
X0144226Y0209683D01*
X0144415Y0209663D01*
X0144604Y0209637D01*
X0144792Y0209608D01*
X0144979Y0209573D01*
X0145165Y0209534D01*
X0145350Y0209491D01*
X0145535Y0209443D01*
X0145718Y0209391D01*
X0145899Y0209335D01*
X0146079Y0209274D01*
X0146258Y0209208D01*
X0146435Y0209139D01*
X0146611Y0209065D01*
X0146784Y0208987D01*
X0146956Y0208904D01*
X0147125Y0208818D01*
X0147293Y0208728D01*
X0147458Y0208633D01*
X0147621Y0208535D01*
X0147781Y0208432D01*
X0147939Y0208326D01*
X0148094Y0208216D01*
X0148247Y0208103D01*
X0148397Y0207985D01*
X0148543Y0207864D01*
X0148687Y0207740D01*
X0148828Y0207612D01*
X0148966Y0207481D01*
X0149101Y0207346D01*
X0149232Y0207208D01*
X0149360Y0207067D01*
X0149484Y0206923D01*
X0149605Y0206777D01*
X0149723Y0206627D01*
X0149836Y0206474D01*
X0149946Y0206319D01*
X0150052Y0206161D01*
X0150155Y0206001D01*
X0150253Y0205838D01*
X0150348Y0205673D01*
X0150438Y0205505D01*
X0150524Y0205336D01*
X0150607Y0205164D01*
X0150685Y0204991D01*
X0150759Y0204815D01*
X0150828Y0204638D01*
X0150894Y0204459D01*
X0150955Y0204279D01*
X0151011Y0204098D01*
X0151063Y0203915D01*
X0151111Y0203730D01*
X0151154Y0203545D01*
X0151193Y0203359D01*
X0151228Y0203172D01*
X0151257Y0202984D01*
X0151283Y0202795D01*
X0151303Y0202606D01*
X0151319Y0202416D01*
X0151331Y0202226D01*
X0151338Y0202036D01*
X0151340Y0201846D01*
X0151340Y0040429D01*
X0151338Y0040239D01*
X0151331Y0040049D01*
X0151319Y0039859D01*
X0151303Y0039669D01*
X0151283Y0039480D01*
X0151257Y0039291D01*
X0151228Y0039103D01*
X0151193Y0038916D01*
X0151154Y0038730D01*
X0151111Y0038545D01*
X0151063Y0038360D01*
X0151011Y0038177D01*
X0150955Y0037996D01*
X0150894Y0037816D01*
X0150828Y0037637D01*
X0150759Y0037460D01*
X0150685Y0037284D01*
X0150607Y0037111D01*
X0150524Y0036939D01*
X0150438Y0036770D01*
X0150348Y0036602D01*
X0150253Y0036437D01*
X0150155Y0036274D01*
X0150052Y0036114D01*
X0149946Y0035956D01*
X0149836Y0035801D01*
X0149723Y0035648D01*
X0149605Y0035498D01*
X0149484Y0035352D01*
X0149360Y0035208D01*
X0149232Y0035067D01*
X0149101Y0034929D01*
X0148966Y0034794D01*
X0148828Y0034663D01*
X0148687Y0034535D01*
X0148543Y0034411D01*
X0148397Y0034290D01*
X0148247Y0034172D01*
X0148094Y0034059D01*
X0147939Y0033949D01*
X0147781Y0033843D01*
X0147621Y0033740D01*
X0147458Y0033642D01*
X0147293Y0033547D01*
X0147125Y0033457D01*
X0146956Y0033371D01*
X0146784Y0033288D01*
X0146611Y0033210D01*
X0146435Y0033136D01*
X0146258Y0033067D01*
X0146079Y0033001D01*
X0145899Y0032940D01*
X0145718Y0032884D01*
X0145535Y0032832D01*
X0145350Y0032784D01*
X0145165Y0032741D01*
X0144979Y0032702D01*
X0144792Y0032667D01*
X0144604Y0032638D01*
X0144415Y0032612D01*
X0144226Y0032592D01*
X0144036Y0032576D01*
X0143846Y0032564D01*
X0143656Y0032557D01*
X0143466Y0032555D01*
X0041104Y0032555D01*
X0040914Y0032557D01*
X0040724Y0032564D01*
X0040534Y0032576D01*
X0040344Y0032592D01*
X0040155Y0032612D01*
X0039966Y0032638D01*
X0039778Y0032667D01*
X0039591Y0032702D01*
X0039405Y0032741D01*
X0039220Y0032784D01*
X0039035Y0032832D01*
X0038852Y0032884D01*
X0038671Y0032940D01*
X0038491Y0033001D01*
X0038312Y0033067D01*
X0038135Y0033136D01*
X0037959Y0033210D01*
X0037786Y0033288D01*
X0037614Y0033371D01*
X0037445Y0033457D01*
X0037277Y0033547D01*
X0037112Y0033642D01*
X0036949Y0033740D01*
X0036789Y0033843D01*
X0036631Y0033949D01*
X0036476Y0034059D01*
X0036323Y0034172D01*
X0036173Y0034290D01*
X0036027Y0034411D01*
X0035883Y0034535D01*
X0035742Y0034663D01*
X0035604Y0034794D01*
X0035469Y0034929D01*
X0035338Y0035067D01*
X0035210Y0035208D01*
X0035086Y0035352D01*
X0034965Y0035498D01*
X0034847Y0035648D01*
X0034734Y0035801D01*
X0034624Y0035956D01*
X0034518Y0036114D01*
X0034415Y0036274D01*
X0034317Y0036437D01*
X0034222Y0036602D01*
X0034132Y0036770D01*
X0034046Y0036939D01*
X0033963Y0037111D01*
X0033885Y0037284D01*
X0033811Y0037460D01*
X0033742Y0037637D01*
X0033676Y0037816D01*
X0033615Y0037996D01*
X0033559Y0038177D01*
X0033507Y0038360D01*
X0033459Y0038545D01*
X0033416Y0038730D01*
X0033377Y0038916D01*
X0033342Y0039103D01*
X0033313Y0039291D01*
X0033287Y0039480D01*
X0033267Y0039669D01*
X0033251Y0039859D01*
X0033239Y0040049D01*
X0033232Y0040239D01*
X0033230Y0040429D01*
D11*
X0050642Y0081305D02*
X0058319Y0081305D01*
X0058319Y0101305D02*
X0050642Y0101305D01*
X0050642Y0121305D02*
X0058319Y0121305D01*
X0058319Y0141305D02*
X0050642Y0141305D01*
X0050642Y0161305D02*
X0058319Y0161305D01*
D12*
X0090730Y0161305D03*
X0119480Y0146305D03*
X0119480Y0137555D03*
X0130730Y0156305D03*
X0134480Y0146305D03*
X0145730Y0143805D03*
X0145730Y0131305D03*
X0129480Y0167555D03*
D13*
X0034904Y0039447D02*
X0035511Y0037579D01*
X0036666Y0035991D01*
X0038254Y0034836D01*
X0040122Y0034229D01*
X0041104Y0034152D01*
X0143466Y0034152D01*
X0144448Y0034229D01*
X0146316Y0034836D01*
X0147905Y0035991D01*
X0149059Y0037579D01*
X0149666Y0039447D01*
X0149744Y0040429D01*
X0149744Y0201846D01*
X0149666Y0202828D01*
X0149059Y0204696D01*
X0147905Y0206285D01*
X0146316Y0207439D01*
X0144448Y0208046D01*
X0143466Y0208124D01*
X0041104Y0208124D01*
X0040122Y0208046D01*
X0038254Y0207439D01*
X0036666Y0206285D01*
X0035511Y0204696D01*
X0034904Y0202828D01*
X0034827Y0201846D01*
X0034827Y0040429D01*
X0034904Y0039447D01*
X0034942Y0039330D02*
X0149628Y0039330D01*
X0149688Y0039728D02*
X0034882Y0039728D01*
X0034851Y0040127D02*
X0149720Y0040127D01*
X0149744Y0040525D02*
X0034827Y0040525D01*
X0034827Y0040924D02*
X0149744Y0040924D01*
X0149744Y0041322D02*
X0034827Y0041322D01*
X0034827Y0041721D02*
X0149744Y0041721D01*
X0149744Y0042119D02*
X0034827Y0042119D01*
X0034827Y0042518D02*
X0149744Y0042518D01*
X0149744Y0042916D02*
X0034827Y0042916D01*
X0034827Y0043315D02*
X0149744Y0043315D01*
X0149744Y0043713D02*
X0034827Y0043713D01*
X0034827Y0044112D02*
X0149744Y0044112D01*
X0149744Y0044510D02*
X0034827Y0044510D01*
X0034827Y0044909D02*
X0149744Y0044909D01*
X0149744Y0045307D02*
X0034827Y0045307D01*
X0034827Y0045706D02*
X0149744Y0045706D01*
X0149744Y0046105D02*
X0034827Y0046105D01*
X0034827Y0046503D02*
X0149744Y0046503D01*
X0149744Y0046902D02*
X0034827Y0046902D01*
X0034827Y0047300D02*
X0149744Y0047300D01*
X0149744Y0047699D02*
X0034827Y0047699D01*
X0034827Y0048097D02*
X0149744Y0048097D01*
X0149744Y0048496D02*
X0034827Y0048496D01*
X0034827Y0048894D02*
X0149744Y0048894D01*
X0149744Y0049293D02*
X0034827Y0049293D01*
X0034827Y0049691D02*
X0149744Y0049691D01*
X0149744Y0050090D02*
X0034827Y0050090D01*
X0034827Y0050488D02*
X0149744Y0050488D01*
X0149744Y0050887D02*
X0034827Y0050887D01*
X0034827Y0051285D02*
X0149744Y0051285D01*
X0149744Y0051684D02*
X0034827Y0051684D01*
X0034827Y0052082D02*
X0149744Y0052082D01*
X0149744Y0052481D02*
X0034827Y0052481D01*
X0034827Y0052879D02*
X0149744Y0052879D01*
X0149744Y0053278D02*
X0034827Y0053278D01*
X0034827Y0053676D02*
X0149744Y0053676D01*
X0149744Y0054075D02*
X0034827Y0054075D01*
X0034827Y0054473D02*
X0149744Y0054473D01*
X0149744Y0054872D02*
X0034827Y0054872D01*
X0034827Y0055270D02*
X0149744Y0055270D01*
X0149744Y0055669D02*
X0034827Y0055669D01*
X0034827Y0056067D02*
X0149744Y0056067D01*
X0149744Y0056466D02*
X0034827Y0056466D01*
X0034827Y0056864D02*
X0149744Y0056864D01*
X0149744Y0057263D02*
X0034827Y0057263D01*
X0034827Y0057661D02*
X0149744Y0057661D01*
X0149744Y0058060D02*
X0034827Y0058060D01*
X0034827Y0058458D02*
X0149744Y0058458D01*
X0149744Y0058857D02*
X0034827Y0058857D01*
X0034827Y0059255D02*
X0149744Y0059255D01*
X0149744Y0059654D02*
X0034827Y0059654D01*
X0034827Y0060052D02*
X0149744Y0060052D01*
X0149744Y0060451D02*
X0034827Y0060451D01*
X0034827Y0060849D02*
X0149744Y0060849D01*
X0149744Y0061248D02*
X0034827Y0061248D01*
X0034827Y0061646D02*
X0149744Y0061646D01*
X0149744Y0062045D02*
X0034827Y0062045D01*
X0034827Y0062443D02*
X0149744Y0062443D01*
X0149744Y0062842D02*
X0034827Y0062842D01*
X0034827Y0063241D02*
X0149744Y0063241D01*
X0149744Y0063639D02*
X0034827Y0063639D01*
X0034827Y0064038D02*
X0149744Y0064038D01*
X0149744Y0064436D02*
X0034827Y0064436D01*
X0034827Y0064835D02*
X0149744Y0064835D01*
X0149744Y0065233D02*
X0034827Y0065233D01*
X0034827Y0065632D02*
X0149744Y0065632D01*
X0149744Y0066030D02*
X0034827Y0066030D01*
X0034827Y0066429D02*
X0149744Y0066429D01*
X0149744Y0066827D02*
X0034827Y0066827D01*
X0034827Y0067226D02*
X0149744Y0067226D01*
X0149744Y0067624D02*
X0034827Y0067624D01*
X0034827Y0068023D02*
X0149744Y0068023D01*
X0149744Y0068421D02*
X0034827Y0068421D01*
X0034827Y0068820D02*
X0149744Y0068820D01*
X0149744Y0069218D02*
X0034827Y0069218D01*
X0034827Y0069617D02*
X0149744Y0069617D01*
X0149744Y0070015D02*
X0034827Y0070015D01*
X0034827Y0070414D02*
X0149744Y0070414D01*
X0149744Y0070812D02*
X0034827Y0070812D01*
X0034827Y0071211D02*
X0149744Y0071211D01*
X0149744Y0071609D02*
X0034827Y0071609D01*
X0034827Y0072008D02*
X0149744Y0072008D01*
X0149744Y0072406D02*
X0034827Y0072406D01*
X0034827Y0072805D02*
X0149744Y0072805D01*
X0149744Y0073203D02*
X0034827Y0073203D01*
X0034827Y0073602D02*
X0149744Y0073602D01*
X0149744Y0074000D02*
X0034827Y0074000D01*
X0034827Y0074399D02*
X0149744Y0074399D01*
X0149744Y0074797D02*
X0034827Y0074797D01*
X0034827Y0075196D02*
X0149744Y0075196D01*
X0149744Y0075594D02*
X0034827Y0075594D01*
X0034827Y0075993D02*
X0149744Y0075993D01*
X0149744Y0076391D02*
X0034827Y0076391D01*
X0034827Y0076790D02*
X0149744Y0076790D01*
X0149744Y0077188D02*
X0034827Y0077188D01*
X0034827Y0077587D02*
X0149744Y0077587D01*
X0149744Y0077985D02*
X0034827Y0077985D01*
X0034827Y0078384D02*
X0149744Y0078384D01*
X0149744Y0078782D02*
X0034827Y0078782D01*
X0034827Y0079181D02*
X0149744Y0079181D01*
X0149744Y0079579D02*
X0034827Y0079579D01*
X0034827Y0079978D02*
X0149744Y0079978D01*
X0149744Y0080376D02*
X0034827Y0080376D01*
X0034827Y0080775D02*
X0149744Y0080775D01*
X0149744Y0081174D02*
X0034827Y0081174D01*
X0034827Y0081572D02*
X0149744Y0081572D01*
X0149744Y0081971D02*
X0034827Y0081971D01*
X0034827Y0082369D02*
X0149744Y0082369D01*
X0149744Y0082768D02*
X0034827Y0082768D01*
X0034827Y0083166D02*
X0149744Y0083166D01*
X0149744Y0083565D02*
X0034827Y0083565D01*
X0034827Y0083963D02*
X0149744Y0083963D01*
X0149744Y0084362D02*
X0034827Y0084362D01*
X0034827Y0084760D02*
X0149744Y0084760D01*
X0149744Y0085159D02*
X0034827Y0085159D01*
X0034827Y0085557D02*
X0149744Y0085557D01*
X0149744Y0085956D02*
X0034827Y0085956D01*
X0034827Y0086354D02*
X0149744Y0086354D01*
X0149744Y0086753D02*
X0034827Y0086753D01*
X0034827Y0087151D02*
X0149744Y0087151D01*
X0149744Y0087550D02*
X0034827Y0087550D01*
X0034827Y0087948D02*
X0149744Y0087948D01*
X0149744Y0088347D02*
X0034827Y0088347D01*
X0034827Y0088745D02*
X0149744Y0088745D01*
X0149744Y0089144D02*
X0034827Y0089144D01*
X0034827Y0089542D02*
X0149744Y0089542D01*
X0149744Y0089941D02*
X0034827Y0089941D01*
X0034827Y0090339D02*
X0149744Y0090339D01*
X0149744Y0090738D02*
X0034827Y0090738D01*
X0034827Y0091136D02*
X0149744Y0091136D01*
X0149744Y0091535D02*
X0034827Y0091535D01*
X0034827Y0091933D02*
X0149744Y0091933D01*
X0149744Y0092332D02*
X0034827Y0092332D01*
X0034827Y0092730D02*
X0149744Y0092730D01*
X0149744Y0093129D02*
X0034827Y0093129D01*
X0034827Y0093527D02*
X0149744Y0093527D01*
X0149744Y0093926D02*
X0034827Y0093926D01*
X0034827Y0094324D02*
X0149744Y0094324D01*
X0149744Y0094723D02*
X0034827Y0094723D01*
X0034827Y0095121D02*
X0149744Y0095121D01*
X0149744Y0095520D02*
X0034827Y0095520D01*
X0034827Y0095918D02*
X0149744Y0095918D01*
X0149744Y0096317D02*
X0059965Y0096317D01*
X0059361Y0096067D02*
X0061286Y0096864D01*
X0062760Y0098338D01*
X0063557Y0100263D01*
X0063557Y0102347D01*
X0062760Y0104273D01*
X0061286Y0105746D01*
X0059361Y0106544D01*
X0049600Y0106544D01*
X0047674Y0105746D01*
X0046201Y0104273D01*
X0045403Y0102347D01*
X0045403Y0100263D01*
X0046201Y0098338D01*
X0047674Y0096864D01*
X0049600Y0096067D01*
X0059361Y0096067D01*
X0060927Y0096715D02*
X0149744Y0096715D01*
X0149744Y0097114D02*
X0061536Y0097114D01*
X0061935Y0097512D02*
X0149744Y0097512D01*
X0149744Y0097911D02*
X0062333Y0097911D01*
X0062732Y0098309D02*
X0149744Y0098309D01*
X0149744Y0098708D02*
X0062913Y0098708D01*
X0063078Y0099107D02*
X0149744Y0099107D01*
X0149744Y0099505D02*
X0063243Y0099505D01*
X0063408Y0099904D02*
X0149744Y0099904D01*
X0149744Y0100302D02*
X0063557Y0100302D01*
X0063557Y0100701D02*
X0149744Y0100701D01*
X0149744Y0101099D02*
X0063557Y0101099D01*
X0063557Y0101498D02*
X0149744Y0101498D01*
X0149744Y0101896D02*
X0063557Y0101896D01*
X0063557Y0102295D02*
X0149744Y0102295D01*
X0149744Y0102693D02*
X0063414Y0102693D01*
X0063249Y0103092D02*
X0149744Y0103092D01*
X0149744Y0103490D02*
X0063084Y0103490D01*
X0062919Y0103889D02*
X0149744Y0103889D01*
X0149744Y0104287D02*
X0062745Y0104287D01*
X0062347Y0104686D02*
X0149744Y0104686D01*
X0149744Y0105084D02*
X0061948Y0105084D01*
X0061550Y0105483D02*
X0149744Y0105483D01*
X0149744Y0105881D02*
X0060960Y0105881D01*
X0059998Y0106280D02*
X0149744Y0106280D01*
X0149744Y0106678D02*
X0034827Y0106678D01*
X0034827Y0106280D02*
X0048962Y0106280D01*
X0048000Y0105881D02*
X0034827Y0105881D01*
X0034827Y0105483D02*
X0047411Y0105483D01*
X0047012Y0105084D02*
X0034827Y0105084D01*
X0034827Y0104686D02*
X0046614Y0104686D01*
X0046215Y0104287D02*
X0034827Y0104287D01*
X0034827Y0103889D02*
X0046042Y0103889D01*
X0045876Y0103490D02*
X0034827Y0103490D01*
X0034827Y0103092D02*
X0045711Y0103092D01*
X0045546Y0102693D02*
X0034827Y0102693D01*
X0034827Y0102295D02*
X0045403Y0102295D01*
X0045403Y0101896D02*
X0034827Y0101896D01*
X0034827Y0101498D02*
X0045403Y0101498D01*
X0045403Y0101099D02*
X0034827Y0101099D01*
X0034827Y0100701D02*
X0045403Y0100701D01*
X0045403Y0100302D02*
X0034827Y0100302D01*
X0034827Y0099904D02*
X0045552Y0099904D01*
X0045717Y0099505D02*
X0034827Y0099505D01*
X0034827Y0099107D02*
X0045882Y0099107D01*
X0046047Y0098708D02*
X0034827Y0098708D01*
X0034827Y0098309D02*
X0046229Y0098309D01*
X0046627Y0097911D02*
X0034827Y0097911D01*
X0034827Y0097512D02*
X0047026Y0097512D01*
X0047424Y0097114D02*
X0034827Y0097114D01*
X0034827Y0096715D02*
X0048033Y0096715D01*
X0048995Y0096317D02*
X0034827Y0096317D01*
X0034827Y0107077D02*
X0149744Y0107077D01*
X0149744Y0107475D02*
X0034827Y0107475D01*
X0034827Y0107874D02*
X0149744Y0107874D01*
X0149744Y0108272D02*
X0034827Y0108272D01*
X0034827Y0108671D02*
X0149744Y0108671D01*
X0149744Y0109069D02*
X0034827Y0109069D01*
X0034827Y0109468D02*
X0149744Y0109468D01*
X0149744Y0109866D02*
X0034827Y0109866D01*
X0034827Y0110265D02*
X0149744Y0110265D01*
X0149744Y0110663D02*
X0034827Y0110663D01*
X0034827Y0111062D02*
X0149744Y0111062D01*
X0149744Y0111460D02*
X0034827Y0111460D01*
X0034827Y0111859D02*
X0149744Y0111859D01*
X0149744Y0112257D02*
X0034827Y0112257D01*
X0034827Y0112656D02*
X0149744Y0112656D01*
X0149744Y0113054D02*
X0034827Y0113054D01*
X0034827Y0113453D02*
X0149744Y0113453D01*
X0149744Y0113851D02*
X0034827Y0113851D01*
X0034827Y0114250D02*
X0149744Y0114250D01*
X0149744Y0114648D02*
X0034827Y0114648D01*
X0034827Y0115047D02*
X0149744Y0115047D01*
X0149744Y0115445D02*
X0034827Y0115445D01*
X0034827Y0115844D02*
X0149744Y0115844D01*
X0149744Y0116243D02*
X0059786Y0116243D01*
X0059361Y0116067D02*
X0061286Y0116864D01*
X0062760Y0118338D01*
X0063557Y0120263D01*
X0063557Y0122347D01*
X0062760Y0124273D01*
X0061286Y0125746D01*
X0059361Y0126544D01*
X0049600Y0126544D01*
X0047674Y0125746D01*
X0046201Y0124273D01*
X0045403Y0122347D01*
X0045403Y0120263D01*
X0046201Y0118338D01*
X0047674Y0116864D01*
X0049600Y0116067D01*
X0059361Y0116067D01*
X0060748Y0116641D02*
X0149744Y0116641D01*
X0149744Y0117040D02*
X0061462Y0117040D01*
X0061860Y0117438D02*
X0149744Y0117438D01*
X0149744Y0117837D02*
X0062259Y0117837D01*
X0062657Y0118235D02*
X0149744Y0118235D01*
X0149744Y0118634D02*
X0062882Y0118634D01*
X0063047Y0119032D02*
X0149744Y0119032D01*
X0149744Y0119431D02*
X0063212Y0119431D01*
X0063378Y0119829D02*
X0149744Y0119829D01*
X0149744Y0120228D02*
X0063543Y0120228D01*
X0063557Y0120626D02*
X0149744Y0120626D01*
X0149744Y0121025D02*
X0063557Y0121025D01*
X0063557Y0121423D02*
X0149744Y0121423D01*
X0149744Y0121822D02*
X0063557Y0121822D01*
X0063557Y0122220D02*
X0149744Y0122220D01*
X0149744Y0122619D02*
X0063445Y0122619D01*
X0063280Y0123017D02*
X0149744Y0123017D01*
X0149744Y0123416D02*
X0063115Y0123416D01*
X0062950Y0123814D02*
X0149744Y0123814D01*
X0149744Y0124213D02*
X0062785Y0124213D01*
X0062421Y0124611D02*
X0149744Y0124611D01*
X0149744Y0125010D02*
X0062023Y0125010D01*
X0061624Y0125408D02*
X0149744Y0125408D01*
X0149744Y0125807D02*
X0061140Y0125807D01*
X0060178Y0126205D02*
X0149744Y0126205D01*
X0149744Y0126604D02*
X0034827Y0126604D01*
X0034827Y0127002D02*
X0149744Y0127002D01*
X0149744Y0127401D02*
X0034827Y0127401D01*
X0034827Y0127799D02*
X0149744Y0127799D01*
X0149744Y0128198D02*
X0034827Y0128198D01*
X0034827Y0128596D02*
X0149744Y0128596D01*
X0149744Y0128995D02*
X0034827Y0128995D01*
X0034827Y0129393D02*
X0149744Y0129393D01*
X0149744Y0129792D02*
X0034827Y0129792D01*
X0034827Y0130190D02*
X0149744Y0130190D01*
X0149744Y0130589D02*
X0034827Y0130589D01*
X0034827Y0130987D02*
X0149744Y0130987D01*
X0149744Y0131386D02*
X0034827Y0131386D01*
X0034827Y0131784D02*
X0149744Y0131784D01*
X0149744Y0132183D02*
X0034827Y0132183D01*
X0034827Y0132581D02*
X0149744Y0132581D01*
X0149744Y0132980D02*
X0034827Y0132980D01*
X0034827Y0133378D02*
X0149744Y0133378D01*
X0149744Y0133777D02*
X0034827Y0133777D01*
X0034827Y0134176D02*
X0149744Y0134176D01*
X0149744Y0134574D02*
X0034827Y0134574D01*
X0034827Y0134973D02*
X0149744Y0134973D01*
X0149744Y0135371D02*
X0034827Y0135371D01*
X0034827Y0135770D02*
X0149744Y0135770D01*
X0149744Y0136168D02*
X0059606Y0136168D01*
X0059361Y0136067D02*
X0061286Y0136864D01*
X0062760Y0138338D01*
X0063557Y0140263D01*
X0063557Y0142347D01*
X0062760Y0144273D01*
X0061286Y0145746D01*
X0059361Y0146544D01*
X0049600Y0146544D01*
X0047674Y0145746D01*
X0046201Y0144273D01*
X0045403Y0142347D01*
X0045403Y0140263D01*
X0046201Y0138338D01*
X0047674Y0136864D01*
X0049600Y0136067D01*
X0059361Y0136067D01*
X0060568Y0136567D02*
X0149744Y0136567D01*
X0149744Y0136965D02*
X0061387Y0136965D01*
X0061786Y0137364D02*
X0149744Y0137364D01*
X0149744Y0137762D02*
X0062184Y0137762D01*
X0062583Y0138161D02*
X0149744Y0138161D01*
X0149744Y0138559D02*
X0062852Y0138559D01*
X0063017Y0138958D02*
X0149744Y0138958D01*
X0149744Y0139356D02*
X0063182Y0139356D01*
X0063347Y0139755D02*
X0149744Y0139755D01*
X0149744Y0140153D02*
X0063512Y0140153D01*
X0063557Y0140552D02*
X0149744Y0140552D01*
X0149744Y0140950D02*
X0063557Y0140950D01*
X0063557Y0141349D02*
X0149744Y0141349D01*
X0149744Y0141747D02*
X0063557Y0141747D01*
X0063557Y0142146D02*
X0149744Y0142146D01*
X0149744Y0142544D02*
X0063476Y0142544D01*
X0063311Y0142943D02*
X0149744Y0142943D01*
X0149744Y0143341D02*
X0135637Y0143341D01*
X0135113Y0143124D02*
X0133847Y0143124D01*
X0132678Y0143608D01*
X0131783Y0144503D01*
X0131299Y0145672D01*
X0131299Y0146375D01*
X0118569Y0159105D01*
X0093029Y0159105D01*
X0092532Y0158608D01*
X0091363Y0158124D01*
X0090097Y0158124D01*
X0088928Y0158608D01*
X0088033Y0159503D01*
X0087549Y0160672D01*
X0087549Y0161938D01*
X0088033Y0163107D01*
X0088928Y0164002D01*
X0090097Y0164486D01*
X0091363Y0164486D01*
X0092532Y0164002D01*
X0093029Y0163505D01*
X0120391Y0163505D01*
X0121680Y0162216D01*
X0134410Y0149486D01*
X0135113Y0149486D01*
X0136282Y0149002D01*
X0137177Y0148107D01*
X0137661Y0146938D01*
X0137661Y0145672D01*
X0137177Y0144503D01*
X0136282Y0143608D01*
X0135113Y0143124D01*
X0136414Y0143740D02*
X0149744Y0143740D01*
X0149744Y0144138D02*
X0136812Y0144138D01*
X0137191Y0144537D02*
X0149744Y0144537D01*
X0149744Y0144935D02*
X0137356Y0144935D01*
X0137521Y0145334D02*
X0149744Y0145334D01*
X0149744Y0145732D02*
X0137661Y0145732D01*
X0137661Y0146131D02*
X0149744Y0146131D01*
X0149744Y0146529D02*
X0137661Y0146529D01*
X0137661Y0146928D02*
X0149744Y0146928D01*
X0149744Y0147326D02*
X0137500Y0147326D01*
X0137335Y0147725D02*
X0149744Y0147725D01*
X0149744Y0148123D02*
X0137161Y0148123D01*
X0136762Y0148522D02*
X0149744Y0148522D01*
X0149744Y0148920D02*
X0136364Y0148920D01*
X0135517Y0149319D02*
X0149744Y0149319D01*
X0149744Y0149717D02*
X0134179Y0149717D01*
X0133781Y0150116D02*
X0149744Y0150116D01*
X0149744Y0150514D02*
X0133382Y0150514D01*
X0132984Y0150913D02*
X0149744Y0150913D01*
X0149744Y0151312D02*
X0132585Y0151312D01*
X0132187Y0151710D02*
X0149744Y0151710D01*
X0149744Y0152109D02*
X0131788Y0152109D01*
X0131390Y0152507D02*
X0149744Y0152507D01*
X0149744Y0152906D02*
X0130991Y0152906D01*
X0130593Y0153304D02*
X0149744Y0153304D01*
X0149744Y0153703D02*
X0130194Y0153703D01*
X0129795Y0154101D02*
X0149744Y0154101D01*
X0149744Y0154500D02*
X0129397Y0154500D01*
X0128998Y0154898D02*
X0149744Y0154898D01*
X0149744Y0155297D02*
X0128600Y0155297D01*
X0128201Y0155695D02*
X0149744Y0155695D01*
X0149744Y0156094D02*
X0127803Y0156094D01*
X0127404Y0156492D02*
X0149744Y0156492D01*
X0149744Y0156891D02*
X0127006Y0156891D01*
X0126607Y0157289D02*
X0149744Y0157289D01*
X0149744Y0157688D02*
X0126209Y0157688D01*
X0125810Y0158086D02*
X0149744Y0158086D01*
X0149744Y0158485D02*
X0125412Y0158485D01*
X0125013Y0158883D02*
X0149744Y0158883D01*
X0149744Y0159282D02*
X0124615Y0159282D01*
X0124216Y0159680D02*
X0149744Y0159680D01*
X0149744Y0160079D02*
X0123818Y0160079D01*
X0123419Y0160477D02*
X0149744Y0160477D01*
X0149744Y0160876D02*
X0123021Y0160876D01*
X0122622Y0161274D02*
X0149744Y0161274D01*
X0149744Y0161673D02*
X0122224Y0161673D01*
X0121825Y0162071D02*
X0149744Y0162071D01*
X0149744Y0162470D02*
X0121427Y0162470D01*
X0121028Y0162868D02*
X0149744Y0162868D01*
X0149744Y0163267D02*
X0120630Y0163267D01*
X0118791Y0158883D02*
X0092807Y0158883D01*
X0092234Y0158485D02*
X0119189Y0158485D01*
X0119588Y0158086D02*
X0062508Y0158086D01*
X0062760Y0158338D02*
X0061286Y0156864D01*
X0059361Y0156067D01*
X0049600Y0156067D01*
X0047674Y0156864D01*
X0046201Y0158338D01*
X0045403Y0160263D01*
X0045403Y0162347D01*
X0046201Y0164273D01*
X0047674Y0165746D01*
X0049600Y0166544D01*
X0059361Y0166544D01*
X0061286Y0165746D01*
X0062760Y0164273D01*
X0063557Y0162347D01*
X0063557Y0160263D01*
X0062760Y0158338D01*
X0062821Y0158485D02*
X0089227Y0158485D01*
X0088653Y0158883D02*
X0062986Y0158883D01*
X0063151Y0159282D02*
X0088255Y0159282D01*
X0087960Y0159680D02*
X0063316Y0159680D01*
X0063481Y0160079D02*
X0087795Y0160079D01*
X0087630Y0160477D02*
X0063557Y0160477D01*
X0063557Y0160876D02*
X0087549Y0160876D01*
X0087549Y0161274D02*
X0063557Y0161274D01*
X0063557Y0161673D02*
X0087549Y0161673D01*
X0087604Y0162071D02*
X0063557Y0162071D01*
X0063507Y0162470D02*
X0087769Y0162470D01*
X0087934Y0162868D02*
X0063341Y0162868D01*
X0063176Y0163267D02*
X0088193Y0163267D01*
X0088592Y0163665D02*
X0063011Y0163665D01*
X0062846Y0164064D02*
X0089078Y0164064D01*
X0090040Y0164462D02*
X0062570Y0164462D01*
X0062171Y0164861D02*
X0149744Y0164861D01*
X0149744Y0165259D02*
X0061773Y0165259D01*
X0061374Y0165658D02*
X0149744Y0165658D01*
X0149744Y0166056D02*
X0060537Y0166056D01*
X0059575Y0166455D02*
X0149744Y0166455D01*
X0149744Y0166853D02*
X0034827Y0166853D01*
X0034827Y0166455D02*
X0049385Y0166455D01*
X0048423Y0166056D02*
X0034827Y0166056D01*
X0034827Y0165658D02*
X0047586Y0165658D01*
X0047187Y0165259D02*
X0034827Y0165259D01*
X0034827Y0164861D02*
X0046789Y0164861D01*
X0046390Y0164462D02*
X0034827Y0164462D01*
X0034827Y0164064D02*
X0046114Y0164064D01*
X0045949Y0163665D02*
X0034827Y0163665D01*
X0034827Y0163267D02*
X0045784Y0163267D01*
X0045619Y0162868D02*
X0034827Y0162868D01*
X0034827Y0162470D02*
X0045454Y0162470D01*
X0045403Y0162071D02*
X0034827Y0162071D01*
X0034827Y0161673D02*
X0045403Y0161673D01*
X0045403Y0161274D02*
X0034827Y0161274D01*
X0034827Y0160876D02*
X0045403Y0160876D01*
X0045403Y0160477D02*
X0034827Y0160477D01*
X0034827Y0160079D02*
X0045479Y0160079D01*
X0045644Y0159680D02*
X0034827Y0159680D01*
X0034827Y0159282D02*
X0045810Y0159282D01*
X0045975Y0158883D02*
X0034827Y0158883D01*
X0034827Y0158485D02*
X0046140Y0158485D01*
X0046452Y0158086D02*
X0034827Y0158086D01*
X0034827Y0157688D02*
X0046851Y0157688D01*
X0047249Y0157289D02*
X0034827Y0157289D01*
X0034827Y0156891D02*
X0047648Y0156891D01*
X0048572Y0156492D02*
X0034827Y0156492D01*
X0034827Y0156094D02*
X0049534Y0156094D01*
X0049565Y0146529D02*
X0034827Y0146529D01*
X0034827Y0146131D02*
X0048603Y0146131D01*
X0047660Y0145732D02*
X0034827Y0145732D01*
X0034827Y0145334D02*
X0047262Y0145334D01*
X0046863Y0144935D02*
X0034827Y0144935D01*
X0034827Y0144537D02*
X0046465Y0144537D01*
X0046145Y0144138D02*
X0034827Y0144138D01*
X0034827Y0143740D02*
X0045980Y0143740D01*
X0045815Y0143341D02*
X0034827Y0143341D01*
X0034827Y0142943D02*
X0045650Y0142943D01*
X0045485Y0142544D02*
X0034827Y0142544D01*
X0034827Y0142146D02*
X0045403Y0142146D01*
X0045403Y0141747D02*
X0034827Y0141747D01*
X0034827Y0141349D02*
X0045403Y0141349D01*
X0045403Y0140950D02*
X0034827Y0140950D01*
X0034827Y0140552D02*
X0045403Y0140552D01*
X0045449Y0140153D02*
X0034827Y0140153D01*
X0034827Y0139755D02*
X0045614Y0139755D01*
X0045779Y0139356D02*
X0034827Y0139356D01*
X0034827Y0138958D02*
X0045944Y0138958D01*
X0046109Y0138559D02*
X0034827Y0138559D01*
X0034827Y0138161D02*
X0046378Y0138161D01*
X0046776Y0137762D02*
X0034827Y0137762D01*
X0034827Y0137364D02*
X0047175Y0137364D01*
X0047573Y0136965D02*
X0034827Y0136965D01*
X0034827Y0136567D02*
X0048392Y0136567D01*
X0049354Y0136168D02*
X0034827Y0136168D01*
X0034827Y0146928D02*
X0130746Y0146928D01*
X0130348Y0147326D02*
X0034827Y0147326D01*
X0034827Y0147725D02*
X0129949Y0147725D01*
X0129551Y0148123D02*
X0034827Y0148123D01*
X0034827Y0148522D02*
X0129152Y0148522D01*
X0128754Y0148920D02*
X0034827Y0148920D01*
X0034827Y0149319D02*
X0128355Y0149319D01*
X0127957Y0149717D02*
X0034827Y0149717D01*
X0034827Y0150116D02*
X0127558Y0150116D01*
X0127160Y0150514D02*
X0034827Y0150514D01*
X0034827Y0150913D02*
X0126761Y0150913D01*
X0126363Y0151312D02*
X0034827Y0151312D01*
X0034827Y0151710D02*
X0125964Y0151710D01*
X0125566Y0152109D02*
X0034827Y0152109D01*
X0034827Y0152507D02*
X0125167Y0152507D01*
X0124768Y0152906D02*
X0034827Y0152906D01*
X0034827Y0153304D02*
X0124370Y0153304D01*
X0123971Y0153703D02*
X0034827Y0153703D01*
X0034827Y0154101D02*
X0123573Y0154101D01*
X0123174Y0154500D02*
X0034827Y0154500D01*
X0034827Y0154898D02*
X0122776Y0154898D01*
X0122377Y0155297D02*
X0034827Y0155297D01*
X0034827Y0155695D02*
X0121979Y0155695D01*
X0121580Y0156094D02*
X0059426Y0156094D01*
X0060388Y0156492D02*
X0121182Y0156492D01*
X0120783Y0156891D02*
X0061313Y0156891D01*
X0061711Y0157289D02*
X0120385Y0157289D01*
X0119986Y0157688D02*
X0062110Y0157688D01*
X0059395Y0146529D02*
X0131145Y0146529D01*
X0131299Y0146131D02*
X0060357Y0146131D01*
X0061300Y0145732D02*
X0131299Y0145732D01*
X0131439Y0145334D02*
X0061699Y0145334D01*
X0062097Y0144935D02*
X0131604Y0144935D01*
X0131769Y0144537D02*
X0062496Y0144537D01*
X0062815Y0144138D02*
X0132148Y0144138D01*
X0132547Y0143740D02*
X0062980Y0143740D01*
X0063146Y0143341D02*
X0133323Y0143341D01*
X0149744Y0163665D02*
X0092869Y0163665D01*
X0092383Y0164064D02*
X0149744Y0164064D01*
X0149744Y0164462D02*
X0091421Y0164462D01*
X0048783Y0126205D02*
X0034827Y0126205D01*
X0034827Y0125807D02*
X0047820Y0125807D01*
X0047336Y0125408D02*
X0034827Y0125408D01*
X0034827Y0125010D02*
X0046938Y0125010D01*
X0046539Y0124611D02*
X0034827Y0124611D01*
X0034827Y0124213D02*
X0046176Y0124213D01*
X0046011Y0123814D02*
X0034827Y0123814D01*
X0034827Y0123416D02*
X0045846Y0123416D01*
X0045681Y0123017D02*
X0034827Y0123017D01*
X0034827Y0122619D02*
X0045516Y0122619D01*
X0045403Y0122220D02*
X0034827Y0122220D01*
X0034827Y0121822D02*
X0045403Y0121822D01*
X0045403Y0121423D02*
X0034827Y0121423D01*
X0034827Y0121025D02*
X0045403Y0121025D01*
X0045403Y0120626D02*
X0034827Y0120626D01*
X0034827Y0120228D02*
X0045418Y0120228D01*
X0045583Y0119829D02*
X0034827Y0119829D01*
X0034827Y0119431D02*
X0045748Y0119431D01*
X0045913Y0119032D02*
X0034827Y0119032D01*
X0034827Y0118634D02*
X0046078Y0118634D01*
X0046303Y0118235D02*
X0034827Y0118235D01*
X0034827Y0117837D02*
X0046702Y0117837D01*
X0047100Y0117438D02*
X0034827Y0117438D01*
X0034827Y0117040D02*
X0047499Y0117040D01*
X0048213Y0116641D02*
X0034827Y0116641D01*
X0034827Y0116243D02*
X0049175Y0116243D01*
X0034827Y0167252D02*
X0149744Y0167252D01*
X0149744Y0167650D02*
X0034827Y0167650D01*
X0034827Y0168049D02*
X0149744Y0168049D01*
X0149744Y0168447D02*
X0034827Y0168447D01*
X0034827Y0168846D02*
X0149744Y0168846D01*
X0149744Y0169245D02*
X0034827Y0169245D01*
X0034827Y0169643D02*
X0149744Y0169643D01*
X0149744Y0170042D02*
X0034827Y0170042D01*
X0034827Y0170440D02*
X0149744Y0170440D01*
X0149744Y0170839D02*
X0034827Y0170839D01*
X0034827Y0171237D02*
X0149744Y0171237D01*
X0149744Y0171636D02*
X0034827Y0171636D01*
X0034827Y0172034D02*
X0149744Y0172034D01*
X0149744Y0172433D02*
X0034827Y0172433D01*
X0034827Y0172831D02*
X0149744Y0172831D01*
X0149744Y0173230D02*
X0034827Y0173230D01*
X0034827Y0173628D02*
X0149744Y0173628D01*
X0149744Y0174027D02*
X0034827Y0174027D01*
X0034827Y0174425D02*
X0149744Y0174425D01*
X0149744Y0174824D02*
X0034827Y0174824D01*
X0034827Y0175222D02*
X0149744Y0175222D01*
X0149744Y0175621D02*
X0034827Y0175621D01*
X0034827Y0176019D02*
X0149744Y0176019D01*
X0149744Y0176418D02*
X0034827Y0176418D01*
X0034827Y0176816D02*
X0149744Y0176816D01*
X0149744Y0177215D02*
X0034827Y0177215D01*
X0034827Y0177613D02*
X0149744Y0177613D01*
X0149744Y0178012D02*
X0034827Y0178012D01*
X0034827Y0178410D02*
X0149744Y0178410D01*
X0149744Y0178809D02*
X0034827Y0178809D01*
X0034827Y0179207D02*
X0149744Y0179207D01*
X0149744Y0179606D02*
X0034827Y0179606D01*
X0034827Y0180004D02*
X0149744Y0180004D01*
X0149744Y0180403D02*
X0034827Y0180403D01*
X0034827Y0180801D02*
X0149744Y0180801D01*
X0149744Y0181200D02*
X0034827Y0181200D01*
X0034827Y0181598D02*
X0149744Y0181598D01*
X0149744Y0181997D02*
X0034827Y0181997D01*
X0034827Y0182395D02*
X0149744Y0182395D01*
X0149744Y0182794D02*
X0034827Y0182794D01*
X0034827Y0183192D02*
X0149744Y0183192D01*
X0149744Y0183591D02*
X0034827Y0183591D01*
X0034827Y0183989D02*
X0149744Y0183989D01*
X0149744Y0184388D02*
X0034827Y0184388D01*
X0034827Y0184786D02*
X0149744Y0184786D01*
X0149744Y0185185D02*
X0034827Y0185185D01*
X0034827Y0185583D02*
X0149744Y0185583D01*
X0149744Y0185982D02*
X0034827Y0185982D01*
X0034827Y0186380D02*
X0149744Y0186380D01*
X0149744Y0186779D02*
X0034827Y0186779D01*
X0034827Y0187178D02*
X0149744Y0187178D01*
X0149744Y0187576D02*
X0034827Y0187576D01*
X0034827Y0187975D02*
X0149744Y0187975D01*
X0149744Y0188373D02*
X0034827Y0188373D01*
X0034827Y0188772D02*
X0149744Y0188772D01*
X0149744Y0189170D02*
X0034827Y0189170D01*
X0034827Y0189569D02*
X0149744Y0189569D01*
X0149744Y0189967D02*
X0034827Y0189967D01*
X0034827Y0190366D02*
X0149744Y0190366D01*
X0149744Y0190764D02*
X0034827Y0190764D01*
X0034827Y0191163D02*
X0149744Y0191163D01*
X0149744Y0191561D02*
X0034827Y0191561D01*
X0034827Y0191960D02*
X0149744Y0191960D01*
X0149744Y0192358D02*
X0034827Y0192358D01*
X0034827Y0192757D02*
X0149744Y0192757D01*
X0149744Y0193155D02*
X0034827Y0193155D01*
X0034827Y0193554D02*
X0149744Y0193554D01*
X0149744Y0193952D02*
X0034827Y0193952D01*
X0034827Y0194351D02*
X0149744Y0194351D01*
X0149744Y0194749D02*
X0034827Y0194749D01*
X0034827Y0195148D02*
X0149744Y0195148D01*
X0149744Y0195546D02*
X0034827Y0195546D01*
X0034827Y0195945D02*
X0149744Y0195945D01*
X0149744Y0196343D02*
X0034827Y0196343D01*
X0034827Y0196742D02*
X0149744Y0196742D01*
X0149744Y0197140D02*
X0034827Y0197140D01*
X0034827Y0197539D02*
X0149744Y0197539D01*
X0149744Y0197937D02*
X0034827Y0197937D01*
X0034827Y0198336D02*
X0149744Y0198336D01*
X0149744Y0198734D02*
X0034827Y0198734D01*
X0034827Y0199133D02*
X0149744Y0199133D01*
X0149744Y0199531D02*
X0034827Y0199531D01*
X0034827Y0199930D02*
X0149744Y0199930D01*
X0149744Y0200328D02*
X0034827Y0200328D01*
X0034827Y0200727D02*
X0149744Y0200727D01*
X0149744Y0201125D02*
X0034827Y0201125D01*
X0034827Y0201524D02*
X0149744Y0201524D01*
X0149738Y0201922D02*
X0034833Y0201922D01*
X0034864Y0202321D02*
X0149706Y0202321D01*
X0149675Y0202719D02*
X0034896Y0202719D01*
X0034998Y0203118D02*
X0149572Y0203118D01*
X0149443Y0203516D02*
X0035128Y0203516D01*
X0035257Y0203915D02*
X0149313Y0203915D01*
X0149184Y0204314D02*
X0035387Y0204314D01*
X0035523Y0204712D02*
X0149048Y0204712D01*
X0148758Y0205111D02*
X0035812Y0205111D01*
X0036102Y0205509D02*
X0148469Y0205509D01*
X0148179Y0205908D02*
X0036391Y0205908D01*
X0036694Y0206306D02*
X0147876Y0206306D01*
X0147328Y0206705D02*
X0037243Y0206705D01*
X0037791Y0207103D02*
X0146779Y0207103D01*
X0146125Y0207502D02*
X0038446Y0207502D01*
X0039672Y0207900D02*
X0144898Y0207900D01*
X0149499Y0038931D02*
X0035072Y0038931D01*
X0035201Y0038533D02*
X0149369Y0038533D01*
X0149240Y0038134D02*
X0035331Y0038134D01*
X0035460Y0037736D02*
X0149110Y0037736D01*
X0148884Y0037337D02*
X0035687Y0037337D01*
X0035977Y0036939D02*
X0148594Y0036939D01*
X0148304Y0036540D02*
X0036266Y0036540D01*
X0036556Y0036142D02*
X0148015Y0036142D01*
X0147565Y0035743D02*
X0037006Y0035743D01*
X0037554Y0035345D02*
X0147016Y0035345D01*
X0146468Y0034946D02*
X0038103Y0034946D01*
X0039142Y0034548D02*
X0145428Y0034548D01*
D14*
X0135592Y0048303D03*
X0048978Y0048303D03*
X0048978Y0193972D03*
X0135592Y0193972D03*
D15*
X0119480Y0161305D02*
X0090730Y0161305D01*
X0119480Y0161305D02*
X0134480Y0146305D01*
M02*
