G75*
%MOIN*%
%OFA0B0*%
%FSLAX25Y25*%
%IPPOS*%
%LPD*%
%AMOC8*
5,1,8,0,0,1.08239X$1,22.5*
%
%ADD10C,0.00900*%
D10*
X0068930Y0040273D02*
X0069948Y0041290D01*
X0068930Y0042308D01*
X0069948Y0043325D01*
X0073000Y0043325D01*
X0073000Y0045701D02*
X0069948Y0045701D01*
X0068930Y0046718D01*
X0069948Y0047736D01*
X0068930Y0048753D01*
X0069948Y0049771D01*
X0073000Y0049771D01*
X0073000Y0052146D02*
X0069948Y0052146D01*
X0068930Y0053164D01*
X0069948Y0054181D01*
X0068930Y0055199D01*
X0069948Y0056216D01*
X0073000Y0056216D01*
X0069948Y0058592D02*
X0069948Y0059609D01*
X0068930Y0059609D01*
X0068930Y0058592D01*
X0069948Y0058592D01*
X0068930Y0061814D02*
X0075035Y0061814D01*
X0073000Y0062832D02*
X0073000Y0064867D01*
X0071983Y0065885D01*
X0068930Y0065885D01*
X0068930Y0068260D02*
X0068930Y0071312D01*
X0069948Y0072330D01*
X0071983Y0072330D01*
X0073000Y0071312D01*
X0073000Y0068260D01*
X0075035Y0068260D02*
X0068930Y0068260D01*
X0069948Y0074705D02*
X0068930Y0075723D01*
X0068930Y0077758D01*
X0069948Y0078776D01*
X0074018Y0078776D01*
X0075035Y0077758D01*
X0075035Y0075723D01*
X0074018Y0074705D01*
X0073000Y0074705D01*
X0071983Y0075723D01*
X0071983Y0078776D01*
X0073000Y0081151D02*
X0073000Y0083186D01*
X0074018Y0082168D02*
X0069948Y0082168D01*
X0068930Y0083186D01*
X0068930Y0085448D02*
X0075035Y0085448D01*
X0073000Y0088500D02*
X0070965Y0085448D01*
X0068930Y0088500D01*
X0069948Y0090819D02*
X0068930Y0091837D01*
X0068930Y0093872D01*
X0069948Y0094889D01*
X0071983Y0094889D01*
X0073000Y0093872D01*
X0073000Y0091837D01*
X0071983Y0090819D01*
X0069948Y0090819D01*
X0069948Y0097265D02*
X0068930Y0097265D01*
X0068930Y0098282D01*
X0069948Y0098282D01*
X0069948Y0097265D01*
X0069948Y0100487D02*
X0068930Y0101505D01*
X0068930Y0104557D01*
X0068930Y0106933D02*
X0075035Y0106933D01*
X0073000Y0107950D02*
X0073000Y0109985D01*
X0071983Y0111003D01*
X0068930Y0111003D01*
X0071983Y0106933D02*
X0073000Y0107950D01*
X0073000Y0104557D02*
X0073000Y0101505D01*
X0071983Y0100487D01*
X0069948Y0100487D01*
X0081430Y0099186D02*
X0081430Y0095116D01*
X0081430Y0097151D02*
X0087535Y0097151D01*
X0085500Y0095116D01*
X0086518Y0092741D02*
X0082448Y0088671D01*
X0081430Y0089688D01*
X0081430Y0091723D01*
X0082448Y0092741D01*
X0086518Y0092741D01*
X0087535Y0091723D01*
X0087535Y0089688D01*
X0086518Y0088671D01*
X0082448Y0088671D01*
X0081430Y0086295D02*
X0081430Y0082225D01*
X0085500Y0086295D01*
X0086518Y0086295D01*
X0087535Y0085278D01*
X0087535Y0083243D01*
X0086518Y0082225D01*
X0085500Y0073518D02*
X0085500Y0071483D01*
X0086518Y0072500D02*
X0082448Y0072500D01*
X0081430Y0073518D01*
X0082448Y0069107D02*
X0083465Y0068090D01*
X0083465Y0066055D01*
X0084483Y0065037D01*
X0085500Y0066055D01*
X0085500Y0069107D01*
X0082448Y0069107D02*
X0081430Y0068090D01*
X0081430Y0065037D01*
X0081430Y0062662D02*
X0085500Y0062662D01*
X0085500Y0058592D02*
X0082448Y0058592D01*
X0081430Y0059609D01*
X0081430Y0062662D01*
X0081430Y0056216D02*
X0081430Y0053164D01*
X0082448Y0052146D01*
X0084483Y0052146D01*
X0085500Y0053164D01*
X0085500Y0056216D01*
X0080413Y0056216D01*
X0079395Y0055199D01*
X0079395Y0054181D01*
X0081430Y0049771D02*
X0085500Y0049771D01*
X0081430Y0049771D02*
X0081430Y0046718D01*
X0082448Y0045701D01*
X0085500Y0045701D01*
X0085500Y0043325D02*
X0081430Y0043325D01*
X0084483Y0043325D02*
X0084483Y0039255D01*
X0085500Y0039255D02*
X0081430Y0039255D01*
X0085500Y0039255D02*
X0087535Y0041290D01*
X0085500Y0043325D01*
X0093940Y0043020D02*
X0093940Y0038950D01*
X0100045Y0038950D01*
X0098010Y0045396D02*
X0094958Y0045396D01*
X0093940Y0046413D01*
X0093940Y0049466D01*
X0098010Y0049466D01*
X0095975Y0051841D02*
X0098010Y0054894D01*
X0098010Y0058230D02*
X0098010Y0060265D01*
X0096993Y0061282D01*
X0093940Y0061282D01*
X0093940Y0058230D01*
X0094958Y0057212D01*
X0095975Y0058230D01*
X0095975Y0061282D01*
X0096993Y0063658D02*
X0098010Y0064675D01*
X0098010Y0067728D01*
X0095975Y0066710D02*
X0095975Y0064675D01*
X0096993Y0063658D01*
X0093940Y0063658D02*
X0093940Y0066710D01*
X0094958Y0067728D01*
X0095975Y0066710D01*
X0096993Y0076549D02*
X0096993Y0078584D01*
X0100045Y0076549D02*
X0093940Y0076549D01*
X0100045Y0076549D02*
X0100045Y0080619D01*
X0100045Y0084012D02*
X0101063Y0084012D01*
X0101063Y0086047D02*
X0100045Y0086047D01*
X0098010Y0086047D02*
X0098010Y0084012D01*
X0098010Y0086047D02*
X0096993Y0087064D01*
X0093940Y0087064D01*
X0093940Y0084012D01*
X0094958Y0082994D01*
X0095975Y0084012D01*
X0095975Y0087064D01*
X0096993Y0089440D02*
X0098010Y0090457D01*
X0098010Y0093510D01*
X0095975Y0092492D02*
X0095975Y0090457D01*
X0096993Y0089440D01*
X0093940Y0089440D02*
X0093940Y0092492D01*
X0094958Y0093510D01*
X0095975Y0092492D01*
X0096993Y0095885D02*
X0098010Y0096903D01*
X0098010Y0099955D01*
X0095975Y0098938D02*
X0095975Y0096903D01*
X0096993Y0095885D01*
X0093940Y0095885D02*
X0093940Y0098938D01*
X0094958Y0099955D01*
X0095975Y0098938D01*
X0093940Y0102331D02*
X0093940Y0104366D01*
X0093940Y0103348D02*
X0100045Y0103348D01*
X0100045Y0102331D01*
X0096993Y0106628D02*
X0098010Y0107645D01*
X0098010Y0109680D01*
X0096993Y0110698D01*
X0095975Y0110698D01*
X0095975Y0106628D01*
X0094958Y0106628D02*
X0096993Y0106628D01*
X0094958Y0106628D02*
X0093940Y0107645D01*
X0093940Y0109680D01*
X0093940Y0113073D02*
X0098010Y0113073D01*
X0095975Y0113073D02*
X0098010Y0115108D01*
X0098010Y0116126D01*
X0106440Y0116296D02*
X0110510Y0116296D01*
X0110510Y0119349D01*
X0109493Y0120366D01*
X0106440Y0120366D01*
X0107458Y0123759D02*
X0106440Y0124777D01*
X0107458Y0123759D02*
X0111528Y0123759D01*
X0110510Y0122741D02*
X0110510Y0124777D01*
X0112545Y0133484D02*
X0106440Y0133484D01*
X0106440Y0137554D01*
X0106440Y0139929D02*
X0106440Y0141965D01*
X0106440Y0140947D02*
X0110510Y0140947D01*
X0110510Y0139929D01*
X0112545Y0140947D02*
X0113563Y0140947D01*
X0110510Y0144226D02*
X0110510Y0145244D01*
X0109493Y0146262D01*
X0110510Y0147279D01*
X0109493Y0148297D01*
X0106440Y0148297D01*
X0106440Y0146262D02*
X0109493Y0146262D01*
X0110510Y0144226D02*
X0106440Y0144226D01*
X0100045Y0144226D02*
X0100045Y0148297D01*
X0100045Y0146262D02*
X0093940Y0146262D01*
X0093940Y0150672D02*
X0100045Y0150672D01*
X0095975Y0150672D02*
X0100045Y0154742D01*
X0099028Y0157117D02*
X0094958Y0157117D01*
X0093940Y0158135D01*
X0093940Y0160170D01*
X0094958Y0161188D01*
X0099028Y0161188D01*
X0100045Y0160170D01*
X0100045Y0158135D01*
X0099028Y0157117D01*
X0093940Y0154742D02*
X0096993Y0151689D01*
X0096993Y0141851D02*
X0096993Y0138798D01*
X0098010Y0137781D01*
X0099028Y0137781D01*
X0100045Y0138798D01*
X0100045Y0140834D01*
X0099028Y0141851D01*
X0094958Y0141851D01*
X0093940Y0140834D01*
X0093940Y0138798D01*
X0094958Y0137781D01*
X0094958Y0135406D02*
X0093940Y0134388D01*
X0093940Y0131335D01*
X0100045Y0131335D01*
X0100045Y0134388D01*
X0099028Y0135406D01*
X0098010Y0135406D01*
X0096993Y0134388D01*
X0096993Y0131335D01*
X0096993Y0128960D02*
X0096993Y0124890D01*
X0100045Y0124890D02*
X0093940Y0124890D01*
X0093940Y0128960D02*
X0100045Y0128960D01*
X0096993Y0134388D02*
X0095975Y0135406D01*
X0094958Y0135406D01*
X0087535Y0130396D02*
X0087535Y0127344D01*
X0081430Y0127344D01*
X0083465Y0127344D02*
X0083465Y0130396D01*
X0084483Y0131414D01*
X0086518Y0131414D01*
X0087535Y0130396D01*
X0083465Y0129379D02*
X0081430Y0131414D01*
X0082448Y0133789D02*
X0084483Y0133789D01*
X0085500Y0134807D01*
X0085500Y0136842D01*
X0084483Y0137859D01*
X0083465Y0137859D01*
X0083465Y0133789D01*
X0082448Y0133789D02*
X0081430Y0134807D01*
X0081430Y0136842D01*
X0085500Y0140235D02*
X0081430Y0142270D01*
X0085500Y0144305D01*
X0086518Y0153126D02*
X0082448Y0153126D01*
X0081430Y0154143D01*
X0081430Y0156178D01*
X0082448Y0157196D01*
X0086518Y0157196D02*
X0087535Y0156178D01*
X0087535Y0154143D01*
X0086518Y0153126D01*
X0106440Y0152707D02*
X0106440Y0150672D01*
X0106440Y0151689D02*
X0110510Y0151689D01*
X0110510Y0150672D01*
X0112545Y0151689D02*
X0113563Y0151689D01*
X0110510Y0154969D02*
X0110510Y0157004D01*
X0111528Y0155986D02*
X0107458Y0155986D01*
X0106440Y0157004D01*
X0107458Y0159266D02*
X0106440Y0160283D01*
X0106440Y0162319D01*
X0108475Y0163336D02*
X0108475Y0159266D01*
X0107458Y0159266D02*
X0109493Y0159266D01*
X0110510Y0160283D01*
X0110510Y0162319D01*
X0109493Y0163336D01*
X0108475Y0163336D01*
X0108475Y0165711D02*
X0110510Y0167747D01*
X0110510Y0168764D01*
X0110510Y0165711D02*
X0106440Y0165711D01*
X0084483Y0118523D02*
X0084483Y0114453D01*
X0085500Y0105632D02*
X0084483Y0104614D01*
X0084483Y0102579D01*
X0085500Y0101562D01*
X0086518Y0101562D01*
X0087535Y0102579D01*
X0087535Y0104614D01*
X0086518Y0105632D01*
X0085500Y0105632D01*
X0084483Y0104614D02*
X0083465Y0105632D01*
X0082448Y0105632D01*
X0081430Y0104614D01*
X0081430Y0102579D01*
X0082448Y0101562D01*
X0083465Y0101562D01*
X0084483Y0102579D01*
X0105422Y0077396D02*
X0104405Y0076379D01*
X0104405Y0075361D01*
X0106440Y0074344D02*
X0106440Y0077396D01*
X0105422Y0077396D02*
X0110510Y0077396D01*
X0110510Y0074344D01*
X0109493Y0073326D01*
X0107458Y0073326D01*
X0106440Y0074344D01*
X0106440Y0070951D02*
X0109493Y0070951D01*
X0110510Y0069933D01*
X0110510Y0066880D01*
X0106440Y0066880D01*
X0106440Y0064619D02*
X0106440Y0062584D01*
X0106440Y0063601D02*
X0110510Y0063601D01*
X0110510Y0062584D01*
X0112545Y0063601D02*
X0113563Y0063601D01*
X0112545Y0060208D02*
X0106440Y0060208D01*
X0106440Y0057156D01*
X0107458Y0056138D01*
X0109493Y0056138D01*
X0110510Y0057156D01*
X0110510Y0060208D01*
X0106440Y0053876D02*
X0106440Y0051841D01*
X0106440Y0052859D02*
X0112545Y0052859D01*
X0112545Y0051841D01*
X0109493Y0049466D02*
X0110510Y0048448D01*
X0110510Y0046413D01*
X0109493Y0045396D01*
X0107458Y0045396D01*
X0106440Y0046413D01*
X0106440Y0048448D01*
X0107458Y0049466D01*
X0109493Y0049466D01*
X0109493Y0043020D02*
X0109493Y0038950D01*
X0112545Y0038950D02*
X0106440Y0038950D01*
X0106440Y0043020D02*
X0112545Y0043020D01*
X0100045Y0051841D02*
X0093940Y0051841D01*
X0095975Y0051841D02*
X0093940Y0054894D01*
X0073000Y0062832D02*
X0071983Y0061814D01*
X0068930Y0040273D02*
X0069948Y0039255D01*
X0073000Y0039255D01*
X0107458Y0086217D02*
X0106440Y0087235D01*
X0106440Y0089270D01*
X0107458Y0090287D01*
X0107458Y0092662D02*
X0106440Y0093680D01*
X0106440Y0096733D01*
X0110510Y0096733D01*
X0110510Y0099108D02*
X0106440Y0099108D01*
X0108475Y0099108D02*
X0110510Y0101143D01*
X0110510Y0102161D01*
X0110510Y0104479D02*
X0106440Y0104479D01*
X0108475Y0104479D02*
X0110510Y0106514D01*
X0110510Y0107532D01*
X0109493Y0109850D02*
X0110510Y0110868D01*
X0110510Y0112903D01*
X0109493Y0113921D01*
X0108475Y0113921D01*
X0108475Y0109850D01*
X0107458Y0109850D02*
X0109493Y0109850D01*
X0107458Y0109850D02*
X0106440Y0110868D01*
X0106440Y0112903D01*
X0107458Y0092662D02*
X0110510Y0092662D01*
X0111528Y0090287D02*
X0112545Y0089270D01*
X0112545Y0087235D01*
X0111528Y0086217D01*
X0107458Y0086217D01*
M02*
