G75*
%MOIN*%
%OFA0B0*%
%FSLAX25Y25*%
%IPPOS*%
%LPD*%
%AMOC8*
5,1,8,0,0,1.08239X$1,22.5*
%
%ADD10R,0.05906X0.05118*%
%ADD11R,0.05118X0.05906*%
%ADD12R,0.07087X0.06299*%
%ADD13C,0.07677*%
%ADD14C,0.16992*%
%ADD15R,0.05709X0.18504*%
%ADD16R,0.42913X0.41339*%
%ADD17R,0.02165X0.04724*%
%ADD18R,0.05906X0.07874*%
%ADD19R,0.04724X0.05906*%
%ADD20C,0.01600*%
%ADD21C,0.05000*%
%ADD22C,0.03962*%
%ADD23C,0.00787*%
%ADD24C,0.02400*%
D10*
X0071250Y0103760D03*
X0071250Y0111240D03*
X0100000Y0109990D03*
X0100000Y0102510D03*
X0058780Y0152972D03*
X0058780Y0162028D03*
D11*
X0051240Y0162500D03*
X0043760Y0162500D03*
X0043760Y0152500D03*
X0051240Y0152500D03*
X0072510Y0142500D03*
X0079990Y0142500D03*
X0080010Y0128750D03*
X0087490Y0128750D03*
X0085010Y0120000D03*
X0087490Y0111250D03*
X0092490Y0120000D03*
X0080010Y0111250D03*
X0080010Y0102500D03*
X0087490Y0102500D03*
X0074990Y0026250D03*
X0067510Y0026250D03*
X0067510Y0017500D03*
X0067510Y0008750D03*
X0074990Y0008750D03*
X0074990Y0017500D03*
X0057490Y0017500D03*
X0057490Y0008750D03*
X0050010Y0008750D03*
X0050010Y0017500D03*
X0050010Y0026250D03*
X0057490Y0026250D03*
D12*
X0071250Y0119488D03*
X0071250Y0130512D03*
D13*
X0023524Y0128583D02*
X0015846Y0128583D01*
X0015846Y0108583D02*
X0023524Y0108583D01*
X0023524Y0088583D02*
X0015846Y0088583D01*
X0015846Y0068583D02*
X0023524Y0068583D01*
X0023524Y0048583D02*
X0015846Y0048583D01*
D14*
X0015748Y0015748D03*
X0102362Y0015748D03*
X0102362Y0161417D03*
X0015748Y0161417D03*
D15*
X0080000Y0089744D03*
X0100000Y0089744D03*
D16*
X0090000Y0053720D03*
D17*
X0100010Y0116132D03*
X0107490Y0116132D03*
X0107490Y0126368D03*
X0103750Y0126368D03*
X0100010Y0126368D03*
D18*
X0081220Y0157500D03*
D19*
X0113750Y0145709D03*
X0113750Y0134291D03*
X0113750Y0126959D03*
X0113750Y0115541D03*
D20*
X0113750Y0116132D02*
X0107490Y0116132D01*
X0107490Y0112500D01*
X0107500Y0111250D01*
X0100010Y0109990D02*
X0100010Y0116132D01*
X0100010Y0120000D01*
X0092490Y0120000D01*
X0086250Y0120000D02*
X0086250Y0128750D01*
X0087490Y0128750D01*
X0100010Y0128750D01*
X0100010Y0126368D01*
X0107490Y0126368D02*
X0107490Y0138750D01*
X0097500Y0138750D01*
X0097500Y0136250D01*
X0071250Y0136250D01*
X0071250Y0142500D01*
X0072510Y0142500D01*
X0071250Y0136250D02*
X0071250Y0130512D01*
X0080010Y0128750D02*
X0080010Y0111250D01*
X0085010Y0120000D02*
X0086250Y0120000D01*
X0071250Y0119488D02*
X0071250Y0111240D01*
X0071250Y0103760D02*
X0071250Y0098760D01*
X0062500Y0098750D01*
X0019685Y0098750D01*
X0019685Y0088750D02*
X0013750Y0088750D01*
X0010000Y0088750D01*
X0010000Y0038750D01*
X0045000Y0038750D01*
X0045000Y0017500D01*
X0050010Y0017500D01*
X0050010Y0008750D02*
X0042500Y0008750D01*
X0042500Y0036250D01*
X0007500Y0036250D01*
X0007500Y0128583D01*
X0019685Y0128583D01*
X0038750Y0128583D01*
X0038750Y0162500D01*
X0043760Y0162500D01*
X0051240Y0162500D02*
X0051240Y0162028D01*
X0058780Y0162028D01*
X0058780Y0152972D02*
X0051240Y0152972D01*
X0051240Y0152500D01*
X0079990Y0142500D02*
X0081250Y0142500D01*
X0081220Y0157500D01*
X0107490Y0126368D02*
X0113750Y0126368D01*
X0113750Y0126959D02*
X0113750Y0134291D01*
X0100010Y0109990D02*
X0100000Y0109990D01*
X0100000Y0102510D02*
X0100000Y0089744D01*
X0113750Y0077500D02*
X0080000Y0077500D01*
X0080000Y0089744D01*
X0073750Y0057470D02*
X0072500Y0057470D01*
X0070000Y0037500D01*
X0070010Y0031250D01*
X0050000Y0031250D01*
X0050010Y0026250D01*
X0057490Y0026250D02*
X0067510Y0026250D01*
X0074990Y0026250D02*
X0081250Y0026250D01*
X0081240Y0030000D01*
X0113750Y0030000D01*
X0113750Y0077500D01*
X0090000Y0053720D02*
X0073750Y0057470D01*
X0067510Y0017500D02*
X0057490Y0017500D01*
X0057490Y0008750D02*
X0067510Y0008750D01*
X0019685Y0068583D02*
X0012500Y0068583D01*
X0013750Y0068750D01*
X0012500Y0128583D02*
X0019685Y0128583D01*
X0013750Y0128750D02*
X0012500Y0128583D01*
D21*
X0019685Y0108583D02*
X0019685Y0098750D01*
X0019685Y0088750D01*
X0019685Y0088583D01*
X0019685Y0068583D02*
X0019685Y0060000D01*
X0073750Y0060000D01*
X0080000Y0089744D02*
X0080000Y0103750D01*
X0080010Y0102500D01*
X0080010Y0111250D01*
D22*
X0090000Y0093750D03*
X0107500Y0111250D03*
X0102500Y0133750D03*
X0090000Y0143750D03*
X0071250Y0083750D03*
X0013750Y0088750D03*
X0013750Y0068750D03*
X0013750Y0048750D03*
X0013750Y0108750D03*
X0013750Y0128750D03*
D23*
X0001504Y0003246D02*
X0002306Y0002306D01*
X0003246Y0001504D01*
X0004299Y0000858D01*
X0005441Y0000385D01*
X0006642Y0000097D01*
X0007874Y0000000D01*
X0110236Y0000000D01*
X0007874Y0000000D01*
X0004474Y0000786D02*
X0113636Y0000786D01*
X0113811Y0000858D02*
X0112669Y0000385D01*
X0111468Y0000097D01*
X0110236Y0000000D01*
X0113811Y0000858D02*
X0114864Y0001504D01*
X0115804Y0002306D01*
X0116606Y0003246D01*
X0117252Y0004299D01*
X0117725Y0005441D01*
X0118013Y0006642D01*
X0118110Y0007874D01*
X0118110Y0169291D01*
X0118013Y0170523D01*
X0117725Y0171725D01*
X0117252Y0172866D01*
X0116606Y0173920D01*
X0115804Y0174859D01*
X0114864Y0175662D01*
X0113811Y0176307D01*
X0112669Y0176780D01*
X0111468Y0177068D01*
X0110236Y0177165D01*
X0007874Y0177165D01*
X0006642Y0177068D01*
X0005441Y0176780D01*
X0004299Y0176307D01*
X0003246Y0175662D01*
X0002306Y0174859D01*
X0001504Y0173920D01*
X0000858Y0172866D01*
X0000385Y0171725D01*
X0000097Y0170523D01*
X0000000Y0169291D01*
X0000000Y0007874D01*
X0000097Y0006642D01*
X0000385Y0005441D01*
X0000858Y0004299D01*
X0001504Y0003246D01*
X0001591Y0003144D02*
X0116519Y0003144D01*
X0117025Y0003930D02*
X0001085Y0003930D01*
X0000686Y0004715D02*
X0046305Y0004715D01*
X0045876Y0005145D02*
X0046798Y0004222D01*
X0053221Y0004222D01*
X0053750Y0004751D01*
X0054279Y0004222D01*
X0060702Y0004222D01*
X0061624Y0005145D01*
X0061624Y0006375D01*
X0063376Y0006375D01*
X0063376Y0005145D01*
X0064298Y0004222D01*
X0070721Y0004222D01*
X0071644Y0005145D01*
X0071644Y0012355D01*
X0070874Y0013125D01*
X0071644Y0013895D01*
X0071644Y0021105D01*
X0070874Y0021875D01*
X0071250Y0022251D01*
X0071779Y0021722D01*
X0078202Y0021722D01*
X0079124Y0022645D01*
X0079124Y0023875D01*
X0080270Y0023875D01*
X0080273Y0023873D01*
X0081252Y0023875D01*
X0082234Y0023875D01*
X0082236Y0023878D01*
X0082240Y0023878D01*
X0082930Y0024572D01*
X0083625Y0025266D01*
X0083625Y0025270D01*
X0083627Y0025273D01*
X0083625Y0026252D01*
X0083625Y0027234D01*
X0083622Y0027236D01*
X0083621Y0027625D01*
X0114734Y0027625D01*
X0116125Y0029016D01*
X0116125Y0078484D01*
X0114734Y0079875D01*
X0104429Y0079875D01*
X0104429Y0099200D01*
X0104528Y0099298D01*
X0104528Y0105721D01*
X0103999Y0106250D01*
X0104528Y0106779D01*
X0104528Y0109194D01*
X0105486Y0108235D01*
X0106793Y0107694D01*
X0108207Y0107694D01*
X0109514Y0108235D01*
X0110515Y0109236D01*
X0111056Y0110543D01*
X0111056Y0111014D01*
X0116765Y0111014D01*
X0117687Y0111936D01*
X0117687Y0119146D01*
X0116765Y0120069D01*
X0110735Y0120069D01*
X0109980Y0119314D01*
X0109225Y0120069D01*
X0105755Y0120069D01*
X0104833Y0119146D01*
X0104833Y0113611D01*
X0104485Y0113264D01*
X0104479Y0113250D01*
X0103605Y0114124D01*
X0102667Y0114124D01*
X0102667Y0119146D01*
X0102385Y0119429D01*
X0102385Y0120984D01*
X0100994Y0122375D01*
X0096624Y0122375D01*
X0096624Y0123605D01*
X0095702Y0124528D01*
X0091007Y0124528D01*
X0091624Y0125145D01*
X0091624Y0126375D01*
X0097352Y0126375D01*
X0097352Y0123354D01*
X0098275Y0122431D01*
X0101745Y0122431D01*
X0102667Y0123354D01*
X0102667Y0129383D01*
X0102385Y0129665D01*
X0102385Y0129734D01*
X0100994Y0131125D01*
X0091624Y0131125D01*
X0091624Y0132355D01*
X0090702Y0133278D01*
X0084279Y0133278D01*
X0083750Y0132749D01*
X0083221Y0133278D01*
X0076798Y0133278D01*
X0076368Y0132847D01*
X0076368Y0133875D01*
X0098484Y0133875D01*
X0099875Y0135266D01*
X0099875Y0136375D01*
X0105115Y0136375D01*
X0105115Y0129665D01*
X0104833Y0129383D01*
X0104833Y0123354D01*
X0105755Y0122431D01*
X0109225Y0122431D01*
X0109980Y0123186D01*
X0110735Y0122431D01*
X0116765Y0122431D01*
X0117687Y0123354D01*
X0117687Y0130564D01*
X0117626Y0130625D01*
X0117687Y0130686D01*
X0117687Y0137896D01*
X0116765Y0138819D01*
X0110735Y0138819D01*
X0109865Y0137948D01*
X0109865Y0139734D01*
X0108474Y0141125D01*
X0096516Y0141125D01*
X0095125Y0139734D01*
X0095125Y0138625D01*
X0083854Y0138625D01*
X0084124Y0138895D01*
X0084124Y0146105D01*
X0083617Y0146612D01*
X0083606Y0151988D01*
X0084826Y0151988D01*
X0085748Y0152911D01*
X0085748Y0162089D01*
X0084826Y0163012D01*
X0077615Y0163012D01*
X0076693Y0162089D01*
X0076693Y0152911D01*
X0077615Y0151988D01*
X0078857Y0151988D01*
X0078866Y0147028D01*
X0076779Y0147028D01*
X0076250Y0146499D01*
X0075721Y0147028D01*
X0069298Y0147028D01*
X0068376Y0146105D01*
X0068376Y0138895D01*
X0068875Y0138396D01*
X0068875Y0135236D01*
X0067054Y0135236D01*
X0066132Y0134314D01*
X0066132Y0126710D01*
X0067054Y0125787D01*
X0075446Y0125787D01*
X0075876Y0126218D01*
X0075876Y0125145D01*
X0076798Y0124222D01*
X0077635Y0124222D01*
X0077635Y0115778D01*
X0076798Y0115778D01*
X0075876Y0114855D01*
X0075876Y0107645D01*
X0075935Y0107586D01*
X0075935Y0106164D01*
X0075876Y0106105D01*
X0075876Y0099953D01*
X0075571Y0099648D01*
X0075571Y0079840D01*
X0076493Y0078917D01*
X0077625Y0078917D01*
X0077625Y0076516D01*
X0078177Y0075965D01*
X0067891Y0075965D01*
X0066969Y0075042D01*
X0066969Y0064075D01*
X0026671Y0064075D01*
X0028113Y0065516D01*
X0028937Y0067506D01*
X0028937Y0069659D01*
X0028113Y0071649D01*
X0026590Y0073172D01*
X0024600Y0073996D01*
X0014770Y0073996D01*
X0012780Y0073172D01*
X0012375Y0072767D01*
X0012375Y0084399D01*
X0012780Y0083993D01*
X0014770Y0083169D01*
X0024600Y0083169D01*
X0026590Y0083993D01*
X0028113Y0085516D01*
X0028937Y0087506D01*
X0028937Y0089659D01*
X0028113Y0091649D01*
X0026590Y0093172D01*
X0024600Y0093996D01*
X0023760Y0093996D01*
X0023760Y0096375D01*
X0061518Y0096375D01*
X0061519Y0096374D01*
X0062503Y0096375D01*
X0063484Y0096375D01*
X0063485Y0096376D01*
X0071252Y0096385D01*
X0072234Y0096385D01*
X0072235Y0096386D01*
X0072236Y0096386D01*
X0072931Y0097083D01*
X0073625Y0097776D01*
X0073625Y0097778D01*
X0073626Y0097779D01*
X0073625Y0098763D01*
X0073625Y0099626D01*
X0074855Y0099626D01*
X0075778Y0100548D01*
X0075778Y0106971D01*
X0075249Y0107500D01*
X0075778Y0108029D01*
X0075778Y0114452D01*
X0075455Y0114774D01*
X0076368Y0115686D01*
X0076368Y0123290D01*
X0075446Y0124213D01*
X0067054Y0124213D01*
X0066132Y0123290D01*
X0066132Y0115686D01*
X0067045Y0114774D01*
X0066722Y0114452D01*
X0066722Y0108029D01*
X0067251Y0107500D01*
X0066722Y0106971D01*
X0066722Y0101130D01*
X0062498Y0101125D01*
X0023760Y0101125D01*
X0023760Y0103169D01*
X0024600Y0103169D01*
X0026590Y0103993D01*
X0028113Y0105516D01*
X0028937Y0107506D01*
X0028937Y0109659D01*
X0028113Y0111649D01*
X0026590Y0113172D01*
X0024600Y0113996D01*
X0014770Y0113996D01*
X0012780Y0113172D01*
X0011257Y0111649D01*
X0011000Y0111029D01*
X0010735Y0110764D01*
X0010194Y0109457D01*
X0010194Y0108043D01*
X0010735Y0106736D01*
X0010764Y0106707D01*
X0011257Y0105516D01*
X0012780Y0103993D01*
X0014770Y0103169D01*
X0015610Y0103169D01*
X0015610Y0093996D01*
X0014770Y0093996D01*
X0012780Y0093172D01*
X0011257Y0091649D01*
X0011040Y0091125D01*
X0009875Y0091125D01*
X0009875Y0126208D01*
X0010971Y0126208D01*
X0011257Y0125516D01*
X0012780Y0123993D01*
X0014770Y0123169D01*
X0024600Y0123169D01*
X0026590Y0123993D01*
X0028113Y0125516D01*
X0028399Y0126208D01*
X0039734Y0126208D01*
X0041125Y0127599D01*
X0041125Y0157972D01*
X0046971Y0157972D01*
X0047500Y0158501D01*
X0048029Y0157972D01*
X0054452Y0157972D01*
X0054774Y0158295D01*
X0055174Y0157894D01*
X0062385Y0157894D01*
X0063307Y0158816D01*
X0063307Y0165239D01*
X0062385Y0166161D01*
X0055318Y0166161D01*
X0054452Y0167028D01*
X0048029Y0167028D01*
X0047500Y0166499D01*
X0046971Y0167028D01*
X0040548Y0167028D01*
X0039626Y0166105D01*
X0039626Y0164875D01*
X0037766Y0164875D01*
X0036375Y0163484D01*
X0036375Y0130957D01*
X0028399Y0130957D01*
X0028113Y0131649D01*
X0026590Y0133172D01*
X0024600Y0133996D01*
X0014770Y0133996D01*
X0012780Y0133172D01*
X0011257Y0131649D01*
X0011000Y0131029D01*
X0010929Y0130957D01*
X0006516Y0130957D01*
X0005125Y0129566D01*
X0005125Y0035266D01*
X0006516Y0033875D01*
X0040125Y0033875D01*
X0040125Y0007766D01*
X0041516Y0006375D01*
X0045876Y0006375D01*
X0045876Y0005145D01*
X0045876Y0005501D02*
X0000371Y0005501D01*
X0000182Y0006287D02*
X0045876Y0006287D01*
X0040818Y0007073D02*
X0000063Y0007073D01*
X0000001Y0007859D02*
X0040125Y0007859D01*
X0040125Y0008645D02*
X0000000Y0008645D01*
X0000000Y0009431D02*
X0040125Y0009431D01*
X0040125Y0010217D02*
X0000000Y0010217D01*
X0000000Y0011003D02*
X0040125Y0011003D01*
X0040125Y0011789D02*
X0000000Y0011789D01*
X0000000Y0012575D02*
X0040125Y0012575D01*
X0040125Y0013361D02*
X0000000Y0013361D01*
X0000000Y0014146D02*
X0040125Y0014146D01*
X0040125Y0014932D02*
X0000000Y0014932D01*
X0000000Y0015718D02*
X0040125Y0015718D01*
X0040125Y0016504D02*
X0000000Y0016504D01*
X0000000Y0017290D02*
X0040125Y0017290D01*
X0040125Y0018076D02*
X0000000Y0018076D01*
X0000000Y0018862D02*
X0040125Y0018862D01*
X0040125Y0019648D02*
X0000000Y0019648D01*
X0000000Y0020434D02*
X0040125Y0020434D01*
X0040125Y0021220D02*
X0000000Y0021220D01*
X0000000Y0022006D02*
X0040125Y0022006D01*
X0040125Y0022791D02*
X0000000Y0022791D01*
X0000000Y0023577D02*
X0040125Y0023577D01*
X0040125Y0024363D02*
X0000000Y0024363D01*
X0000000Y0025149D02*
X0040125Y0025149D01*
X0040125Y0025935D02*
X0000000Y0025935D01*
X0000000Y0026721D02*
X0040125Y0026721D01*
X0040125Y0027507D02*
X0000000Y0027507D01*
X0000000Y0028293D02*
X0040125Y0028293D01*
X0040125Y0029079D02*
X0000000Y0029079D01*
X0000000Y0029865D02*
X0040125Y0029865D01*
X0040125Y0030651D02*
X0000000Y0030651D01*
X0000000Y0031437D02*
X0040125Y0031437D01*
X0040125Y0032222D02*
X0000000Y0032222D01*
X0000000Y0033008D02*
X0040125Y0033008D01*
X0040125Y0033794D02*
X0000000Y0033794D01*
X0000000Y0034580D02*
X0005811Y0034580D01*
X0005125Y0035366D02*
X0000000Y0035366D01*
X0000000Y0036152D02*
X0005125Y0036152D01*
X0005125Y0036938D02*
X0000000Y0036938D01*
X0000000Y0037724D02*
X0005125Y0037724D01*
X0005125Y0038510D02*
X0000000Y0038510D01*
X0000000Y0039296D02*
X0005125Y0039296D01*
X0005125Y0040082D02*
X0000000Y0040082D01*
X0000000Y0040867D02*
X0005125Y0040867D01*
X0005125Y0041653D02*
X0000000Y0041653D01*
X0000000Y0042439D02*
X0005125Y0042439D01*
X0005125Y0043225D02*
X0000000Y0043225D01*
X0000000Y0044011D02*
X0005125Y0044011D01*
X0005125Y0044797D02*
X0000000Y0044797D01*
X0000000Y0045583D02*
X0005125Y0045583D01*
X0005125Y0046369D02*
X0000000Y0046369D01*
X0000000Y0047155D02*
X0005125Y0047155D01*
X0005125Y0047941D02*
X0000000Y0047941D01*
X0000000Y0048727D02*
X0005125Y0048727D01*
X0005125Y0049513D02*
X0000000Y0049513D01*
X0000000Y0050298D02*
X0005125Y0050298D01*
X0005125Y0051084D02*
X0000000Y0051084D01*
X0000000Y0051870D02*
X0005125Y0051870D01*
X0005125Y0052656D02*
X0000000Y0052656D01*
X0000000Y0053442D02*
X0005125Y0053442D01*
X0005125Y0054228D02*
X0000000Y0054228D01*
X0000000Y0055014D02*
X0005125Y0055014D01*
X0005125Y0055800D02*
X0000000Y0055800D01*
X0000000Y0056586D02*
X0005125Y0056586D01*
X0005125Y0057372D02*
X0000000Y0057372D01*
X0000000Y0058158D02*
X0005125Y0058158D01*
X0005125Y0058943D02*
X0000000Y0058943D01*
X0000000Y0059729D02*
X0005125Y0059729D01*
X0005125Y0060515D02*
X0000000Y0060515D01*
X0000000Y0061301D02*
X0005125Y0061301D01*
X0005125Y0062087D02*
X0000000Y0062087D01*
X0000000Y0062873D02*
X0005125Y0062873D01*
X0005125Y0063659D02*
X0000000Y0063659D01*
X0000000Y0064445D02*
X0005125Y0064445D01*
X0005125Y0065231D02*
X0000000Y0065231D01*
X0000000Y0066017D02*
X0005125Y0066017D01*
X0005125Y0066803D02*
X0000000Y0066803D01*
X0000000Y0067589D02*
X0005125Y0067589D01*
X0005125Y0068374D02*
X0000000Y0068374D01*
X0000000Y0069160D02*
X0005125Y0069160D01*
X0005125Y0069946D02*
X0000000Y0069946D01*
X0000000Y0070732D02*
X0005125Y0070732D01*
X0005125Y0071518D02*
X0000000Y0071518D01*
X0000000Y0072304D02*
X0005125Y0072304D01*
X0005125Y0073090D02*
X0000000Y0073090D01*
X0000000Y0073876D02*
X0005125Y0073876D01*
X0005125Y0074662D02*
X0000000Y0074662D01*
X0000000Y0075448D02*
X0005125Y0075448D01*
X0005125Y0076234D02*
X0000000Y0076234D01*
X0000000Y0077019D02*
X0005125Y0077019D01*
X0005125Y0077805D02*
X0000000Y0077805D01*
X0000000Y0078591D02*
X0005125Y0078591D01*
X0005125Y0079377D02*
X0000000Y0079377D01*
X0000000Y0080163D02*
X0005125Y0080163D01*
X0005125Y0080949D02*
X0000000Y0080949D01*
X0000000Y0081735D02*
X0005125Y0081735D01*
X0005125Y0082521D02*
X0000000Y0082521D01*
X0000000Y0083307D02*
X0005125Y0083307D01*
X0005125Y0084093D02*
X0000000Y0084093D01*
X0000000Y0084879D02*
X0005125Y0084879D01*
X0005125Y0085665D02*
X0000000Y0085665D01*
X0000000Y0086450D02*
X0005125Y0086450D01*
X0005125Y0087236D02*
X0000000Y0087236D01*
X0000000Y0088022D02*
X0005125Y0088022D01*
X0005125Y0088808D02*
X0000000Y0088808D01*
X0000000Y0089594D02*
X0005125Y0089594D01*
X0005125Y0090380D02*
X0000000Y0090380D01*
X0000000Y0091166D02*
X0005125Y0091166D01*
X0005125Y0091952D02*
X0000000Y0091952D01*
X0000000Y0092738D02*
X0005125Y0092738D01*
X0005125Y0093524D02*
X0000000Y0093524D01*
X0000000Y0094310D02*
X0005125Y0094310D01*
X0005125Y0095095D02*
X0000000Y0095095D01*
X0000000Y0095881D02*
X0005125Y0095881D01*
X0005125Y0096667D02*
X0000000Y0096667D01*
X0000000Y0097453D02*
X0005125Y0097453D01*
X0005125Y0098239D02*
X0000000Y0098239D01*
X0000000Y0099025D02*
X0005125Y0099025D01*
X0005125Y0099811D02*
X0000000Y0099811D01*
X0000000Y0100597D02*
X0005125Y0100597D01*
X0005125Y0101383D02*
X0000000Y0101383D01*
X0000000Y0102169D02*
X0005125Y0102169D01*
X0005125Y0102955D02*
X0000000Y0102955D01*
X0000000Y0103741D02*
X0005125Y0103741D01*
X0005125Y0104526D02*
X0000000Y0104526D01*
X0000000Y0105312D02*
X0005125Y0105312D01*
X0005125Y0106098D02*
X0000000Y0106098D01*
X0000000Y0106884D02*
X0005125Y0106884D01*
X0005125Y0107670D02*
X0000000Y0107670D01*
X0000000Y0108456D02*
X0005125Y0108456D01*
X0005125Y0109242D02*
X0000000Y0109242D01*
X0000000Y0110028D02*
X0005125Y0110028D01*
X0005125Y0110814D02*
X0000000Y0110814D01*
X0000000Y0111600D02*
X0005125Y0111600D01*
X0005125Y0112386D02*
X0000000Y0112386D01*
X0000000Y0113171D02*
X0005125Y0113171D01*
X0005125Y0113957D02*
X0000000Y0113957D01*
X0000000Y0114743D02*
X0005125Y0114743D01*
X0005125Y0115529D02*
X0000000Y0115529D01*
X0000000Y0116315D02*
X0005125Y0116315D01*
X0005125Y0117101D02*
X0000000Y0117101D01*
X0000000Y0117887D02*
X0005125Y0117887D01*
X0005125Y0118673D02*
X0000000Y0118673D01*
X0000000Y0119459D02*
X0005125Y0119459D01*
X0005125Y0120245D02*
X0000000Y0120245D01*
X0000000Y0121031D02*
X0005125Y0121031D01*
X0005125Y0121816D02*
X0000000Y0121816D01*
X0000000Y0122602D02*
X0005125Y0122602D01*
X0005125Y0123388D02*
X0000000Y0123388D01*
X0000000Y0124174D02*
X0005125Y0124174D01*
X0005125Y0124960D02*
X0000000Y0124960D01*
X0000000Y0125746D02*
X0005125Y0125746D01*
X0005125Y0126532D02*
X0000000Y0126532D01*
X0000000Y0127318D02*
X0005125Y0127318D01*
X0005125Y0128104D02*
X0000000Y0128104D01*
X0000000Y0128890D02*
X0005125Y0128890D01*
X0005234Y0129676D02*
X0000000Y0129676D01*
X0000000Y0130462D02*
X0006020Y0130462D01*
X0009875Y0125746D02*
X0011162Y0125746D01*
X0011813Y0124960D02*
X0009875Y0124960D01*
X0009875Y0124174D02*
X0012599Y0124174D01*
X0014241Y0123388D02*
X0009875Y0123388D01*
X0009875Y0122602D02*
X0066132Y0122602D01*
X0066132Y0121816D02*
X0009875Y0121816D01*
X0009875Y0121031D02*
X0066132Y0121031D01*
X0066132Y0120245D02*
X0009875Y0120245D01*
X0009875Y0119459D02*
X0066132Y0119459D01*
X0066132Y0118673D02*
X0009875Y0118673D01*
X0009875Y0117887D02*
X0066132Y0117887D01*
X0066132Y0117101D02*
X0009875Y0117101D01*
X0009875Y0116315D02*
X0066132Y0116315D01*
X0066289Y0115529D02*
X0009875Y0115529D01*
X0009875Y0114743D02*
X0067014Y0114743D01*
X0066722Y0113957D02*
X0024694Y0113957D01*
X0026591Y0113171D02*
X0066722Y0113171D01*
X0066722Y0112386D02*
X0027376Y0112386D01*
X0028133Y0111600D02*
X0066722Y0111600D01*
X0066722Y0110814D02*
X0028459Y0110814D01*
X0028784Y0110028D02*
X0066722Y0110028D01*
X0066722Y0109242D02*
X0028937Y0109242D01*
X0028937Y0108456D02*
X0066722Y0108456D01*
X0067081Y0107670D02*
X0028937Y0107670D01*
X0028679Y0106884D02*
X0066722Y0106884D01*
X0066722Y0106098D02*
X0028354Y0106098D01*
X0027909Y0105312D02*
X0066722Y0105312D01*
X0066722Y0104526D02*
X0027123Y0104526D01*
X0025979Y0103741D02*
X0066722Y0103741D01*
X0066722Y0102955D02*
X0023760Y0102955D01*
X0023760Y0102169D02*
X0066722Y0102169D01*
X0066722Y0101383D02*
X0023760Y0101383D01*
X0023760Y0095881D02*
X0075571Y0095881D01*
X0075571Y0095095D02*
X0023760Y0095095D01*
X0023760Y0094310D02*
X0075571Y0094310D01*
X0075571Y0093524D02*
X0025741Y0093524D01*
X0027024Y0092738D02*
X0075571Y0092738D01*
X0075571Y0091952D02*
X0027810Y0091952D01*
X0028313Y0091166D02*
X0075571Y0091166D01*
X0075571Y0090380D02*
X0028639Y0090380D01*
X0028937Y0089594D02*
X0075571Y0089594D01*
X0075571Y0088808D02*
X0028937Y0088808D01*
X0028937Y0088022D02*
X0075571Y0088022D01*
X0075571Y0087236D02*
X0028825Y0087236D01*
X0028500Y0086450D02*
X0075571Y0086450D01*
X0075571Y0085665D02*
X0028174Y0085665D01*
X0027475Y0084879D02*
X0075571Y0084879D01*
X0075571Y0084093D02*
X0026689Y0084093D01*
X0024932Y0083307D02*
X0075571Y0083307D01*
X0075571Y0082521D02*
X0012375Y0082521D01*
X0012375Y0083307D02*
X0014438Y0083307D01*
X0012681Y0084093D02*
X0012375Y0084093D01*
X0012375Y0081735D02*
X0075571Y0081735D01*
X0075571Y0080949D02*
X0012375Y0080949D01*
X0012375Y0080163D02*
X0075571Y0080163D01*
X0076033Y0079377D02*
X0012375Y0079377D01*
X0012375Y0078591D02*
X0077625Y0078591D01*
X0077625Y0077805D02*
X0012375Y0077805D01*
X0012375Y0077019D02*
X0077625Y0077019D01*
X0077908Y0076234D02*
X0012375Y0076234D01*
X0012375Y0075448D02*
X0067374Y0075448D01*
X0066969Y0074662D02*
X0012375Y0074662D01*
X0012375Y0073876D02*
X0014479Y0073876D01*
X0012698Y0073090D02*
X0012375Y0073090D01*
X0012375Y0064399D02*
X0012780Y0063993D01*
X0014770Y0063169D01*
X0015610Y0063169D01*
X0015610Y0059189D01*
X0016231Y0057692D01*
X0017377Y0056546D01*
X0018874Y0055925D01*
X0066969Y0055925D01*
X0066969Y0033625D01*
X0050981Y0033625D01*
X0050979Y0033627D01*
X0049999Y0033625D01*
X0049016Y0033625D01*
X0049014Y0033623D01*
X0049012Y0033623D01*
X0048319Y0032928D01*
X0047625Y0032234D01*
X0047625Y0032231D01*
X0047623Y0032229D01*
X0047625Y0031248D01*
X0047625Y0030778D01*
X0047375Y0030778D01*
X0047375Y0039734D01*
X0045984Y0041125D01*
X0012375Y0041125D01*
X0012375Y0064399D01*
X0012375Y0063659D02*
X0013588Y0063659D01*
X0012375Y0062873D02*
X0015610Y0062873D01*
X0015610Y0062087D02*
X0012375Y0062087D01*
X0012375Y0061301D02*
X0015610Y0061301D01*
X0015610Y0060515D02*
X0012375Y0060515D01*
X0012375Y0059729D02*
X0015610Y0059729D01*
X0015712Y0058943D02*
X0012375Y0058943D01*
X0012375Y0058158D02*
X0016038Y0058158D01*
X0016551Y0057372D02*
X0012375Y0057372D01*
X0012375Y0056586D02*
X0017337Y0056586D01*
X0012375Y0055800D02*
X0066969Y0055800D01*
X0066969Y0055014D02*
X0012375Y0055014D01*
X0012375Y0054228D02*
X0066969Y0054228D01*
X0066969Y0053442D02*
X0012375Y0053442D01*
X0012375Y0052656D02*
X0066969Y0052656D01*
X0066969Y0051870D02*
X0012375Y0051870D01*
X0012375Y0051084D02*
X0066969Y0051084D01*
X0066969Y0050298D02*
X0012375Y0050298D01*
X0012375Y0049513D02*
X0066969Y0049513D01*
X0066969Y0048727D02*
X0012375Y0048727D01*
X0012375Y0047941D02*
X0066969Y0047941D01*
X0066969Y0047155D02*
X0012375Y0047155D01*
X0012375Y0046369D02*
X0066969Y0046369D01*
X0066969Y0045583D02*
X0012375Y0045583D01*
X0012375Y0044797D02*
X0066969Y0044797D01*
X0066969Y0044011D02*
X0012375Y0044011D01*
X0012375Y0043225D02*
X0066969Y0043225D01*
X0066969Y0042439D02*
X0012375Y0042439D01*
X0012375Y0041653D02*
X0066969Y0041653D01*
X0066969Y0040867D02*
X0046241Y0040867D01*
X0047027Y0040082D02*
X0066969Y0040082D01*
X0066969Y0039296D02*
X0047375Y0039296D01*
X0047375Y0038510D02*
X0066969Y0038510D01*
X0066969Y0037724D02*
X0047375Y0037724D01*
X0047375Y0036938D02*
X0066969Y0036938D01*
X0066969Y0036152D02*
X0047375Y0036152D01*
X0047375Y0035366D02*
X0066969Y0035366D01*
X0066969Y0034580D02*
X0047375Y0034580D01*
X0047375Y0033794D02*
X0066969Y0033794D01*
X0071004Y0022006D02*
X0071496Y0022006D01*
X0071529Y0021220D02*
X0118110Y0021220D01*
X0118110Y0022006D02*
X0078485Y0022006D01*
X0079124Y0022791D02*
X0118110Y0022791D01*
X0118110Y0023577D02*
X0079124Y0023577D01*
X0082723Y0024363D02*
X0118110Y0024363D01*
X0118110Y0025149D02*
X0083508Y0025149D01*
X0083626Y0025935D02*
X0118110Y0025935D01*
X0118110Y0026721D02*
X0083625Y0026721D01*
X0083622Y0027507D02*
X0118110Y0027507D01*
X0118110Y0028293D02*
X0115401Y0028293D01*
X0116125Y0029079D02*
X0118110Y0029079D01*
X0118110Y0029865D02*
X0116125Y0029865D01*
X0116125Y0030651D02*
X0118110Y0030651D01*
X0118110Y0031437D02*
X0116125Y0031437D01*
X0116125Y0032222D02*
X0118110Y0032222D01*
X0118110Y0033008D02*
X0116125Y0033008D01*
X0116125Y0033794D02*
X0118110Y0033794D01*
X0118110Y0034580D02*
X0116125Y0034580D01*
X0116125Y0035366D02*
X0118110Y0035366D01*
X0118110Y0036152D02*
X0116125Y0036152D01*
X0116125Y0036938D02*
X0118110Y0036938D01*
X0118110Y0037724D02*
X0116125Y0037724D01*
X0116125Y0038510D02*
X0118110Y0038510D01*
X0118110Y0039296D02*
X0116125Y0039296D01*
X0116125Y0040082D02*
X0118110Y0040082D01*
X0118110Y0040867D02*
X0116125Y0040867D01*
X0116125Y0041653D02*
X0118110Y0041653D01*
X0118110Y0042439D02*
X0116125Y0042439D01*
X0116125Y0043225D02*
X0118110Y0043225D01*
X0118110Y0044011D02*
X0116125Y0044011D01*
X0116125Y0044797D02*
X0118110Y0044797D01*
X0118110Y0045583D02*
X0116125Y0045583D01*
X0116125Y0046369D02*
X0118110Y0046369D01*
X0118110Y0047155D02*
X0116125Y0047155D01*
X0116125Y0047941D02*
X0118110Y0047941D01*
X0118110Y0048727D02*
X0116125Y0048727D01*
X0116125Y0049513D02*
X0118110Y0049513D01*
X0118110Y0050298D02*
X0116125Y0050298D01*
X0116125Y0051084D02*
X0118110Y0051084D01*
X0118110Y0051870D02*
X0116125Y0051870D01*
X0116125Y0052656D02*
X0118110Y0052656D01*
X0118110Y0053442D02*
X0116125Y0053442D01*
X0116125Y0054228D02*
X0118110Y0054228D01*
X0118110Y0055014D02*
X0116125Y0055014D01*
X0116125Y0055800D02*
X0118110Y0055800D01*
X0118110Y0056586D02*
X0116125Y0056586D01*
X0116125Y0057372D02*
X0118110Y0057372D01*
X0118110Y0058158D02*
X0116125Y0058158D01*
X0116125Y0058943D02*
X0118110Y0058943D01*
X0118110Y0059729D02*
X0116125Y0059729D01*
X0116125Y0060515D02*
X0118110Y0060515D01*
X0118110Y0061301D02*
X0116125Y0061301D01*
X0116125Y0062087D02*
X0118110Y0062087D01*
X0118110Y0062873D02*
X0116125Y0062873D01*
X0116125Y0063659D02*
X0118110Y0063659D01*
X0118110Y0064445D02*
X0116125Y0064445D01*
X0116125Y0065231D02*
X0118110Y0065231D01*
X0118110Y0066017D02*
X0116125Y0066017D01*
X0116125Y0066803D02*
X0118110Y0066803D01*
X0118110Y0067589D02*
X0116125Y0067589D01*
X0116125Y0068374D02*
X0118110Y0068374D01*
X0118110Y0069160D02*
X0116125Y0069160D01*
X0116125Y0069946D02*
X0118110Y0069946D01*
X0118110Y0070732D02*
X0116125Y0070732D01*
X0116125Y0071518D02*
X0118110Y0071518D01*
X0118110Y0072304D02*
X0116125Y0072304D01*
X0116125Y0073090D02*
X0118110Y0073090D01*
X0118110Y0073876D02*
X0116125Y0073876D01*
X0116125Y0074662D02*
X0118110Y0074662D01*
X0118110Y0075448D02*
X0116125Y0075448D01*
X0116125Y0076234D02*
X0118110Y0076234D01*
X0118110Y0077019D02*
X0116125Y0077019D01*
X0116125Y0077805D02*
X0118110Y0077805D01*
X0118110Y0078591D02*
X0116017Y0078591D01*
X0115231Y0079377D02*
X0118110Y0079377D01*
X0118110Y0080163D02*
X0104429Y0080163D01*
X0104429Y0080949D02*
X0118110Y0080949D01*
X0118110Y0081735D02*
X0104429Y0081735D01*
X0104429Y0082521D02*
X0118110Y0082521D01*
X0118110Y0083307D02*
X0104429Y0083307D01*
X0104429Y0084093D02*
X0118110Y0084093D01*
X0118110Y0084879D02*
X0104429Y0084879D01*
X0104429Y0085665D02*
X0118110Y0085665D01*
X0118110Y0086450D02*
X0104429Y0086450D01*
X0104429Y0087236D02*
X0118110Y0087236D01*
X0118110Y0088022D02*
X0104429Y0088022D01*
X0104429Y0088808D02*
X0118110Y0088808D01*
X0118110Y0089594D02*
X0104429Y0089594D01*
X0104429Y0090380D02*
X0118110Y0090380D01*
X0118110Y0091166D02*
X0104429Y0091166D01*
X0104429Y0091952D02*
X0118110Y0091952D01*
X0118110Y0092738D02*
X0104429Y0092738D01*
X0104429Y0093524D02*
X0118110Y0093524D01*
X0118110Y0094310D02*
X0104429Y0094310D01*
X0104429Y0095095D02*
X0118110Y0095095D01*
X0118110Y0095881D02*
X0104429Y0095881D01*
X0104429Y0096667D02*
X0118110Y0096667D01*
X0118110Y0097453D02*
X0104429Y0097453D01*
X0104429Y0098239D02*
X0118110Y0098239D01*
X0118110Y0099025D02*
X0104429Y0099025D01*
X0104528Y0099811D02*
X0118110Y0099811D01*
X0118110Y0100597D02*
X0104528Y0100597D01*
X0104528Y0101383D02*
X0118110Y0101383D01*
X0118110Y0102169D02*
X0104528Y0102169D01*
X0104528Y0102955D02*
X0118110Y0102955D01*
X0118110Y0103741D02*
X0104528Y0103741D01*
X0104528Y0104526D02*
X0118110Y0104526D01*
X0118110Y0105312D02*
X0104528Y0105312D01*
X0104151Y0106098D02*
X0118110Y0106098D01*
X0118110Y0106884D02*
X0104528Y0106884D01*
X0104528Y0107670D02*
X0118110Y0107670D01*
X0118110Y0108456D02*
X0109735Y0108456D01*
X0110517Y0109242D02*
X0118110Y0109242D01*
X0118110Y0110028D02*
X0110843Y0110028D01*
X0111056Y0110814D02*
X0118110Y0110814D01*
X0118110Y0111600D02*
X0117350Y0111600D01*
X0117687Y0112386D02*
X0118110Y0112386D01*
X0118110Y0113171D02*
X0117687Y0113171D01*
X0117687Y0113957D02*
X0118110Y0113957D01*
X0118110Y0114743D02*
X0117687Y0114743D01*
X0117687Y0115529D02*
X0118110Y0115529D01*
X0118110Y0116315D02*
X0117687Y0116315D01*
X0117687Y0117101D02*
X0118110Y0117101D01*
X0118110Y0117887D02*
X0117687Y0117887D01*
X0117687Y0118673D02*
X0118110Y0118673D01*
X0118110Y0119459D02*
X0117375Y0119459D01*
X0118110Y0120245D02*
X0102385Y0120245D01*
X0102385Y0119459D02*
X0105145Y0119459D01*
X0104833Y0118673D02*
X0102667Y0118673D01*
X0102667Y0117887D02*
X0104833Y0117887D01*
X0104833Y0117101D02*
X0102667Y0117101D01*
X0102667Y0116315D02*
X0104833Y0116315D01*
X0104833Y0115529D02*
X0102667Y0115529D01*
X0102667Y0114743D02*
X0104833Y0114743D01*
X0104833Y0113957D02*
X0103772Y0113957D01*
X0104528Y0108456D02*
X0105265Y0108456D01*
X0097352Y0114124D02*
X0097352Y0117625D01*
X0096624Y0117625D01*
X0096624Y0116395D01*
X0095702Y0115472D01*
X0089279Y0115472D01*
X0088750Y0116001D01*
X0088221Y0115472D01*
X0083526Y0115472D01*
X0084144Y0114855D01*
X0084144Y0107645D01*
X0084085Y0107586D01*
X0084085Y0106164D01*
X0084144Y0106105D01*
X0084144Y0099934D01*
X0084429Y0099648D01*
X0084429Y0079875D01*
X0095571Y0079875D01*
X0095571Y0099200D01*
X0095472Y0099298D01*
X0095472Y0105721D01*
X0096001Y0106250D01*
X0095472Y0106779D01*
X0095472Y0113202D01*
X0096395Y0114124D01*
X0097352Y0114124D01*
X0097352Y0114743D02*
X0084144Y0114743D01*
X0084144Y0113957D02*
X0096228Y0113957D01*
X0095472Y0113171D02*
X0084144Y0113171D01*
X0084144Y0112386D02*
X0095472Y0112386D01*
X0095472Y0111600D02*
X0084144Y0111600D01*
X0084144Y0110814D02*
X0095472Y0110814D01*
X0095472Y0110028D02*
X0084144Y0110028D01*
X0084144Y0109242D02*
X0095472Y0109242D01*
X0095472Y0108456D02*
X0084144Y0108456D01*
X0084144Y0107670D02*
X0095472Y0107670D01*
X0095472Y0106884D02*
X0084085Y0106884D01*
X0084144Y0106098D02*
X0095849Y0106098D01*
X0095472Y0105312D02*
X0084144Y0105312D01*
X0084144Y0104526D02*
X0095472Y0104526D01*
X0095472Y0103741D02*
X0084144Y0103741D01*
X0084144Y0102955D02*
X0095472Y0102955D01*
X0095472Y0102169D02*
X0084144Y0102169D01*
X0084144Y0101383D02*
X0095472Y0101383D01*
X0095472Y0100597D02*
X0084144Y0100597D01*
X0084267Y0099811D02*
X0095472Y0099811D01*
X0095571Y0099025D02*
X0084429Y0099025D01*
X0084429Y0098239D02*
X0095571Y0098239D01*
X0095571Y0097453D02*
X0084429Y0097453D01*
X0084429Y0096667D02*
X0095571Y0096667D01*
X0095571Y0095881D02*
X0084429Y0095881D01*
X0084429Y0095095D02*
X0095571Y0095095D01*
X0095571Y0094310D02*
X0084429Y0094310D01*
X0084429Y0093524D02*
X0095571Y0093524D01*
X0095571Y0092738D02*
X0084429Y0092738D01*
X0084429Y0091952D02*
X0095571Y0091952D01*
X0095571Y0091166D02*
X0084429Y0091166D01*
X0084429Y0090380D02*
X0095571Y0090380D01*
X0095571Y0089594D02*
X0084429Y0089594D01*
X0084429Y0088808D02*
X0095571Y0088808D01*
X0095571Y0088022D02*
X0084429Y0088022D01*
X0084429Y0087236D02*
X0095571Y0087236D01*
X0095571Y0086450D02*
X0084429Y0086450D01*
X0084429Y0085665D02*
X0095571Y0085665D01*
X0095571Y0084879D02*
X0084429Y0084879D01*
X0084429Y0084093D02*
X0095571Y0084093D01*
X0095571Y0083307D02*
X0084429Y0083307D01*
X0084429Y0082521D02*
X0095571Y0082521D01*
X0095571Y0081735D02*
X0084429Y0081735D01*
X0084429Y0080949D02*
X0095571Y0080949D01*
X0095571Y0080163D02*
X0084429Y0080163D01*
X0075571Y0096667D02*
X0072517Y0096667D01*
X0073302Y0097453D02*
X0075571Y0097453D01*
X0075571Y0098239D02*
X0073625Y0098239D01*
X0073625Y0099025D02*
X0075571Y0099025D01*
X0075733Y0099811D02*
X0075040Y0099811D01*
X0075778Y0100597D02*
X0075876Y0100597D01*
X0075876Y0101383D02*
X0075778Y0101383D01*
X0075778Y0102169D02*
X0075876Y0102169D01*
X0075876Y0102955D02*
X0075778Y0102955D01*
X0075778Y0103741D02*
X0075876Y0103741D01*
X0075876Y0104526D02*
X0075778Y0104526D01*
X0075778Y0105312D02*
X0075876Y0105312D01*
X0075876Y0106098D02*
X0075778Y0106098D01*
X0075778Y0106884D02*
X0075935Y0106884D01*
X0075876Y0107670D02*
X0075419Y0107670D01*
X0075778Y0108456D02*
X0075876Y0108456D01*
X0075876Y0109242D02*
X0075778Y0109242D01*
X0075778Y0110028D02*
X0075876Y0110028D01*
X0075876Y0110814D02*
X0075778Y0110814D01*
X0075778Y0111600D02*
X0075876Y0111600D01*
X0075876Y0112386D02*
X0075778Y0112386D01*
X0075778Y0113171D02*
X0075876Y0113171D01*
X0075876Y0113957D02*
X0075778Y0113957D01*
X0075876Y0114743D02*
X0075486Y0114743D01*
X0076211Y0115529D02*
X0076550Y0115529D01*
X0076368Y0116315D02*
X0077635Y0116315D01*
X0077635Y0117101D02*
X0076368Y0117101D01*
X0076368Y0117887D02*
X0077635Y0117887D01*
X0077635Y0118673D02*
X0076368Y0118673D01*
X0076368Y0119459D02*
X0077635Y0119459D01*
X0077635Y0120245D02*
X0076368Y0120245D01*
X0076368Y0121031D02*
X0077635Y0121031D01*
X0077635Y0121816D02*
X0076368Y0121816D01*
X0076368Y0122602D02*
X0077635Y0122602D01*
X0077635Y0123388D02*
X0076270Y0123388D01*
X0075484Y0124174D02*
X0077635Y0124174D01*
X0076061Y0124960D02*
X0027557Y0124960D01*
X0028208Y0125746D02*
X0075876Y0125746D01*
X0076368Y0133605D02*
X0105115Y0133605D01*
X0105115Y0132819D02*
X0091160Y0132819D01*
X0091624Y0132033D02*
X0105115Y0132033D01*
X0105115Y0131247D02*
X0091624Y0131247D01*
X0091624Y0125746D02*
X0097352Y0125746D01*
X0097352Y0124960D02*
X0091439Y0124960D01*
X0096055Y0124174D02*
X0097352Y0124174D01*
X0097352Y0123388D02*
X0096624Y0123388D01*
X0096624Y0122602D02*
X0098104Y0122602D01*
X0101552Y0121816D02*
X0118110Y0121816D01*
X0118110Y0121031D02*
X0102338Y0121031D01*
X0101916Y0122602D02*
X0105584Y0122602D01*
X0104833Y0123388D02*
X0102667Y0123388D01*
X0102667Y0124174D02*
X0104833Y0124174D01*
X0104833Y0124960D02*
X0102667Y0124960D01*
X0102667Y0125746D02*
X0104833Y0125746D01*
X0104833Y0126532D02*
X0102667Y0126532D01*
X0102667Y0127318D02*
X0104833Y0127318D01*
X0104833Y0128104D02*
X0102667Y0128104D01*
X0102667Y0128890D02*
X0104833Y0128890D01*
X0105115Y0129676D02*
X0102385Y0129676D01*
X0101657Y0130462D02*
X0105115Y0130462D01*
X0105115Y0134391D02*
X0099000Y0134391D01*
X0099785Y0135177D02*
X0105115Y0135177D01*
X0105115Y0135963D02*
X0099875Y0135963D01*
X0096070Y0140678D02*
X0084124Y0140678D01*
X0084124Y0139892D02*
X0095284Y0139892D01*
X0095125Y0139107D02*
X0084124Y0139107D01*
X0084124Y0141464D02*
X0118110Y0141464D01*
X0118110Y0140678D02*
X0108920Y0140678D01*
X0109706Y0139892D02*
X0118110Y0139892D01*
X0118110Y0139107D02*
X0109865Y0139107D01*
X0109865Y0138321D02*
X0110237Y0138321D01*
X0117263Y0138321D02*
X0118110Y0138321D01*
X0118110Y0137535D02*
X0117687Y0137535D01*
X0117687Y0136749D02*
X0118110Y0136749D01*
X0118110Y0135963D02*
X0117687Y0135963D01*
X0117687Y0135177D02*
X0118110Y0135177D01*
X0118110Y0134391D02*
X0117687Y0134391D01*
X0117687Y0133605D02*
X0118110Y0133605D01*
X0118110Y0132819D02*
X0117687Y0132819D01*
X0117687Y0132033D02*
X0118110Y0132033D01*
X0118110Y0131247D02*
X0117687Y0131247D01*
X0117687Y0130462D02*
X0118110Y0130462D01*
X0118110Y0129676D02*
X0117687Y0129676D01*
X0117687Y0128890D02*
X0118110Y0128890D01*
X0118110Y0128104D02*
X0117687Y0128104D01*
X0117687Y0127318D02*
X0118110Y0127318D01*
X0118110Y0126532D02*
X0117687Y0126532D01*
X0117687Y0125746D02*
X0118110Y0125746D01*
X0118110Y0124960D02*
X0117687Y0124960D01*
X0117687Y0124174D02*
X0118110Y0124174D01*
X0118110Y0123388D02*
X0117687Y0123388D01*
X0118110Y0122602D02*
X0116936Y0122602D01*
X0110564Y0122602D02*
X0109396Y0122602D01*
X0109835Y0119459D02*
X0110125Y0119459D01*
X0097352Y0117101D02*
X0096624Y0117101D01*
X0096544Y0116315D02*
X0097352Y0116315D01*
X0097352Y0115529D02*
X0095758Y0115529D01*
X0089222Y0115529D02*
X0088278Y0115529D01*
X0083821Y0132819D02*
X0083679Y0132819D01*
X0084124Y0142250D02*
X0118110Y0142250D01*
X0118110Y0143036D02*
X0084124Y0143036D01*
X0084124Y0143822D02*
X0118110Y0143822D01*
X0118110Y0144608D02*
X0084124Y0144608D01*
X0084124Y0145394D02*
X0118110Y0145394D01*
X0118110Y0146180D02*
X0084049Y0146180D01*
X0083616Y0146966D02*
X0118110Y0146966D01*
X0118110Y0147752D02*
X0083614Y0147752D01*
X0083613Y0148538D02*
X0118110Y0148538D01*
X0118110Y0149323D02*
X0083611Y0149323D01*
X0083610Y0150109D02*
X0118110Y0150109D01*
X0118110Y0150895D02*
X0083608Y0150895D01*
X0083607Y0151681D02*
X0118110Y0151681D01*
X0118110Y0152467D02*
X0085304Y0152467D01*
X0085748Y0153253D02*
X0118110Y0153253D01*
X0118110Y0154039D02*
X0085748Y0154039D01*
X0085748Y0154825D02*
X0118110Y0154825D01*
X0118110Y0155611D02*
X0085748Y0155611D01*
X0085748Y0156397D02*
X0118110Y0156397D01*
X0118110Y0157183D02*
X0085748Y0157183D01*
X0085748Y0157968D02*
X0118110Y0157968D01*
X0118110Y0158754D02*
X0085748Y0158754D01*
X0085748Y0159540D02*
X0118110Y0159540D01*
X0118110Y0160326D02*
X0085748Y0160326D01*
X0085748Y0161112D02*
X0118110Y0161112D01*
X0118110Y0161898D02*
X0085748Y0161898D01*
X0085153Y0162684D02*
X0118110Y0162684D01*
X0118110Y0163470D02*
X0063307Y0163470D01*
X0063307Y0164256D02*
X0118110Y0164256D01*
X0118110Y0165042D02*
X0063307Y0165042D01*
X0062718Y0165828D02*
X0118110Y0165828D01*
X0118110Y0166614D02*
X0054866Y0166614D01*
X0055100Y0157968D02*
X0041125Y0157968D01*
X0041125Y0157183D02*
X0076693Y0157183D01*
X0076693Y0157968D02*
X0062459Y0157968D01*
X0062385Y0157106D02*
X0063307Y0156184D01*
X0063307Y0149761D01*
X0062385Y0148839D01*
X0055318Y0148839D01*
X0054452Y0147972D01*
X0048029Y0147972D01*
X0047106Y0148895D01*
X0047106Y0156105D01*
X0048029Y0157028D01*
X0054452Y0157028D01*
X0054774Y0156705D01*
X0055174Y0157106D01*
X0062385Y0157106D01*
X0063094Y0156397D02*
X0076693Y0156397D01*
X0076693Y0155611D02*
X0063307Y0155611D01*
X0063307Y0154825D02*
X0076693Y0154825D01*
X0076693Y0154039D02*
X0063307Y0154039D01*
X0063307Y0153253D02*
X0076693Y0153253D01*
X0077136Y0152467D02*
X0063307Y0152467D01*
X0063307Y0151681D02*
X0078857Y0151681D01*
X0078859Y0150895D02*
X0063307Y0150895D01*
X0063307Y0150109D02*
X0078860Y0150109D01*
X0078862Y0149323D02*
X0062869Y0149323D01*
X0068451Y0146180D02*
X0041125Y0146180D01*
X0041125Y0146966D02*
X0069237Y0146966D01*
X0068376Y0145394D02*
X0041125Y0145394D01*
X0041125Y0144608D02*
X0068376Y0144608D01*
X0068376Y0143822D02*
X0041125Y0143822D01*
X0041125Y0143036D02*
X0068376Y0143036D01*
X0068376Y0142250D02*
X0041125Y0142250D01*
X0041125Y0141464D02*
X0068376Y0141464D01*
X0068376Y0140678D02*
X0041125Y0140678D01*
X0041125Y0139892D02*
X0068376Y0139892D01*
X0068376Y0139107D02*
X0041125Y0139107D01*
X0041125Y0138321D02*
X0068875Y0138321D01*
X0068875Y0137535D02*
X0041125Y0137535D01*
X0041125Y0136749D02*
X0068875Y0136749D01*
X0068875Y0135963D02*
X0041125Y0135963D01*
X0041125Y0135177D02*
X0066995Y0135177D01*
X0066209Y0134391D02*
X0041125Y0134391D01*
X0041125Y0133605D02*
X0066132Y0133605D01*
X0066132Y0132819D02*
X0041125Y0132819D01*
X0041125Y0132033D02*
X0066132Y0132033D01*
X0066132Y0131247D02*
X0041125Y0131247D01*
X0041125Y0130462D02*
X0066132Y0130462D01*
X0066132Y0129676D02*
X0041125Y0129676D01*
X0041125Y0128890D02*
X0066132Y0128890D01*
X0066132Y0128104D02*
X0041125Y0128104D01*
X0040844Y0127318D02*
X0066132Y0127318D01*
X0066310Y0126532D02*
X0040058Y0126532D01*
X0036375Y0131247D02*
X0028279Y0131247D01*
X0027729Y0132033D02*
X0036375Y0132033D01*
X0036375Y0132819D02*
X0026943Y0132819D01*
X0025544Y0133605D02*
X0036375Y0133605D01*
X0036375Y0134391D02*
X0000000Y0134391D01*
X0000000Y0133605D02*
X0013826Y0133605D01*
X0012427Y0132819D02*
X0000000Y0132819D01*
X0000000Y0132033D02*
X0011641Y0132033D01*
X0011091Y0131247D02*
X0000000Y0131247D01*
X0000000Y0135177D02*
X0036375Y0135177D01*
X0036375Y0135963D02*
X0000000Y0135963D01*
X0000000Y0136749D02*
X0036375Y0136749D01*
X0036375Y0137535D02*
X0000000Y0137535D01*
X0000000Y0138321D02*
X0036375Y0138321D01*
X0036375Y0139107D02*
X0000000Y0139107D01*
X0000000Y0139892D02*
X0036375Y0139892D01*
X0036375Y0140678D02*
X0000000Y0140678D01*
X0000000Y0141464D02*
X0036375Y0141464D01*
X0036375Y0142250D02*
X0000000Y0142250D01*
X0000000Y0143036D02*
X0036375Y0143036D01*
X0036375Y0143822D02*
X0000000Y0143822D01*
X0000000Y0144608D02*
X0036375Y0144608D01*
X0036375Y0145394D02*
X0000000Y0145394D01*
X0000000Y0146180D02*
X0036375Y0146180D01*
X0036375Y0146966D02*
X0000000Y0146966D01*
X0000000Y0147752D02*
X0036375Y0147752D01*
X0036375Y0148538D02*
X0000000Y0148538D01*
X0000000Y0149323D02*
X0036375Y0149323D01*
X0036375Y0150109D02*
X0000000Y0150109D01*
X0000000Y0150895D02*
X0036375Y0150895D01*
X0036375Y0151681D02*
X0000000Y0151681D01*
X0000000Y0152467D02*
X0036375Y0152467D01*
X0036375Y0153253D02*
X0000000Y0153253D01*
X0000000Y0154039D02*
X0036375Y0154039D01*
X0036375Y0154825D02*
X0000000Y0154825D01*
X0000000Y0155611D02*
X0036375Y0155611D01*
X0036375Y0156397D02*
X0000000Y0156397D01*
X0000000Y0157183D02*
X0036375Y0157183D01*
X0036375Y0157968D02*
X0000000Y0157968D01*
X0000000Y0158754D02*
X0036375Y0158754D01*
X0036375Y0159540D02*
X0000000Y0159540D01*
X0000000Y0160326D02*
X0036375Y0160326D01*
X0036375Y0161112D02*
X0000000Y0161112D01*
X0000000Y0161898D02*
X0036375Y0161898D01*
X0036375Y0162684D02*
X0000000Y0162684D01*
X0000000Y0163470D02*
X0036375Y0163470D01*
X0037147Y0164256D02*
X0000000Y0164256D01*
X0000000Y0165042D02*
X0039626Y0165042D01*
X0039626Y0165828D02*
X0000000Y0165828D01*
X0000000Y0166614D02*
X0040134Y0166614D01*
X0047385Y0166614D02*
X0047615Y0166614D01*
X0047398Y0156397D02*
X0041125Y0156397D01*
X0041125Y0155611D02*
X0047106Y0155611D01*
X0047106Y0154825D02*
X0041125Y0154825D01*
X0041125Y0154039D02*
X0047106Y0154039D01*
X0047106Y0153253D02*
X0041125Y0153253D01*
X0041125Y0152467D02*
X0047106Y0152467D01*
X0047106Y0151681D02*
X0041125Y0151681D01*
X0041125Y0150895D02*
X0047106Y0150895D01*
X0047106Y0150109D02*
X0041125Y0150109D01*
X0041125Y0149323D02*
X0047106Y0149323D01*
X0047464Y0148538D02*
X0041125Y0148538D01*
X0041125Y0147752D02*
X0078865Y0147752D01*
X0078863Y0148538D02*
X0055017Y0148538D01*
X0063245Y0158754D02*
X0076693Y0158754D01*
X0076693Y0159540D02*
X0063307Y0159540D01*
X0063307Y0160326D02*
X0076693Y0160326D01*
X0076693Y0161112D02*
X0063307Y0161112D01*
X0063307Y0161898D02*
X0076693Y0161898D01*
X0077288Y0162684D02*
X0063307Y0162684D01*
X0075783Y0146966D02*
X0076717Y0146966D01*
X0067016Y0124174D02*
X0026771Y0124174D01*
X0025129Y0123388D02*
X0066230Y0123388D01*
X0066969Y0073876D02*
X0024891Y0073876D01*
X0026672Y0073090D02*
X0066969Y0073090D01*
X0066969Y0072304D02*
X0027458Y0072304D01*
X0028167Y0071518D02*
X0066969Y0071518D01*
X0066969Y0070732D02*
X0028493Y0070732D01*
X0028818Y0069946D02*
X0066969Y0069946D01*
X0066969Y0069160D02*
X0028937Y0069160D01*
X0028937Y0068374D02*
X0066969Y0068374D01*
X0066969Y0067589D02*
X0028937Y0067589D01*
X0028646Y0066803D02*
X0066969Y0066803D01*
X0066969Y0066017D02*
X0028320Y0066017D01*
X0027827Y0065231D02*
X0066969Y0065231D01*
X0066969Y0064445D02*
X0027041Y0064445D01*
X0011057Y0091166D02*
X0009875Y0091166D01*
X0009875Y0091952D02*
X0011560Y0091952D01*
X0012346Y0092738D02*
X0009875Y0092738D01*
X0009875Y0093524D02*
X0013629Y0093524D01*
X0015610Y0094310D02*
X0009875Y0094310D01*
X0009875Y0095095D02*
X0015610Y0095095D01*
X0015610Y0095881D02*
X0009875Y0095881D01*
X0009875Y0096667D02*
X0015610Y0096667D01*
X0015610Y0097453D02*
X0009875Y0097453D01*
X0009875Y0098239D02*
X0015610Y0098239D01*
X0015610Y0099025D02*
X0009875Y0099025D01*
X0009875Y0099811D02*
X0015610Y0099811D01*
X0015610Y0100597D02*
X0009875Y0100597D01*
X0009875Y0101383D02*
X0015610Y0101383D01*
X0015610Y0102169D02*
X0009875Y0102169D01*
X0009875Y0102955D02*
X0015610Y0102955D01*
X0013391Y0103741D02*
X0009875Y0103741D01*
X0009875Y0104526D02*
X0012247Y0104526D01*
X0011461Y0105312D02*
X0009875Y0105312D01*
X0009875Y0106098D02*
X0011016Y0106098D01*
X0010674Y0106884D02*
X0009875Y0106884D01*
X0009875Y0107670D02*
X0010348Y0107670D01*
X0010194Y0108456D02*
X0009875Y0108456D01*
X0009875Y0109242D02*
X0010194Y0109242D01*
X0010430Y0110028D02*
X0009875Y0110028D01*
X0009875Y0110814D02*
X0010785Y0110814D01*
X0011237Y0111600D02*
X0009875Y0111600D01*
X0009875Y0112386D02*
X0011994Y0112386D01*
X0012780Y0113171D02*
X0009875Y0113171D01*
X0009875Y0113957D02*
X0014676Y0113957D01*
X0000000Y0167399D02*
X0118110Y0167399D01*
X0118110Y0168185D02*
X0000000Y0168185D01*
X0000000Y0168971D02*
X0118110Y0168971D01*
X0118074Y0169757D02*
X0000037Y0169757D01*
X0000102Y0170543D02*
X0118008Y0170543D01*
X0117820Y0171329D02*
X0000290Y0171329D01*
X0000547Y0172115D02*
X0117563Y0172115D01*
X0117231Y0172901D02*
X0000880Y0172901D01*
X0001361Y0173687D02*
X0116749Y0173687D01*
X0116134Y0174473D02*
X0001976Y0174473D01*
X0002774Y0175259D02*
X0115336Y0175259D01*
X0114240Y0176044D02*
X0003871Y0176044D01*
X0005651Y0176830D02*
X0112459Y0176830D01*
X0048400Y0033008D02*
X0047375Y0033008D01*
X0047375Y0032222D02*
X0047623Y0032222D01*
X0047625Y0031437D02*
X0047375Y0031437D01*
X0053714Y0004715D02*
X0053786Y0004715D01*
X0061195Y0004715D02*
X0063805Y0004715D01*
X0063376Y0005501D02*
X0061624Y0005501D01*
X0061624Y0006287D02*
X0063376Y0006287D01*
X0071214Y0004715D02*
X0117424Y0004715D01*
X0117739Y0005501D02*
X0071644Y0005501D01*
X0071644Y0006287D02*
X0117928Y0006287D01*
X0118047Y0007073D02*
X0071644Y0007073D01*
X0071644Y0007859D02*
X0118109Y0007859D01*
X0118110Y0008645D02*
X0071644Y0008645D01*
X0071644Y0009431D02*
X0118110Y0009431D01*
X0118110Y0010217D02*
X0071644Y0010217D01*
X0071644Y0011003D02*
X0118110Y0011003D01*
X0118110Y0011789D02*
X0071644Y0011789D01*
X0071424Y0012575D02*
X0118110Y0012575D01*
X0118110Y0013361D02*
X0071109Y0013361D01*
X0071644Y0014146D02*
X0118110Y0014146D01*
X0118110Y0014932D02*
X0071644Y0014932D01*
X0071644Y0015718D02*
X0118110Y0015718D01*
X0118110Y0016504D02*
X0071644Y0016504D01*
X0071644Y0017290D02*
X0118110Y0017290D01*
X0118110Y0018076D02*
X0071644Y0018076D01*
X0071644Y0018862D02*
X0118110Y0018862D01*
X0118110Y0019648D02*
X0071644Y0019648D01*
X0071644Y0020434D02*
X0118110Y0020434D01*
X0115848Y0002358D02*
X0002262Y0002358D01*
X0003166Y0001572D02*
X0114944Y0001572D01*
D24*
X0073750Y0057470D02*
X0073750Y0060000D01*
X0113750Y0115541D02*
X0113750Y0116132D01*
X0113750Y0126368D02*
X0113750Y0126959D01*
M02*
