G75*
%MOIN*%
%OFA0B0*%
%FSLAX25Y25*%
%IPPOS*%
%LPD*%
%AMOC8*
5,1,8,0,0,1.08239X$1,22.5*
%
%ADD10R,0.03937X0.05512*%
%ADD11R,0.05118X0.05906*%
%ADD12R,0.05906X0.05118*%
%ADD13R,0.07087X0.06299*%
%ADD14C,0.07677*%
%ADD15R,0.05906X0.04724*%
%ADD16C,0.16992*%
%ADD17C,0.02400*%
%ADD18C,0.03200*%
%ADD19C,0.03962*%
%ADD20C,0.00787*%
D10*
X0098760Y0051919D03*
X0106240Y0051919D03*
X0102500Y0060581D03*
D11*
X0088740Y0041250D03*
X0081260Y0041250D03*
X0078740Y0061250D03*
X0071260Y0061250D03*
D12*
X0071250Y0075010D03*
X0071250Y0082490D03*
X0080000Y0082490D03*
X0080000Y0075010D03*
X0088750Y0075010D03*
X0088750Y0082490D03*
X0088750Y0091260D03*
X0088750Y0098740D03*
X0088750Y0107510D03*
X0088750Y0114990D03*
X0097500Y0114990D03*
X0097500Y0107510D03*
X0097500Y0098740D03*
X0097500Y0091260D03*
X0097500Y0082490D03*
X0097500Y0075010D03*
X0106250Y0075010D03*
X0106250Y0082490D03*
X0106250Y0091260D03*
X0106250Y0098740D03*
X0106250Y0107510D03*
X0106250Y0114990D03*
X0080000Y0098740D03*
X0080000Y0091260D03*
X0071250Y0091260D03*
X0071250Y0098740D03*
D13*
X0088750Y0061762D03*
X0088750Y0050738D03*
D14*
X0023524Y0048740D02*
X0015846Y0048740D01*
X0015846Y0068740D02*
X0023524Y0068740D01*
X0023524Y0088740D02*
X0015846Y0088740D01*
X0015846Y0108740D02*
X0023524Y0108740D01*
D15*
X0096791Y0041250D03*
X0108209Y0041250D03*
D16*
X0098425Y0019685D03*
X0019685Y0019685D03*
X0019685Y0137795D03*
X0098425Y0137795D03*
D17*
X0097500Y0075010D02*
X0088750Y0075010D01*
X0088750Y0061762D02*
X0087500Y0061250D01*
X0098760Y0051919D02*
X0098760Y0050738D01*
X0071260Y0061250D02*
X0071250Y0061250D01*
D18*
X0071250Y0068750D01*
X0071250Y0075010D01*
X0071250Y0082490D02*
X0071250Y0091260D01*
X0071250Y0098740D02*
X0080000Y0098740D01*
X0080000Y0091260D02*
X0080000Y0082490D01*
X0080000Y0075010D02*
X0080000Y0068750D01*
X0080000Y0075010D02*
X0097500Y0075010D01*
X0102500Y0075010D01*
X0102500Y0060581D01*
X0098760Y0050738D02*
X0088750Y0050738D01*
X0088750Y0041260D01*
X0088740Y0041250D01*
X0096791Y0041250D01*
X0087500Y0061250D02*
X0078740Y0061250D01*
X0088750Y0082490D02*
X0088750Y0091260D01*
X0088750Y0098740D02*
X0088750Y0107510D01*
X0088750Y0114990D02*
X0097500Y0114990D01*
X0106250Y0114990D01*
X0106250Y0107510D02*
X0106250Y0098740D01*
X0106250Y0091260D02*
X0106250Y0082490D01*
X0106250Y0075010D02*
X0102500Y0075010D01*
X0097500Y0082490D02*
X0097500Y0091260D01*
X0097500Y0098740D02*
X0097500Y0107510D01*
D19*
X0080000Y0068750D03*
X0071250Y0068750D03*
X0075000Y0051250D03*
D20*
X0002306Y0002306D02*
X0001504Y0003246D01*
X0000858Y0004299D01*
X0000385Y0005441D01*
X0000097Y0006642D01*
X0000000Y0007874D01*
X0000000Y0149606D01*
X0000097Y0150838D01*
X0000385Y0152040D01*
X0000858Y0153181D01*
X0001504Y0154235D01*
X0002306Y0155174D01*
X0003246Y0155977D01*
X0004299Y0156622D01*
X0005441Y0157095D01*
X0006642Y0157383D01*
X0007874Y0157480D01*
X0110236Y0157480D01*
X0111468Y0157383D01*
X0112669Y0157095D01*
X0113811Y0156622D01*
X0114864Y0155977D01*
X0115804Y0155174D01*
X0116606Y0154235D01*
X0117252Y0153181D01*
X0117725Y0152040D01*
X0118013Y0150838D01*
X0118110Y0149606D01*
X0118110Y0007874D01*
X0118013Y0006642D01*
X0117725Y0005441D01*
X0117252Y0004299D01*
X0116606Y0003246D01*
X0115804Y0002306D01*
X0114864Y0001504D01*
X0113811Y0000858D01*
X0112669Y0000385D01*
X0111468Y0000097D01*
X0110236Y0000000D01*
X0007874Y0000000D01*
X0006642Y0000097D01*
X0005441Y0000385D01*
X0004299Y0000858D01*
X0003246Y0001504D01*
X0002306Y0002306D01*
X0002262Y0002358D02*
X0115848Y0002358D01*
X0116519Y0003144D02*
X0001591Y0003144D01*
X0001085Y0003930D02*
X0117025Y0003930D01*
X0117424Y0004715D02*
X0000686Y0004715D01*
X0000371Y0005501D02*
X0117739Y0005501D01*
X0117928Y0006287D02*
X0000182Y0006287D01*
X0000063Y0007073D02*
X0118047Y0007073D01*
X0118109Y0007859D02*
X0000001Y0007859D01*
X0000000Y0008645D02*
X0118110Y0008645D01*
X0118110Y0009431D02*
X0000000Y0009431D01*
X0000000Y0010217D02*
X0118110Y0010217D01*
X0118110Y0011003D02*
X0000000Y0011003D01*
X0000000Y0011789D02*
X0118110Y0011789D01*
X0118110Y0012575D02*
X0000000Y0012575D01*
X0000000Y0013361D02*
X0118110Y0013361D01*
X0118110Y0014146D02*
X0000000Y0014146D01*
X0000000Y0014932D02*
X0118110Y0014932D01*
X0118110Y0015718D02*
X0000000Y0015718D01*
X0000000Y0016504D02*
X0118110Y0016504D01*
X0118110Y0017290D02*
X0000000Y0017290D01*
X0000000Y0018076D02*
X0118110Y0018076D01*
X0118110Y0018862D02*
X0000000Y0018862D01*
X0000000Y0019648D02*
X0118110Y0019648D01*
X0118110Y0020434D02*
X0000000Y0020434D01*
X0000000Y0021220D02*
X0118110Y0021220D01*
X0118110Y0022006D02*
X0000000Y0022006D01*
X0000000Y0022791D02*
X0118110Y0022791D01*
X0118110Y0023577D02*
X0000000Y0023577D01*
X0000000Y0024363D02*
X0118110Y0024363D01*
X0118110Y0025149D02*
X0000000Y0025149D01*
X0000000Y0025935D02*
X0118110Y0025935D01*
X0118110Y0026721D02*
X0000000Y0026721D01*
X0000000Y0027507D02*
X0118110Y0027507D01*
X0118110Y0028293D02*
X0000000Y0028293D01*
X0000000Y0029079D02*
X0118110Y0029079D01*
X0118110Y0029865D02*
X0000000Y0029865D01*
X0000000Y0030651D02*
X0118110Y0030651D01*
X0118110Y0031437D02*
X0000000Y0031437D01*
X0000000Y0032222D02*
X0118110Y0032222D01*
X0118110Y0033008D02*
X0000000Y0033008D01*
X0000000Y0033794D02*
X0118110Y0033794D01*
X0118110Y0034580D02*
X0000000Y0034580D01*
X0000000Y0035366D02*
X0118110Y0035366D01*
X0118110Y0036152D02*
X0000000Y0036152D01*
X0000000Y0036938D02*
X0085287Y0036938D01*
X0085521Y0036704D02*
X0091959Y0036704D01*
X0092864Y0037608D01*
X0093178Y0037294D01*
X0100404Y0037294D01*
X0101338Y0038228D01*
X0101338Y0044272D01*
X0100404Y0045206D01*
X0093178Y0045206D01*
X0092864Y0044892D01*
X0091959Y0045796D01*
X0091944Y0045796D01*
X0091944Y0045995D01*
X0092953Y0045995D01*
X0093887Y0046928D01*
X0093887Y0047544D01*
X0099395Y0047544D01*
X0099456Y0047570D01*
X0101388Y0047570D01*
X0102322Y0048503D01*
X0102322Y0055335D01*
X0101426Y0056231D01*
X0105129Y0056231D01*
X0106062Y0057165D01*
X0106062Y0063997D01*
X0105694Y0064365D01*
X0105694Y0070857D01*
X0109863Y0070857D01*
X0110796Y0071791D01*
X0110796Y0078229D01*
X0110275Y0078750D01*
X0110796Y0079271D01*
X0110796Y0085709D01*
X0109863Y0086643D01*
X0109444Y0086643D01*
X0109444Y0087107D01*
X0109863Y0087107D01*
X0110796Y0088041D01*
X0110796Y0094479D01*
X0110275Y0095000D01*
X0110796Y0095521D01*
X0110796Y0101959D01*
X0109863Y0102893D01*
X0109444Y0102893D01*
X0109444Y0103357D01*
X0109863Y0103357D01*
X0110796Y0104291D01*
X0110796Y0110729D01*
X0109863Y0111663D01*
X0102637Y0111663D01*
X0101875Y0110900D01*
X0101113Y0111663D01*
X0093887Y0111663D01*
X0093125Y0110900D01*
X0092363Y0111663D01*
X0085137Y0111663D01*
X0084204Y0110729D01*
X0084204Y0104291D01*
X0085137Y0103357D01*
X0085556Y0103357D01*
X0085556Y0102893D01*
X0085137Y0102893D01*
X0084204Y0101959D01*
X0084204Y0095521D01*
X0084725Y0095000D01*
X0084375Y0094650D01*
X0083613Y0095413D01*
X0076387Y0095413D01*
X0075625Y0094650D01*
X0074863Y0095413D01*
X0067637Y0095413D01*
X0066704Y0094479D01*
X0066704Y0088041D01*
X0067637Y0087107D01*
X0068056Y0087107D01*
X0068056Y0086643D01*
X0067637Y0086643D01*
X0066704Y0085709D01*
X0066704Y0079271D01*
X0067225Y0078750D01*
X0066704Y0078229D01*
X0066704Y0071791D01*
X0067637Y0070857D01*
X0068056Y0070857D01*
X0068056Y0070381D01*
X0067675Y0069461D01*
X0067675Y0068039D01*
X0068056Y0067119D01*
X0068056Y0065796D01*
X0068041Y0065796D01*
X0067107Y0064863D01*
X0067107Y0057637D01*
X0068041Y0056704D01*
X0074479Y0056704D01*
X0075000Y0057225D01*
X0075521Y0056704D01*
X0081959Y0056704D01*
X0082893Y0057637D01*
X0082893Y0058056D01*
X0083613Y0058056D01*
X0083613Y0057952D01*
X0084547Y0057019D01*
X0092953Y0057019D01*
X0093887Y0057952D01*
X0093887Y0065572D01*
X0092953Y0066505D01*
X0084547Y0066505D01*
X0083613Y0065572D01*
X0083613Y0064444D01*
X0082893Y0064444D01*
X0082893Y0064863D01*
X0082031Y0065725D01*
X0083031Y0066725D01*
X0083575Y0068039D01*
X0083575Y0069461D01*
X0083194Y0070381D01*
X0083194Y0070857D01*
X0083613Y0070857D01*
X0084375Y0071619D01*
X0085137Y0070857D01*
X0092363Y0070857D01*
X0093125Y0071619D01*
X0093887Y0070857D01*
X0099306Y0070857D01*
X0099306Y0064365D01*
X0098938Y0063997D01*
X0098938Y0057165D01*
X0099834Y0056269D01*
X0096131Y0056269D01*
X0095198Y0055335D01*
X0095198Y0053932D01*
X0093887Y0053932D01*
X0093887Y0054548D01*
X0092953Y0055481D01*
X0084547Y0055481D01*
X0083613Y0054548D01*
X0083613Y0046928D01*
X0084547Y0045995D01*
X0085556Y0045995D01*
X0085556Y0045796D01*
X0085521Y0045796D01*
X0084587Y0044863D01*
X0084587Y0037637D01*
X0085521Y0036704D01*
X0084587Y0037724D02*
X0000000Y0037724D01*
X0000000Y0038510D02*
X0084587Y0038510D01*
X0084587Y0039296D02*
X0000000Y0039296D01*
X0000000Y0040082D02*
X0084587Y0040082D01*
X0084587Y0040867D02*
X0000000Y0040867D01*
X0000000Y0041653D02*
X0084587Y0041653D01*
X0084587Y0042439D02*
X0000000Y0042439D01*
X0000000Y0043225D02*
X0084587Y0043225D01*
X0084587Y0044011D02*
X0000000Y0044011D01*
X0000000Y0044797D02*
X0084587Y0044797D01*
X0085307Y0045583D02*
X0000000Y0045583D01*
X0000000Y0046369D02*
X0084173Y0046369D01*
X0083613Y0047155D02*
X0000000Y0047155D01*
X0000000Y0047941D02*
X0083613Y0047941D01*
X0083613Y0048727D02*
X0000000Y0048727D01*
X0000000Y0049513D02*
X0083613Y0049513D01*
X0083613Y0050298D02*
X0000000Y0050298D01*
X0000000Y0051084D02*
X0083613Y0051084D01*
X0083613Y0051870D02*
X0000000Y0051870D01*
X0000000Y0052656D02*
X0083613Y0052656D01*
X0083613Y0053442D02*
X0000000Y0053442D01*
X0000000Y0054228D02*
X0083613Y0054228D01*
X0084079Y0055014D02*
X0000000Y0055014D01*
X0000000Y0055800D02*
X0095662Y0055800D01*
X0095198Y0055014D02*
X0093421Y0055014D01*
X0093887Y0054228D02*
X0095198Y0054228D01*
X0093307Y0057372D02*
X0098938Y0057372D01*
X0098938Y0058158D02*
X0093887Y0058158D01*
X0093887Y0058943D02*
X0098938Y0058943D01*
X0098938Y0059729D02*
X0093887Y0059729D01*
X0093887Y0060515D02*
X0098938Y0060515D01*
X0098938Y0061301D02*
X0093887Y0061301D01*
X0093887Y0062087D02*
X0098938Y0062087D01*
X0098938Y0062873D02*
X0093887Y0062873D01*
X0093887Y0063659D02*
X0098938Y0063659D01*
X0099306Y0064445D02*
X0093887Y0064445D01*
X0093887Y0065231D02*
X0099306Y0065231D01*
X0099306Y0066017D02*
X0093442Y0066017D01*
X0093226Y0071518D02*
X0093024Y0071518D01*
X0099306Y0070732D02*
X0083194Y0070732D01*
X0083374Y0069946D02*
X0099306Y0069946D01*
X0099306Y0069160D02*
X0083575Y0069160D01*
X0083575Y0068374D02*
X0099306Y0068374D01*
X0099306Y0067589D02*
X0083388Y0067589D01*
X0083063Y0066803D02*
X0099306Y0066803D01*
X0105694Y0066803D02*
X0118110Y0066803D01*
X0118110Y0067589D02*
X0105694Y0067589D01*
X0105694Y0068374D02*
X0118110Y0068374D01*
X0118110Y0069160D02*
X0105694Y0069160D01*
X0105694Y0069946D02*
X0118110Y0069946D01*
X0118110Y0070732D02*
X0105694Y0070732D01*
X0105694Y0066017D02*
X0118110Y0066017D01*
X0118110Y0065231D02*
X0105694Y0065231D01*
X0105694Y0064445D02*
X0118110Y0064445D01*
X0118110Y0063659D02*
X0106062Y0063659D01*
X0106062Y0062873D02*
X0118110Y0062873D01*
X0118110Y0062087D02*
X0106062Y0062087D01*
X0106062Y0061301D02*
X0118110Y0061301D01*
X0118110Y0060515D02*
X0106062Y0060515D01*
X0106062Y0059729D02*
X0118110Y0059729D01*
X0118110Y0058943D02*
X0106062Y0058943D01*
X0106062Y0058158D02*
X0118110Y0058158D01*
X0118110Y0057372D02*
X0106062Y0057372D01*
X0105483Y0056586D02*
X0118110Y0056586D01*
X0118110Y0055800D02*
X0101858Y0055800D01*
X0102322Y0055014D02*
X0118110Y0055014D01*
X0118110Y0054228D02*
X0102322Y0054228D01*
X0102322Y0053442D02*
X0118110Y0053442D01*
X0118110Y0052656D02*
X0102322Y0052656D01*
X0102322Y0051870D02*
X0118110Y0051870D01*
X0118110Y0051084D02*
X0102322Y0051084D01*
X0102322Y0050298D02*
X0118110Y0050298D01*
X0118110Y0049513D02*
X0102322Y0049513D01*
X0102322Y0048727D02*
X0118110Y0048727D01*
X0118110Y0047941D02*
X0101759Y0047941D01*
X0100813Y0044797D02*
X0118110Y0044797D01*
X0118110Y0044011D02*
X0101338Y0044011D01*
X0101338Y0043225D02*
X0118110Y0043225D01*
X0118110Y0042439D02*
X0101338Y0042439D01*
X0101338Y0041653D02*
X0118110Y0041653D01*
X0118110Y0040867D02*
X0101338Y0040867D01*
X0101338Y0040082D02*
X0118110Y0040082D01*
X0118110Y0039296D02*
X0101338Y0039296D01*
X0101338Y0038510D02*
X0118110Y0038510D01*
X0118110Y0037724D02*
X0100834Y0037724D01*
X0093327Y0046369D02*
X0118110Y0046369D01*
X0118110Y0047155D02*
X0093887Y0047155D01*
X0092173Y0045583D02*
X0118110Y0045583D01*
X0118110Y0036938D02*
X0092194Y0036938D01*
X0099517Y0056586D02*
X0000000Y0056586D01*
X0000000Y0057372D02*
X0067373Y0057372D01*
X0067107Y0058158D02*
X0000000Y0058158D01*
X0000000Y0058943D02*
X0067107Y0058943D01*
X0067107Y0059729D02*
X0000000Y0059729D01*
X0000000Y0060515D02*
X0067107Y0060515D01*
X0067107Y0061301D02*
X0000000Y0061301D01*
X0000000Y0062087D02*
X0067107Y0062087D01*
X0067107Y0062873D02*
X0000000Y0062873D01*
X0000000Y0063659D02*
X0013918Y0063659D01*
X0014766Y0063308D02*
X0024604Y0063308D01*
X0026601Y0064135D01*
X0028129Y0065663D01*
X0028956Y0067660D01*
X0028956Y0069821D01*
X0028129Y0071817D01*
X0026601Y0073345D01*
X0024604Y0074172D01*
X0014766Y0074172D01*
X0012769Y0073345D01*
X0011241Y0071817D01*
X0010414Y0069821D01*
X0010414Y0067660D01*
X0011241Y0065663D01*
X0012769Y0064135D01*
X0014766Y0063308D01*
X0012459Y0064445D02*
X0000000Y0064445D01*
X0000000Y0065231D02*
X0011673Y0065231D01*
X0011095Y0066017D02*
X0000000Y0066017D01*
X0000000Y0066803D02*
X0010769Y0066803D01*
X0010444Y0067589D02*
X0000000Y0067589D01*
X0000000Y0068374D02*
X0010414Y0068374D01*
X0010414Y0069160D02*
X0000000Y0069160D01*
X0000000Y0069946D02*
X0010466Y0069946D01*
X0010792Y0070732D02*
X0000000Y0070732D01*
X0000000Y0071518D02*
X0011117Y0071518D01*
X0011728Y0072304D02*
X0000000Y0072304D01*
X0000000Y0073090D02*
X0012514Y0073090D01*
X0014050Y0073876D02*
X0000000Y0073876D01*
X0000000Y0074662D02*
X0066704Y0074662D01*
X0066704Y0075448D02*
X0000000Y0075448D01*
X0000000Y0076234D02*
X0066704Y0076234D01*
X0066704Y0077019D02*
X0000000Y0077019D01*
X0000000Y0077805D02*
X0066704Y0077805D01*
X0067066Y0078591D02*
X0000000Y0078591D01*
X0000000Y0079377D02*
X0066704Y0079377D01*
X0066704Y0080163D02*
X0000000Y0080163D01*
X0000000Y0080949D02*
X0066704Y0080949D01*
X0066704Y0081735D02*
X0000000Y0081735D01*
X0000000Y0082521D02*
X0066704Y0082521D01*
X0066704Y0083307D02*
X0000000Y0083307D01*
X0000000Y0084093D02*
X0012871Y0084093D01*
X0012769Y0084135D02*
X0014766Y0083308D01*
X0024604Y0083308D01*
X0026601Y0084135D01*
X0028129Y0085663D01*
X0028956Y0087660D01*
X0028956Y0089821D01*
X0028129Y0091817D01*
X0026601Y0093345D01*
X0024604Y0094172D01*
X0014766Y0094172D01*
X0012769Y0093345D01*
X0011241Y0091817D01*
X0010414Y0089821D01*
X0010414Y0087660D01*
X0011241Y0085663D01*
X0012769Y0084135D01*
X0012026Y0084879D02*
X0000000Y0084879D01*
X0000000Y0085665D02*
X0011241Y0085665D01*
X0010915Y0086450D02*
X0000000Y0086450D01*
X0000000Y0087236D02*
X0010589Y0087236D01*
X0010414Y0088022D02*
X0000000Y0088022D01*
X0000000Y0088808D02*
X0010414Y0088808D01*
X0010414Y0089594D02*
X0000000Y0089594D01*
X0000000Y0090380D02*
X0010646Y0090380D01*
X0010971Y0091166D02*
X0000000Y0091166D01*
X0000000Y0091952D02*
X0011376Y0091952D01*
X0012162Y0092738D02*
X0000000Y0092738D01*
X0000000Y0093524D02*
X0013200Y0093524D01*
X0014766Y0103308D02*
X0012769Y0104135D01*
X0011241Y0105663D01*
X0010414Y0107660D01*
X0010414Y0109821D01*
X0011241Y0111817D01*
X0012769Y0113345D01*
X0014766Y0114172D01*
X0024604Y0114172D01*
X0026601Y0113345D01*
X0028129Y0111817D01*
X0028956Y0109821D01*
X0028956Y0107660D01*
X0028129Y0105663D01*
X0026601Y0104135D01*
X0024604Y0103308D01*
X0014766Y0103308D01*
X0013721Y0103741D02*
X0000000Y0103741D01*
X0000000Y0104526D02*
X0012378Y0104526D01*
X0011592Y0105312D02*
X0000000Y0105312D01*
X0000000Y0106098D02*
X0011061Y0106098D01*
X0010735Y0106884D02*
X0000000Y0106884D01*
X0000000Y0107670D02*
X0010414Y0107670D01*
X0010414Y0108456D02*
X0000000Y0108456D01*
X0000000Y0109242D02*
X0010414Y0109242D01*
X0010500Y0110028D02*
X0000000Y0110028D01*
X0000000Y0110814D02*
X0010826Y0110814D01*
X0011151Y0111600D02*
X0000000Y0111600D01*
X0000000Y0112386D02*
X0011809Y0112386D01*
X0012595Y0113171D02*
X0000000Y0113171D01*
X0000000Y0113957D02*
X0014247Y0113957D01*
X0025123Y0113957D02*
X0118110Y0113957D01*
X0118110Y0113171D02*
X0026775Y0113171D01*
X0027561Y0112386D02*
X0118110Y0112386D01*
X0118110Y0111600D02*
X0109926Y0111600D01*
X0110712Y0110814D02*
X0118110Y0110814D01*
X0118110Y0110028D02*
X0110796Y0110028D01*
X0110796Y0109242D02*
X0118110Y0109242D01*
X0118110Y0108456D02*
X0110796Y0108456D01*
X0110796Y0107670D02*
X0118110Y0107670D01*
X0118110Y0106884D02*
X0110796Y0106884D01*
X0110796Y0106098D02*
X0118110Y0106098D01*
X0118110Y0105312D02*
X0110796Y0105312D01*
X0110796Y0104526D02*
X0118110Y0104526D01*
X0118110Y0103741D02*
X0110246Y0103741D01*
X0109444Y0102955D02*
X0118110Y0102955D01*
X0118110Y0102169D02*
X0110587Y0102169D01*
X0110796Y0101383D02*
X0118110Y0101383D01*
X0118110Y0100597D02*
X0110796Y0100597D01*
X0110796Y0099811D02*
X0118110Y0099811D01*
X0118110Y0099025D02*
X0110796Y0099025D01*
X0110796Y0098239D02*
X0118110Y0098239D01*
X0118110Y0097453D02*
X0110796Y0097453D01*
X0110796Y0096667D02*
X0118110Y0096667D01*
X0118110Y0095881D02*
X0110796Y0095881D01*
X0110371Y0095095D02*
X0118110Y0095095D01*
X0118110Y0094310D02*
X0110796Y0094310D01*
X0110796Y0093524D02*
X0118110Y0093524D01*
X0118110Y0092738D02*
X0110796Y0092738D01*
X0110796Y0091952D02*
X0118110Y0091952D01*
X0118110Y0091166D02*
X0110796Y0091166D01*
X0110796Y0090380D02*
X0118110Y0090380D01*
X0118110Y0089594D02*
X0110796Y0089594D01*
X0110796Y0088808D02*
X0118110Y0088808D01*
X0118110Y0088022D02*
X0110778Y0088022D01*
X0109992Y0087236D02*
X0118110Y0087236D01*
X0118110Y0086450D02*
X0110055Y0086450D01*
X0110796Y0085665D02*
X0118110Y0085665D01*
X0118110Y0084879D02*
X0110796Y0084879D01*
X0110796Y0084093D02*
X0118110Y0084093D01*
X0118110Y0083307D02*
X0110796Y0083307D01*
X0110796Y0082521D02*
X0118110Y0082521D01*
X0118110Y0081735D02*
X0110796Y0081735D01*
X0110796Y0080949D02*
X0118110Y0080949D01*
X0118110Y0080163D02*
X0110796Y0080163D01*
X0110796Y0079377D02*
X0118110Y0079377D01*
X0118110Y0078591D02*
X0110434Y0078591D01*
X0110796Y0077805D02*
X0118110Y0077805D01*
X0118110Y0077019D02*
X0110796Y0077019D01*
X0110796Y0076234D02*
X0118110Y0076234D01*
X0118110Y0075448D02*
X0110796Y0075448D01*
X0110796Y0074662D02*
X0118110Y0074662D01*
X0118110Y0073876D02*
X0110796Y0073876D01*
X0110796Y0073090D02*
X0118110Y0073090D01*
X0118110Y0072304D02*
X0110796Y0072304D01*
X0110524Y0071518D02*
X0118110Y0071518D01*
X0102574Y0111600D02*
X0101176Y0111600D01*
X0093824Y0111600D02*
X0092426Y0111600D01*
X0085074Y0111600D02*
X0028219Y0111600D01*
X0028545Y0110814D02*
X0084288Y0110814D01*
X0084204Y0110028D02*
X0028870Y0110028D01*
X0028956Y0109242D02*
X0084204Y0109242D01*
X0084204Y0108456D02*
X0028956Y0108456D01*
X0028956Y0107670D02*
X0084204Y0107670D01*
X0084204Y0106884D02*
X0028635Y0106884D01*
X0028309Y0106098D02*
X0084204Y0106098D01*
X0084204Y0105312D02*
X0027778Y0105312D01*
X0026992Y0104526D02*
X0084204Y0104526D01*
X0084754Y0103741D02*
X0025649Y0103741D01*
X0026170Y0093524D02*
X0066704Y0093524D01*
X0066704Y0094310D02*
X0000000Y0094310D01*
X0000000Y0095095D02*
X0067320Y0095095D01*
X0066704Y0092738D02*
X0027208Y0092738D01*
X0027994Y0091952D02*
X0066704Y0091952D01*
X0066704Y0091166D02*
X0028399Y0091166D01*
X0028724Y0090380D02*
X0066704Y0090380D01*
X0066704Y0089594D02*
X0028956Y0089594D01*
X0028956Y0088808D02*
X0066704Y0088808D01*
X0066722Y0088022D02*
X0028956Y0088022D01*
X0028781Y0087236D02*
X0067508Y0087236D01*
X0067445Y0086450D02*
X0028455Y0086450D01*
X0028129Y0085665D02*
X0066704Y0085665D01*
X0066704Y0084879D02*
X0027344Y0084879D01*
X0026499Y0084093D02*
X0066704Y0084093D01*
X0066704Y0073876D02*
X0025320Y0073876D01*
X0026856Y0073090D02*
X0066704Y0073090D01*
X0066704Y0072304D02*
X0027642Y0072304D01*
X0028253Y0071518D02*
X0066976Y0071518D01*
X0068056Y0070732D02*
X0028578Y0070732D01*
X0028904Y0069946D02*
X0067876Y0069946D01*
X0067675Y0069160D02*
X0028956Y0069160D01*
X0028956Y0068374D02*
X0067675Y0068374D01*
X0067862Y0067589D02*
X0028926Y0067589D01*
X0028601Y0066803D02*
X0068056Y0066803D01*
X0068056Y0066017D02*
X0028275Y0066017D01*
X0027697Y0065231D02*
X0067475Y0065231D01*
X0067107Y0064445D02*
X0026911Y0064445D01*
X0025452Y0063659D02*
X0067107Y0063659D01*
X0082322Y0066017D02*
X0084058Y0066017D01*
X0083613Y0065231D02*
X0082525Y0065231D01*
X0082893Y0064445D02*
X0083613Y0064445D01*
X0084193Y0057372D02*
X0082627Y0057372D01*
X0084274Y0071518D02*
X0084476Y0071518D01*
X0084629Y0095095D02*
X0083930Y0095095D01*
X0084204Y0095881D02*
X0000000Y0095881D01*
X0000000Y0096667D02*
X0084204Y0096667D01*
X0084204Y0097453D02*
X0000000Y0097453D01*
X0000000Y0098239D02*
X0084204Y0098239D01*
X0084204Y0099025D02*
X0000000Y0099025D01*
X0000000Y0099811D02*
X0084204Y0099811D01*
X0084204Y0100597D02*
X0000000Y0100597D01*
X0000000Y0101383D02*
X0084204Y0101383D01*
X0084413Y0102169D02*
X0000000Y0102169D01*
X0000000Y0102955D02*
X0085556Y0102955D01*
X0076070Y0095095D02*
X0075180Y0095095D01*
X0118110Y0114743D02*
X0000000Y0114743D01*
X0000000Y0115529D02*
X0118110Y0115529D01*
X0118110Y0116315D02*
X0000000Y0116315D01*
X0000000Y0117101D02*
X0118110Y0117101D01*
X0118110Y0117887D02*
X0000000Y0117887D01*
X0000000Y0118673D02*
X0118110Y0118673D01*
X0118110Y0119459D02*
X0000000Y0119459D01*
X0000000Y0120245D02*
X0118110Y0120245D01*
X0118110Y0121031D02*
X0000000Y0121031D01*
X0000000Y0121816D02*
X0118110Y0121816D01*
X0118110Y0122602D02*
X0000000Y0122602D01*
X0000000Y0123388D02*
X0118110Y0123388D01*
X0118110Y0124174D02*
X0000000Y0124174D01*
X0000000Y0124960D02*
X0118110Y0124960D01*
X0118110Y0125746D02*
X0000000Y0125746D01*
X0000000Y0126532D02*
X0118110Y0126532D01*
X0118110Y0127318D02*
X0000000Y0127318D01*
X0000000Y0128104D02*
X0118110Y0128104D01*
X0118110Y0128890D02*
X0000000Y0128890D01*
X0000000Y0129676D02*
X0118110Y0129676D01*
X0118110Y0130462D02*
X0000000Y0130462D01*
X0000000Y0131247D02*
X0118110Y0131247D01*
X0118110Y0132033D02*
X0000000Y0132033D01*
X0000000Y0132819D02*
X0118110Y0132819D01*
X0118110Y0133605D02*
X0000000Y0133605D01*
X0000000Y0134391D02*
X0118110Y0134391D01*
X0118110Y0135177D02*
X0000000Y0135177D01*
X0000000Y0135963D02*
X0118110Y0135963D01*
X0118110Y0136749D02*
X0000000Y0136749D01*
X0000000Y0137535D02*
X0118110Y0137535D01*
X0118110Y0138321D02*
X0000000Y0138321D01*
X0000000Y0139107D02*
X0118110Y0139107D01*
X0118110Y0139892D02*
X0000000Y0139892D01*
X0000000Y0140678D02*
X0118110Y0140678D01*
X0118110Y0141464D02*
X0000000Y0141464D01*
X0000000Y0142250D02*
X0118110Y0142250D01*
X0118110Y0143036D02*
X0000000Y0143036D01*
X0000000Y0143822D02*
X0118110Y0143822D01*
X0118110Y0144608D02*
X0000000Y0144608D01*
X0000000Y0145394D02*
X0118110Y0145394D01*
X0118110Y0146180D02*
X0000000Y0146180D01*
X0000000Y0146966D02*
X0118110Y0146966D01*
X0118110Y0147752D02*
X0000000Y0147752D01*
X0000000Y0148538D02*
X0118110Y0148538D01*
X0118110Y0149323D02*
X0000000Y0149323D01*
X0000040Y0150109D02*
X0118071Y0150109D01*
X0118000Y0150895D02*
X0000111Y0150895D01*
X0000299Y0151681D02*
X0117811Y0151681D01*
X0117548Y0152467D02*
X0000563Y0152467D01*
X0000902Y0153253D02*
X0117208Y0153253D01*
X0116726Y0154039D02*
X0001384Y0154039D01*
X0002008Y0154825D02*
X0116102Y0154825D01*
X0115293Y0155611D02*
X0002818Y0155611D01*
X0003931Y0156397D02*
X0114179Y0156397D01*
X0112304Y0157183D02*
X0005806Y0157183D01*
X0003166Y0001572D02*
X0114944Y0001572D01*
X0113636Y0000786D02*
X0004474Y0000786D01*
X0007874Y0000000D02*
X0110236Y0000000D01*
M02*
